<svg width="557" height="552" viewBox="0 0 557 552" fill="none" xmlns="http://www.w3.org/2000/svg">
<path fill-rule="evenodd" clip-rule="evenodd" d="M419.672 384.773C400.431 428.925 411.745 494.54 368.818 516.241C326.279 537.746 278.89 495.981 234.634 478.313C198.803 464.009 169.759 440.135 141.302 414.049C110.176 385.516 78.6418 354.505 69.8525 313.158C60.5758 269.518 66.552 233.332 87.2244 193.806C108.496 153.136 140.983 119.491 181.702 98.4307C224.115 76.4947 273.196 61.1205 319.202 73.8264C364.093 86.2244 393.067 127.25 421.059 164.536C446.638 198.609 472.852 235.497 472.583 278.138C472.327 318.826 435.924 347.482 419.672 384.773Z" fill="#DDF3E4"/>
<rect x="89.5095" y="82.5005" width="353" height="399" rx="14.5" fill="white" stroke="#1D1D1B"/>
<rect x="122.01" y="182" width="100" height="12" rx="6" fill="#ECECEC"/>
<rect x="122.01" y="208" width="66" height="12" rx="6" fill="#ECECEC"/>
<rect x="122.01" y="234" width="89" height="12" rx="6" fill="#ECECEC"/>
<rect x="338.011" y="429.001" width="69" height="12" rx="6" fill="#59D0A6"/>
<line x1="338.011" y1="451.501" x2="407.011" y2="451.501" stroke="#ECECEC"/>
<line x1="338.011" y1="455.501" x2="407.011" y2="455.501" stroke="#ECECEC"/>
<path d="M104.01 82.5005H428.01C436.018 82.5005 442.51 88.9924 442.51 97.0005V138.5H89.5095V97.0005C89.5095 88.9924 96.0014 82.5005 104.01 82.5005Z" fill="#1D1D1B" stroke="#1D1D1B"/>
<path d="M123.874 118.736C123.552 118.736 123.39 118.611 123.39 118.362V118.296C123.39 118.149 123.53 117.922 123.808 117.614C124.087 117.291 124.226 116.961 124.226 116.624V105.228C124.226 104.876 124.087 104.553 123.808 104.26C123.53 103.952 123.39 103.717 123.39 103.556V103.468C123.39 103.233 123.552 103.116 123.874 103.116H128.01C128.362 103.116 128.538 103.233 128.538 103.468V103.556C128.538 103.717 128.377 103.952 128.054 104.26C127.746 104.553 127.592 104.876 127.592 105.228V116.162C127.592 116.514 127.666 116.807 127.812 117.042C127.974 117.277 128.208 117.394 128.516 117.394H131.684C132.051 117.394 132.388 117.247 132.696 116.954C133.004 116.646 133.239 116.316 133.4 115.964C133.576 115.612 133.767 115.289 133.972 114.996C134.192 114.688 134.405 114.534 134.61 114.534H134.874C135.197 114.534 135.322 114.695 135.248 115.018L134.676 118.098C134.588 118.523 134.361 118.736 133.994 118.736H123.874ZM146.373 109.936C147.253 110.933 147.693 112.121 147.693 113.5C147.693 115.069 147.158 116.375 146.087 117.416C145.031 118.443 143.704 118.956 142.105 118.956C140.624 118.956 139.341 118.553 138.255 117.746L137.045 118.912C136.884 119.044 136.737 119.044 136.605 118.912L136.143 118.472C135.982 118.311 135.997 118.135 136.187 117.944L137.331 116.844C136.495 115.847 136.077 114.695 136.077 113.39C136.077 111.821 136.635 110.523 137.749 109.496C138.864 108.469 140.206 107.956 141.775 107.956C143.154 107.956 144.371 108.33 145.427 109.078L146.615 107.934C146.821 107.729 147.011 107.714 147.187 107.89L147.583 108.264C147.745 108.44 147.73 108.623 147.539 108.814L146.373 109.936ZM139.333 112.136C139.333 112.869 139.451 113.683 139.685 114.578L143.535 110.882C142.919 109.577 142.186 108.924 141.335 108.924C140.001 108.924 139.333 109.995 139.333 112.136ZM142.501 117.988C143.103 117.988 143.565 117.709 143.887 117.152C144.225 116.595 144.393 115.81 144.393 114.798C144.393 113.977 144.269 113.111 144.019 112.202L140.169 115.898C140.815 117.291 141.592 117.988 142.501 117.988ZM160.452 116.602C160.481 116.954 160.62 117.284 160.87 117.592C161.119 117.9 161.244 118.135 161.244 118.296V118.384C161.244 118.633 161.075 118.758 160.738 118.758H156.932C156.594 118.758 156.426 118.633 156.426 118.384V118.296C156.426 118.149 156.558 117.922 156.822 117.614C157.1 117.306 157.232 116.969 157.218 116.602L156.998 112.532C156.895 110.317 156.257 109.21 155.084 109.21C154.497 109.21 154.035 109.43 153.698 109.87C153.375 110.31 153.214 110.897 153.214 111.63V116.624C153.214 116.976 153.368 117.306 153.676 117.614C153.998 117.922 154.16 118.149 154.16 118.296V118.384C154.16 118.633 153.991 118.758 153.654 118.758H149.562C149.224 118.758 149.056 118.633 149.056 118.384V118.296C149.056 118.149 149.21 117.922 149.518 117.614C149.84 117.306 150.002 116.976 150.002 116.624V111.498C150.002 111.278 149.943 111.08 149.826 110.904C149.723 110.728 149.598 110.603 149.452 110.53C149.32 110.442 149.195 110.339 149.078 110.222C148.975 110.105 148.924 109.987 148.924 109.87V109.782C148.924 109.621 149.07 109.467 149.364 109.32L151.982 108.044C152.231 107.927 152.414 107.919 152.532 108.022C152.664 108.11 152.73 108.271 152.73 108.506V109.738C153.36 108.55 154.446 107.956 155.986 107.956C157.1 107.956 158.046 108.33 158.824 109.078C159.616 109.826 160.07 111.014 160.188 112.642L160.452 116.602ZM166.866 118.934C165.488 118.934 164.358 118.685 163.478 118.186C162.598 117.687 162.158 117.086 162.158 116.382C162.158 115.986 162.276 115.685 162.51 115.48C162.76 115.275 163.082 115.172 163.478 115.172C163.904 115.172 164.248 115.326 164.512 115.634C164.776 115.927 164.96 116.257 165.062 116.624C165.18 116.991 165.385 117.328 165.678 117.636C165.986 117.929 166.382 118.076 166.866 118.076C167.336 118.076 167.717 117.951 168.01 117.702C168.318 117.453 168.472 117.093 168.472 116.624C168.472 116.096 168.26 115.678 167.834 115.37C167.424 115.062 166.918 114.835 166.316 114.688C165.715 114.527 165.114 114.351 164.512 114.16C163.911 113.955 163.398 113.61 162.972 113.126C162.562 112.627 162.356 111.982 162.356 111.19C162.356 110.251 162.767 109.481 163.588 108.88C164.424 108.264 165.502 107.956 166.822 107.956C168.157 107.956 169.242 108.22 170.078 108.748C170.929 109.261 171.354 109.877 171.354 110.596C171.354 110.919 171.23 111.19 170.98 111.41C170.746 111.63 170.452 111.74 170.1 111.74C169.69 111.74 169.36 111.593 169.11 111.3C168.861 110.992 168.685 110.662 168.582 110.31C168.48 109.943 168.296 109.613 168.032 109.32C167.768 109.012 167.424 108.858 166.998 108.858C166.573 108.858 166.228 109.005 165.964 109.298C165.7 109.577 165.568 109.921 165.568 110.332C165.568 110.743 165.678 111.087 165.898 111.366C166.118 111.645 166.404 111.857 166.756 112.004C167.108 112.151 167.497 112.29 167.922 112.422C168.348 112.539 168.773 112.679 169.198 112.84C169.638 112.987 170.034 113.17 170.386 113.39C170.738 113.61 171.024 113.925 171.244 114.336C171.464 114.732 171.574 115.216 171.574 115.788C171.574 116.697 171.149 117.453 170.298 118.054C169.448 118.641 168.304 118.934 166.866 118.934ZM181.838 115.392C181.97 115.216 182.131 115.157 182.322 115.216C182.512 115.275 182.6 115.414 182.586 115.634C182.512 116.411 182.094 117.159 181.332 117.878C180.584 118.597 179.542 118.956 178.208 118.956C176.58 118.956 175.252 118.443 174.226 117.416C173.199 116.375 172.686 115.025 172.686 113.368C172.686 111.784 173.206 110.493 174.248 109.496C175.289 108.484 176.565 107.971 178.076 107.956C179.322 107.941 180.334 108.213 181.112 108.77C181.889 109.327 182.278 110.083 182.278 111.036C182.278 111.813 181.948 112.495 181.288 113.082C180.642 113.654 179.799 114.035 178.758 114.226C177.936 114.402 177.034 114.446 176.052 114.358C176.345 115.077 176.763 115.641 177.306 116.052C177.863 116.463 178.501 116.668 179.22 116.668C180.437 116.668 181.31 116.243 181.838 115.392ZM177.658 108.968C177.042 108.968 176.543 109.247 176.162 109.804C175.795 110.361 175.612 111.065 175.612 111.916C175.612 112.4 175.656 112.862 175.744 113.302C176.55 113.361 177.225 113.324 177.768 113.192C178.78 113.001 179.286 112.239 179.286 110.904C179.271 110.361 179.11 109.907 178.802 109.54C178.508 109.159 178.127 108.968 177.658 108.968ZM194.532 116.624C194.532 116.961 194.679 117.291 194.972 117.614C195.265 117.922 195.412 118.149 195.412 118.296V118.362C195.412 118.611 195.265 118.736 194.972 118.736H192.244C191.907 118.736 191.738 118.575 191.738 118.252L191.694 117.768C191.019 118.56 190.066 118.956 188.834 118.956C187.411 118.956 186.194 118.465 185.182 117.482C184.17 116.485 183.664 115.135 183.664 113.434C183.664 111.835 184.17 110.523 185.182 109.496C186.194 108.469 187.419 107.956 188.856 107.956C189.883 107.956 190.741 108.242 191.43 108.814V105.294C191.43 105.001 191.335 104.759 191.144 104.568C190.968 104.377 190.785 104.216 190.594 104.084C190.418 103.952 190.33 103.813 190.33 103.666V103.6C190.33 103.351 190.484 103.182 190.792 103.094L193.674 102.214C194.246 102.023 194.532 102.17 194.532 102.654V116.624ZM189.56 118.01C190.059 118.01 190.491 117.805 190.858 117.394C191.239 116.969 191.43 116.389 191.43 115.656V111.784C191.43 111.065 191.188 110.405 190.704 109.804C190.22 109.203 189.663 108.902 189.032 108.902C188.357 108.902 187.822 109.188 187.426 109.76C187.03 110.317 186.825 111.109 186.81 112.136C186.781 112.972 186.861 113.83 187.052 114.71C187.257 115.59 187.58 116.36 188.02 117.02C188.475 117.665 188.988 117.995 189.56 118.01ZM207.358 116.624C207.358 116.961 207.505 117.291 207.798 117.614C208.092 117.922 208.238 118.149 208.238 118.296V118.362C208.238 118.611 208.092 118.736 207.798 118.736H205.07C204.733 118.736 204.564 118.575 204.564 118.252L204.52 117.768C203.846 118.56 202.892 118.956 201.66 118.956C200.238 118.956 199.02 118.465 198.008 117.482C196.996 116.485 196.49 115.135 196.49 113.434C196.49 111.835 196.996 110.523 198.008 109.496C199.02 108.469 200.245 107.956 201.682 107.956C202.709 107.956 203.567 108.242 204.256 108.814V105.294C204.256 105.001 204.161 104.759 203.97 104.568C203.794 104.377 203.611 104.216 203.42 104.084C203.244 103.952 203.156 103.813 203.156 103.666V103.6C203.156 103.351 203.31 103.182 203.618 103.094L206.5 102.214C207.072 102.023 207.358 102.17 207.358 102.654V116.624ZM202.386 118.01C202.885 118.01 203.318 117.805 203.684 117.394C204.066 116.969 204.256 116.389 204.256 115.656V111.784C204.256 111.065 204.014 110.405 203.53 109.804C203.046 109.203 202.489 108.902 201.858 108.902C201.184 108.902 200.648 109.188 200.252 109.76C199.856 110.317 199.651 111.109 199.636 112.136C199.607 112.972 199.688 113.83 199.878 114.71C200.084 115.59 200.406 116.36 200.846 117.02C201.301 117.665 201.814 117.995 202.386 118.01ZM218.468 115.392C218.6 115.216 218.762 115.157 218.952 115.216C219.143 115.275 219.231 115.414 219.216 115.634C219.143 116.411 218.725 117.159 217.962 117.878C217.214 118.597 216.173 118.956 214.838 118.956C213.21 118.956 211.883 118.443 210.856 117.416C209.83 116.375 209.316 115.025 209.316 113.368C209.316 111.784 209.837 110.493 210.878 109.496C211.92 108.484 213.196 107.971 214.706 107.956C215.953 107.941 216.965 108.213 217.742 108.77C218.52 109.327 218.908 110.083 218.908 111.036C218.908 111.813 218.578 112.495 217.918 113.082C217.273 113.654 216.43 114.035 215.388 114.226C214.567 114.402 213.665 114.446 212.682 114.358C212.976 115.077 213.394 115.641 213.936 116.052C214.494 116.463 215.132 116.668 215.85 116.668C217.068 116.668 217.94 116.243 218.468 115.392ZM214.288 108.968C213.672 108.968 213.174 109.247 212.792 109.804C212.426 110.361 212.242 111.065 212.242 111.916C212.242 112.4 212.286 112.862 212.374 113.302C213.181 113.361 213.856 113.324 214.398 113.192C215.41 113.001 215.916 112.239 215.916 110.904C215.902 110.361 215.74 109.907 215.432 109.54C215.139 109.159 214.758 108.968 214.288 108.968ZM220.801 118.736C220.464 118.736 220.295 118.611 220.295 118.362V118.274C220.295 118.127 220.434 117.9 220.713 117.592C221.006 117.284 221.153 116.961 221.153 116.624V105.8C221.153 105.419 221.006 105.074 220.713 104.766C220.434 104.458 220.295 104.245 220.295 104.128V104.04C220.295 103.864 220.442 103.717 220.735 103.6L223.507 102.236C223.8 102.119 224.02 102.104 224.167 102.192C224.328 102.28 224.409 102.427 224.409 102.632V116.624C224.409 116.961 224.563 117.284 224.871 117.592C225.194 117.9 225.355 118.127 225.355 118.274V118.362C225.355 118.611 225.186 118.736 224.849 118.736H220.801Z" fill="white"/>
<circle r="4.5" transform="matrix(1 0 0 -1 126.51 309.5)" fill="#2766F1"/>
<circle r="4.5" transform="matrix(1 0 0 -1 126.51 335.5)" fill="#59D0A6"/>
<circle r="4.5" transform="matrix(1 0 0 -1 126.51 361.5)" fill="#FCC764"/>
<circle r="4.5" transform="matrix(1 0 0 -1 126.51 387.5)" fill="#FE5B5B"/>
<rect x="141.01" y="304" width="42" height="12" rx="6" fill="#ECECEC"/>
<rect x="141.01" y="330" width="42" height="12" rx="6" fill="#ECECEC"/>
<rect x="141.01" y="356" width="42" height="12" rx="6" fill="#ECECEC"/>
<rect x="141.01" y="382" width="42" height="12" rx="6" fill="#ECECEC"/>
<rect x="207.01" y="304" width="61" height="12" rx="6" fill="#ECECEC"/>
<rect x="207.01" y="330" width="61" height="12" rx="6" fill="#ECECEC"/>
<rect x="207.01" y="356" width="61" height="12" rx="6" fill="#ECECEC"/>
<rect x="207.01" y="382" width="61" height="12" rx="6" fill="#ECECEC"/>
<rect x="309.01" y="304" width="34" height="12" rx="6" fill="#ECECEC"/>
<rect x="309.01" y="330" width="34" height="12" rx="6" fill="#ECECEC"/>
<rect x="309.01" y="356" width="34" height="12" rx="6" fill="#ECECEC"/>
<rect x="309.01" y="382" width="34" height="12" rx="6" fill="#ECECEC"/>
<rect x="373.01" y="304" width="34" height="12" rx="6" fill="#ECECEC"/>
<rect x="373.01" y="330" width="34" height="12" rx="6" fill="#ECECEC"/>
<rect x="373.01" y="356" width="34" height="12" rx="6" fill="#ECECEC"/>
<rect x="373.01" y="382" width="34" height="12" rx="6" fill="#ECECEC"/>
<line x1="122.01" y1="290.5" x2="407.01" y2="290.5" stroke="#ECECEC"/>
<line x1="122.01" y1="406.5" x2="407.01" y2="406.5" stroke="#ECECEC"/>
</svg>
