<svg width="558" height="563" viewBox="0 0 558 563" fill="none" xmlns="http://www.w3.org/2000/svg">
<path fill-rule="evenodd" clip-rule="evenodd" d="M173.235 133.395C127.599 151.554 61.0932 137.861 37.5618 180.901C14.2429 223.552 55.2519 273.228 71.803 318.917C85.2036 355.91 108.581 386.298 134.233 416.163C162.291 448.827 192.861 481.989 234.715 492.309C278.89 503.2 315.969 498.3 356.937 478.531C399.091 458.188 434.453 426.183 457.259 385.373C481.013 342.866 498.299 293.346 486.863 246.035C475.704 199.871 434.842 168.989 397.759 139.231C363.872 112.037 327.136 84.1047 283.665 82.9748C242.186 81.8967 211.779 118.058 173.235 133.395Z" fill="#E8F1FA"/>
<rect x="54.5" y="207.5" width="225" height="269" rx="14.5" fill="white" stroke="#1D1D1B"/>
<path d="M265 477.5L69 477.5C60.9919 477.5 54.5 471.008 54.5 463L54.5 459.5L279.5 459.5L279.5 463C279.5 471.008 273.008 477.5 265 477.5Z" fill="#1D1D1B" stroke="#1D1D1B"/>
<path d="M131.944 372.844C132.003 373.182 132.164 373.512 132.428 373.834C132.692 374.157 132.824 374.399 132.824 374.56V374.626C132.824 374.876 132.663 375 132.34 375H128.358C128.035 375 127.874 374.876 127.874 374.626V374.56C127.874 374.428 128.013 374.201 128.292 373.878C128.585 373.541 128.703 373.196 128.644 372.844L127.082 363.912L123.386 374.384C123.254 374.78 123.012 374.978 122.66 374.978C122.279 374.978 122.015 374.788 121.868 374.406L117.776 363.604L116.368 372.844C116.309 373.196 116.427 373.541 116.72 373.878C117.028 374.201 117.182 374.428 117.182 374.56V374.626C117.182 374.876 117.013 375 116.676 375H114.212C113.875 375 113.706 374.876 113.706 374.626V374.56C113.706 374.399 113.838 374.157 114.102 373.834C114.381 373.497 114.542 373.167 114.586 372.844L116.412 361.514C116.456 361.162 116.331 360.832 116.038 360.524C115.759 360.202 115.62 359.967 115.62 359.82V359.754C115.62 359.505 115.767 359.38 116.06 359.38H120.218C120.526 359.38 120.68 359.505 120.68 359.754V359.82C120.68 359.894 120.548 360.121 120.284 360.502C120.035 360.869 119.969 361.221 120.086 361.558L123.122 370.402L126.202 361.404C126.29 361.096 126.187 360.781 125.894 360.458C125.615 360.121 125.476 359.908 125.476 359.82V359.754C125.476 359.505 125.623 359.38 125.916 359.38H130.184C130.492 359.38 130.646 359.498 130.646 359.732V359.82C130.646 359.967 130.558 360.121 130.382 360.282C130.221 360.444 130.074 360.634 129.942 360.854C129.81 361.06 129.773 361.309 129.832 361.602L131.944 372.844ZM139.439 375.22C137.694 375.22 136.249 374.685 135.105 373.614C133.976 372.529 133.411 371.209 133.411 369.654C133.411 368.085 133.969 366.787 135.083 365.76C136.198 364.734 137.54 364.22 139.109 364.22C140.796 364.22 142.204 364.756 143.333 365.826C144.463 366.882 145.027 368.195 145.027 369.764C145.027 371.334 144.492 372.639 143.421 373.68C142.365 374.707 141.038 375.22 139.439 375.22ZM139.835 374.252C140.437 374.252 140.899 373.974 141.221 373.416C141.559 372.859 141.727 372.074 141.727 371.062C141.727 370.226 141.603 369.368 141.353 368.488C141.119 367.594 140.759 366.824 140.275 366.178C139.791 365.518 139.256 365.188 138.669 365.188C137.32 365.188 136.645 366.259 136.645 368.4C136.645 369.192 136.763 370.028 136.997 370.908C137.247 371.788 137.621 372.566 138.119 373.24C138.633 373.915 139.205 374.252 139.835 374.252ZM152.861 364.22C154.24 364.22 155.435 364.697 156.447 365.65C157.474 366.604 157.987 367.902 157.987 369.544C157.987 371.202 157.481 372.566 156.469 373.636C155.472 374.692 154.269 375.22 152.861 375.22C151.673 375.22 150.712 374.832 149.979 374.054V374.538C149.979 374.861 149.81 375.022 149.473 375.022L146.635 375C146.327 375 146.173 374.876 146.173 374.626V374.56C146.173 374.414 146.312 374.186 146.591 373.878C146.884 373.556 147.031 373.218 147.031 372.866V362.086C147.031 361.72 146.862 361.39 146.525 361.096C146.188 360.788 146.019 360.561 146.019 360.414V360.348C146.019 360.143 146.188 359.967 146.525 359.82L149.363 358.5C149.612 358.368 149.825 358.346 150.001 358.434C150.192 358.508 150.287 358.676 150.287 358.94V365.1C150.918 364.514 151.776 364.22 152.861 364.22ZM152.531 374.274C153.25 374.274 153.8 373.981 154.181 373.394C154.577 372.808 154.775 371.964 154.775 370.864C154.775 369.911 154.672 369.009 154.467 368.158C154.276 367.308 153.968 366.596 153.543 366.024C153.118 365.452 152.626 365.166 152.069 365.166C151.556 365.166 151.13 365.372 150.793 365.782C150.456 366.193 150.287 366.728 150.287 367.388V371.37C150.287 372.118 150.514 372.793 150.969 373.394C151.438 373.981 151.959 374.274 152.531 374.274ZM163.309 362.35C162.927 362.702 162.414 362.878 161.769 362.878C161.123 362.878 160.595 362.702 160.185 362.35C159.789 361.984 159.591 361.514 159.591 360.942C159.591 360.385 159.789 359.93 160.185 359.578C160.595 359.212 161.123 359.028 161.769 359.028C162.414 359.028 162.927 359.212 163.309 359.578C163.705 359.93 163.903 360.385 163.903 360.942C163.903 361.514 163.705 361.984 163.309 362.35ZM159.767 375C159.444 375 159.283 374.876 159.283 374.626V374.538C159.283 374.392 159.422 374.164 159.701 373.856C159.979 373.548 160.119 373.218 160.119 372.866V367.894C160.119 367.528 159.979 367.183 159.701 366.86C159.422 366.538 159.283 366.318 159.283 366.2V366.134C159.283 365.988 159.437 365.834 159.745 365.672L162.495 364.308C162.773 364.191 162.993 364.184 163.155 364.286C163.316 364.374 163.397 364.528 163.397 364.748V372.866C163.397 373.218 163.551 373.548 163.859 373.856C164.167 374.164 164.321 374.392 164.321 374.538V374.626C164.321 374.876 164.152 375 163.815 375H159.767ZM165.973 375C165.635 375 165.467 374.876 165.467 374.626V374.538C165.467 374.392 165.606 374.164 165.885 373.856C166.178 373.548 166.325 373.226 166.325 372.888V362.064C166.325 361.683 166.178 361.338 165.885 361.03C165.606 360.722 165.467 360.51 165.467 360.392V360.304C165.467 360.128 165.613 359.982 165.907 359.864L168.679 358.5C168.972 358.383 169.192 358.368 169.339 358.456C169.5 358.544 169.581 358.691 169.581 358.896V372.888C169.581 373.226 169.735 373.548 170.043 373.856C170.365 374.164 170.527 374.392 170.527 374.538V374.626C170.527 374.876 170.358 375 170.021 375H165.973ZM180.785 371.656C180.917 371.48 181.078 371.422 181.269 371.48C181.459 371.539 181.547 371.678 181.533 371.898C181.459 372.676 181.041 373.424 180.279 374.142C179.531 374.861 178.489 375.22 177.155 375.22C175.527 375.22 174.199 374.707 173.173 373.68C172.146 372.639 171.633 371.29 171.633 369.632C171.633 368.048 172.153 366.758 173.195 365.76C174.236 364.748 175.512 364.235 177.023 364.22C178.269 364.206 179.281 364.477 180.059 365.034C180.836 365.592 181.225 366.347 181.225 367.3C181.225 368.078 180.895 368.76 180.235 369.346C179.589 369.918 178.746 370.3 177.705 370.49C176.883 370.666 175.981 370.71 174.999 370.622C175.292 371.341 175.71 371.906 176.253 372.316C176.81 372.727 177.448 372.932 178.167 372.932C179.384 372.932 180.257 372.507 180.785 371.656ZM176.605 365.232C175.989 365.232 175.49 365.511 175.109 366.068C174.742 366.626 174.559 367.33 174.559 368.18C174.559 368.664 174.603 369.126 174.691 369.566C175.497 369.625 176.172 369.588 176.715 369.456C177.727 369.266 178.233 368.503 178.233 367.168C178.218 366.626 178.057 366.171 177.749 365.804C177.455 365.423 177.074 365.232 176.605 365.232ZM183.3 375C182.962 375 182.794 374.876 182.794 374.626V374.538C182.794 374.406 182.933 374.186 183.212 373.878C183.505 373.556 183.652 373.226 183.652 372.888V361.492C183.652 361.17 183.505 360.847 183.212 360.524C182.933 360.202 182.794 359.967 182.794 359.82V359.732C182.794 359.498 182.962 359.38 183.3 359.38H188.316C190.413 359.38 192.1 359.806 193.376 360.656C194.666 361.492 195.312 362.783 195.312 364.528C195.312 366.186 194.74 367.498 193.596 368.466C192.452 369.434 190.904 369.918 188.954 369.918H186.996V372.888C186.996 373.226 187.15 373.556 187.458 373.878C187.78 374.186 187.942 374.406 187.942 374.538V374.626C187.942 374.876 187.773 375 187.436 375H183.3ZM187.942 368.62H188.954C189.863 368.62 190.574 368.312 191.088 367.696C191.601 367.066 191.858 366.274 191.858 365.32C191.858 363.898 191.498 362.776 190.78 361.954C190.076 361.118 189.254 360.7 188.316 360.7H187.722C187.238 360.7 186.996 361.016 186.996 361.646V367.63C186.996 368.29 187.311 368.62 187.942 368.62ZM207.573 365.364C207.573 365.452 207.419 365.665 207.111 366.002C206.803 366.34 206.649 366.714 206.649 367.124V372.888C206.649 373.226 206.788 373.556 207.067 373.878C207.36 374.186 207.507 374.414 207.507 374.56V374.626C207.507 374.876 207.36 375 207.067 375H204.361C204.214 375 204.09 374.956 203.987 374.868C203.899 374.78 203.855 374.663 203.855 374.516V373.988C203.166 374.81 202.198 375.22 200.951 375.22C199.528 375.22 198.311 374.729 197.299 373.746C196.287 372.749 195.781 371.4 195.781 369.698C195.781 368.1 196.287 366.787 197.299 365.76C198.311 364.734 199.536 364.22 200.973 364.22C202.146 364.22 203.107 364.594 203.855 365.342V364.902C203.855 364.697 203.943 364.543 204.119 364.44C204.295 364.323 204.522 364.294 204.801 364.352L207.111 364.748C207.419 364.807 207.573 364.99 207.573 365.298V365.364ZM201.677 374.274C202.176 374.274 202.608 374.069 202.975 373.658C203.356 373.233 203.547 372.654 203.547 371.92V368.048C203.547 367.271 203.305 366.596 202.821 366.024C202.352 365.452 201.794 365.166 201.149 365.166C200.474 365.166 199.939 365.452 199.543 366.024C199.147 366.582 198.942 367.374 198.927 368.4C198.898 369.236 198.978 370.094 199.169 370.974C199.374 371.854 199.697 372.624 200.137 373.284C200.592 373.93 201.105 374.26 201.677 374.274ZM218.721 364.286C219.293 364.228 219.579 364.367 219.579 364.704V373.768C219.579 375.572 219.044 376.958 217.973 377.926C216.903 378.909 215.553 379.4 213.925 379.4C212.62 379.4 211.505 379.1 210.581 378.498C209.672 377.897 209.217 377.156 209.217 376.276C209.217 375.924 209.335 375.624 209.569 375.374C209.819 375.14 210.141 375.022 210.537 375.022C210.977 375.022 211.337 375.198 211.615 375.55C211.894 375.917 212.099 376.313 212.231 376.738C212.363 377.164 212.598 377.56 212.935 377.926C213.287 378.293 213.735 378.476 214.277 378.476C215.671 378.476 216.367 377.061 216.367 374.23V373.966C215.707 374.656 214.761 375 213.529 375C212.415 375 211.469 374.597 210.691 373.79C209.929 372.984 209.547 371.935 209.547 370.644V366.926C209.547 366.56 209.401 366.222 209.107 365.914C208.829 365.592 208.689 365.372 208.689 365.254V365.188C208.689 364.924 208.843 364.77 209.151 364.726L211.923 364.308C212.525 364.235 212.825 364.367 212.825 364.704L212.759 370.974C212.759 372.822 213.324 373.746 214.453 373.746C214.996 373.746 215.451 373.519 215.817 373.064C216.184 372.61 216.367 372.03 216.367 371.326V366.926C216.367 366.56 216.221 366.222 215.927 365.914C215.634 365.592 215.487 365.372 215.487 365.254V365.188C215.487 364.924 215.634 364.77 215.927 364.726L218.721 364.286Z" fill="#1D1D1B"/>
<path d="M78.8473 407H80.1493V402.534H83.6913V401.302H80.1493V398.292H84.6293V397.06H78.8473V407ZM88.4535 407.14C89.5175 407.14 90.4555 406.594 90.9175 405.922V407H92.1215V400H90.9175V401.078C90.4555 400.406 89.5175 399.86 88.4535 399.86C86.4935 399.86 85.0235 401.498 85.0235 403.5C85.0235 405.502 86.4935 407.14 88.4535 407.14ZM88.6355 406.034C87.2215 406.034 86.2415 404.914 86.2415 403.5C86.2415 402.086 87.2215 400.966 88.6355 400.966C90.0355 400.966 91.0155 402.086 91.0155 403.5C91.0155 404.914 90.0355 406.034 88.6355 406.034ZM88.9155 399.398C89.8395 399.398 90.6235 398.642 90.6235 397.718C90.6235 396.794 89.8395 396.038 88.9155 396.038C87.9775 396.038 87.2215 396.794 87.2215 397.718C87.2215 398.642 87.9775 399.398 88.9155 399.398ZM88.9155 398.684C88.3695 398.684 87.9495 398.264 87.9495 397.718C87.9495 397.172 88.3695 396.738 88.9155 396.738C89.4615 396.738 89.9095 397.172 89.9095 397.718C89.9095 398.264 89.4615 398.684 88.9155 398.684ZM101.433 407.14C103.393 407.14 104.863 405.502 104.863 403.5C104.863 401.498 103.393 399.86 101.433 399.86C100.369 399.86 99.4309 400.406 98.9689 401.078V396.5H97.7649V407H98.9689V405.922C99.4309 406.594 100.369 407.14 101.433 407.14ZM101.251 406.034C99.8509 406.034 98.8709 404.914 98.8709 403.5C98.8709 402.086 99.8509 400.966 101.251 400.966C102.651 400.966 103.631 402.086 103.631 403.5C103.631 404.914 102.651 406.034 101.251 406.034ZM109.663 407.14C111.119 407.14 112.183 406.496 112.813 405.474L111.861 404.816C111.427 405.558 110.755 406.034 109.677 406.034C108.291 406.034 107.297 405.04 107.255 403.738H112.995C113.009 403.584 113.009 403.5 113.009 403.374C113.009 401.134 111.497 399.86 109.677 399.86C107.535 399.86 106.037 401.442 106.037 403.5C106.037 405.558 107.479 407.14 109.663 407.14ZM107.339 402.758C107.563 401.596 108.585 400.924 109.635 400.924C110.699 400.924 111.595 401.61 111.777 402.758H107.339ZM117.338 407.07C117.772 407.07 118.122 407 118.416 406.902V405.824C118.192 405.922 117.856 405.964 117.562 405.964C116.792 405.964 116.4 405.67 116.4 404.774V401.106H118.416V400H116.4V398.054H115.196V400H113.712V401.106H115.196V404.928C115.196 406.384 116.106 407.07 117.338 407.07ZM122.743 407.14C123.807 407.14 124.745 406.594 125.207 405.922V407H126.411V400H125.207V401.078C124.745 400.406 123.807 399.86 122.743 399.86C120.783 399.86 119.313 401.498 119.313 403.5C119.313 405.502 120.783 407.14 122.743 407.14ZM122.925 406.034C121.511 406.034 120.531 404.914 120.531 403.5C120.531 402.086 121.511 400.966 122.925 400.966C124.325 400.966 125.305 402.086 125.305 403.5C125.305 404.914 124.325 406.034 122.925 406.034ZM128.677 407H129.881V396.5H128.677V407ZM132.779 398.124C133.269 398.124 133.619 397.76 133.619 397.27C133.619 396.808 133.269 396.416 132.779 396.416C132.289 396.416 131.911 396.808 131.911 397.27C131.911 397.76 132.289 398.124 132.779 398.124ZM132.163 407H133.367V400H132.163V407ZM135.65 407H136.854V403.528C136.854 401.89 137.764 400.966 138.884 400.966C139.878 400.966 140.536 401.694 140.536 402.87V407H141.726V402.688C141.726 400.952 140.648 399.86 139.08 399.86C138.17 399.86 137.344 400.238 136.854 401.078V400H135.65V407ZM146.946 405.866C145.546 405.866 144.58 404.83 144.58 403.416C144.58 402.016 145.546 400.966 146.946 400.966C148.346 400.966 149.312 402.016 149.312 403.416C149.312 404.83 148.346 405.866 146.946 405.866ZM146.876 410.066C148.878 410.066 150.418 408.932 150.418 406.594V400H149.214V401.078C148.724 400.364 147.828 399.86 146.778 399.86C144.818 399.86 143.348 401.428 143.348 403.416C143.348 405.432 144.818 406.986 146.778 406.986C147.828 406.986 148.724 406.468 149.214 405.754V406.552C149.214 408.232 148.066 408.974 146.876 408.974C145.798 408.974 144.986 408.512 144.426 407.798L143.586 408.638C144.188 409.422 145.364 410.066 146.876 410.066ZM165.078 407H166.282V402.702C166.282 400.98 165.358 399.86 163.832 399.86C162.768 399.86 161.914 400.448 161.536 401.358C161.186 400.42 160.43 399.86 159.38 399.86C158.428 399.86 157.672 400.336 157.266 401.078V400H156.062V407H157.266V403.528C157.266 401.946 158.064 400.966 159.198 400.966C160.108 400.966 160.57 401.75 160.57 402.884V407H161.774V403.416C161.816 401.904 162.572 400.966 163.692 400.966C164.602 400.966 165.078 401.75 165.078 402.884V407ZM171.528 407.14C172.984 407.14 174.048 406.496 174.678 405.474L173.726 404.816C173.292 405.558 172.62 406.034 171.542 406.034C170.156 406.034 169.162 405.04 169.12 403.738H174.86C174.874 403.584 174.874 403.5 174.874 403.374C174.874 401.134 173.362 399.86 171.542 399.86C169.4 399.86 167.902 401.442 167.902 403.5C167.902 405.558 169.344 407.14 171.528 407.14ZM169.204 402.758C169.428 401.596 170.45 400.924 171.5 400.924C172.564 400.924 173.46 401.61 173.642 402.758H169.204ZM179.467 407.14C180.531 407.14 181.469 406.594 181.931 405.922V407H183.135V396.5H181.931V401.078C181.469 400.406 180.531 399.86 179.467 399.86C177.507 399.86 176.037 401.498 176.037 403.5C176.037 405.502 177.507 407.14 179.467 407.14ZM179.649 406.034C178.235 406.034 177.255 404.914 177.255 403.5C177.255 402.086 178.235 400.966 179.649 400.966C181.049 400.966 182.029 402.086 182.029 403.5C182.029 404.914 181.049 406.034 179.649 406.034ZM188.961 397.06V407H190.263V399.272L193.847 404.088L197.431 399.272V407H198.719V397.06H197.543L193.833 402.016L190.151 397.06H188.961ZM204.164 407.14C206.264 407.14 207.818 405.516 207.818 403.5C207.818 401.484 206.264 399.86 204.164 399.86C202.036 399.86 200.496 401.484 200.496 403.5C200.496 405.516 202.036 407.14 204.164 407.14ZM204.164 406.02C202.708 406.02 201.728 404.9 201.728 403.5C201.728 402.1 202.708 400.98 204.164 400.98C205.62 400.98 206.586 402.1 206.586 403.5C206.586 404.9 205.62 406.02 204.164 406.02ZM213.214 407.14C215.174 407.14 216.644 405.502 216.644 403.5C216.644 401.498 215.174 399.86 213.214 399.86C212.15 399.86 211.212 400.406 210.75 401.078V396.5H209.546V407H210.75V405.922C211.212 406.594 212.15 407.14 213.214 407.14ZM213.032 406.034C211.632 406.034 210.652 404.914 210.652 403.5C210.652 402.086 211.632 400.966 213.032 400.966C214.432 400.966 215.412 402.086 215.412 403.5C215.412 404.914 214.432 406.034 213.032 406.034ZM218.98 398.124C219.47 398.124 219.82 397.76 219.82 397.27C219.82 396.808 219.47 396.416 218.98 396.416C218.49 396.416 218.112 396.808 218.112 397.27C218.112 397.76 218.49 398.124 218.98 398.124ZM218.364 407H219.568V400H218.364V407ZM221.851 407H223.055V396.5H221.851V407ZM228.417 407.14C229.873 407.14 230.937 406.496 231.567 405.474L230.615 404.816C230.181 405.558 229.509 406.034 228.431 406.034C227.045 406.034 226.051 405.04 226.009 403.738H231.749C231.763 403.584 231.763 403.5 231.763 403.374C231.763 401.134 230.251 399.86 228.431 399.86C226.289 399.86 224.791 401.442 224.791 403.5C224.791 405.558 226.233 407.14 228.417 407.14ZM226.093 402.758C226.317 401.596 227.339 400.924 228.389 400.924C229.453 400.924 230.349 401.61 230.531 402.758H226.093ZM240.081 400.224C240.081 398.432 238.737 397.06 236.665 397.06H233.627V407H234.929V403.374H236.665C238.737 403.374 240.081 402.016 240.081 400.224ZM238.793 400.224C238.793 401.33 238.037 402.17 236.665 402.17H234.929V398.278H236.665C238.037 398.278 238.793 399.118 238.793 400.224ZM244.327 407.14C245.391 407.14 246.329 406.594 246.791 405.922V407H247.995V400H246.791V401.078C246.329 400.406 245.391 399.86 244.327 399.86C242.367 399.86 240.897 401.498 240.897 403.5C240.897 405.502 242.367 407.14 244.327 407.14ZM244.509 406.034C243.095 406.034 242.115 404.914 242.115 403.5C242.115 402.086 243.095 400.966 244.509 400.966C245.909 400.966 246.889 402.086 246.889 403.5C246.889 404.914 245.909 406.034 244.509 406.034ZM252.123 409.926L256.715 400H255.371L252.977 405.32L250.569 400H249.239L252.305 406.636L250.779 409.926H252.123ZM107.777 429.14C109.737 429.14 111.207 427.502 111.207 425.5C111.207 423.498 109.737 421.86 107.777 421.86C106.713 421.86 105.775 422.406 105.313 423.078V418.5H104.109V429H105.313V427.922C105.775 428.594 106.713 429.14 107.777 429.14ZM107.595 428.034C106.195 428.034 105.215 426.914 105.215 425.5C105.215 424.086 106.195 422.966 107.595 422.966C108.995 422.966 109.975 424.086 109.975 425.5C109.975 426.914 108.995 428.034 107.595 428.034ZM116.035 429.14C118.135 429.14 119.689 427.516 119.689 425.5C119.689 423.484 118.135 421.86 116.035 421.86C113.907 421.86 112.367 423.484 112.367 425.5C112.367 427.516 113.907 429.14 116.035 429.14ZM116.035 428.02C114.579 428.02 113.599 426.9 113.599 425.5C113.599 424.1 114.579 422.98 116.035 422.98C117.491 422.98 118.457 424.1 118.457 425.5C118.457 426.9 117.491 428.02 116.035 428.02ZM124.469 427.866C123.069 427.866 122.103 426.83 122.103 425.416C122.103 424.016 123.069 422.966 124.469 422.966C125.869 422.966 126.835 424.016 126.835 425.416C126.835 426.83 125.869 427.866 124.469 427.866ZM124.399 432.066C126.401 432.066 127.941 430.932 127.941 428.594V422H126.737V423.078C126.247 422.364 125.351 421.86 124.301 421.86C122.341 421.86 120.871 423.428 120.871 425.416C120.871 427.432 122.341 428.986 124.301 428.986C125.351 428.986 126.247 428.468 126.737 427.754V428.552C126.737 430.232 125.589 430.974 124.399 430.974C123.321 430.974 122.509 430.512 121.949 429.798L121.109 430.638C121.711 431.422 122.887 432.066 124.399 432.066ZM130.796 429H132V423.106H134.03V422H132V420.712C132 419.816 132.378 419.522 133.162 419.522C133.442 419.522 133.806 419.564 134.03 419.662V418.598C133.708 418.486 133.372 418.416 132.938 418.416C131.706 418.416 130.796 419.13 130.796 420.586V422H129.312V423.106H130.796V429ZM138.349 429.14C140.449 429.14 142.003 427.516 142.003 425.5C142.003 423.484 140.449 421.86 138.349 421.86C136.221 421.86 134.681 423.484 134.681 425.5C134.681 427.516 136.221 429.14 138.349 429.14ZM138.349 428.02C136.893 428.02 135.913 426.9 135.913 425.5C135.913 424.1 136.893 422.98 138.349 422.98C139.805 422.98 140.771 424.1 140.771 425.5C140.771 426.9 139.805 428.02 138.349 428.02ZM141.919 422.406L141.373 421.86L134.779 428.58L135.339 429.14L141.919 422.406ZM143.798 429H145.002V425.528C145.002 423.89 145.968 423.12 146.85 423.12C147.088 423.12 147.284 423.134 147.508 423.232V421.986C147.326 421.944 147.144 421.93 146.962 421.93C146.164 421.93 145.268 422.462 145.002 423.358V422H143.798V429ZM151.641 429.07C152.075 429.07 152.425 429 152.719 428.902V427.824C152.495 427.922 152.159 427.964 151.865 427.964C151.095 427.964 150.703 427.67 150.703 426.774V423.106H152.719V422H150.703V420.054H149.499V422H148.015V423.106H149.499V426.928C149.499 428.384 150.409 429.07 151.641 429.07ZM160.518 429.14C161.582 429.14 162.52 428.594 162.982 427.922V429H164.186V422H162.982V423.078C162.52 422.406 161.582 421.86 160.518 421.86C158.558 421.86 157.088 423.498 157.088 425.5C157.088 427.502 158.558 429.14 160.518 429.14ZM160.7 428.034C159.286 428.034 158.306 426.914 158.306 425.5C158.306 424.086 159.286 422.966 160.7 422.966C162.1 422.966 163.08 424.086 163.08 425.5C163.08 426.914 162.1 428.034 160.7 428.034ZM168.93 429.14C169.826 429.14 170.624 428.748 171.086 427.922V429H172.29V422H171.086V425.472C171.086 427.082 170.218 428.034 169.14 428.034C168.174 428.034 167.558 427.292 167.558 426.116V422H166.354V426.298C166.354 428.034 167.404 429.14 168.93 429.14ZM177.276 429.07C177.71 429.07 178.06 429 178.354 428.902V427.824C178.13 427.922 177.794 427.964 177.5 427.964C176.73 427.964 176.338 427.67 176.338 426.774V423.106H178.354V422H176.338V420.054H175.134V422H173.65V423.106H175.134V426.928C175.134 428.384 176.044 429.07 177.276 429.07ZM182.904 429.14C185.004 429.14 186.558 427.516 186.558 425.5C186.558 423.484 185.004 421.86 182.904 421.86C180.776 421.86 179.236 423.484 179.236 425.5C179.236 427.516 180.776 429.14 182.904 429.14ZM182.904 428.02C181.448 428.02 180.468 426.9 180.468 425.5C180.468 424.1 181.448 422.98 182.904 422.98C184.36 422.98 185.326 424.1 185.326 425.5C185.326 426.9 184.36 428.02 182.904 428.02ZM197.302 429H198.506V424.702C198.506 422.98 197.582 421.86 196.056 421.86C194.992 421.86 194.138 422.448 193.76 423.358C193.41 422.42 192.654 421.86 191.604 421.86C190.652 421.86 189.896 422.336 189.49 423.078V422H188.286V429H189.49V425.528C189.49 423.946 190.288 422.966 191.422 422.966C192.332 422.966 192.794 423.75 192.794 424.884V429H193.998V425.416C194.04 423.904 194.796 422.966 195.916 422.966C196.826 422.966 197.302 423.75 197.302 424.884V429ZM203.557 429.14C204.621 429.14 205.559 428.594 206.021 427.922V429H207.225V422H206.021V423.078C205.559 422.406 204.621 421.86 203.557 421.86C201.597 421.86 200.127 423.498 200.127 425.5C200.127 427.502 201.597 429.14 203.557 429.14ZM203.739 428.034C202.325 428.034 201.345 426.914 201.345 425.5C201.345 424.086 202.325 422.966 203.739 422.966C205.139 422.966 206.119 424.086 206.119 425.5C206.119 426.914 205.139 428.034 203.739 428.034ZM212.207 429.07C212.641 429.07 212.991 429 213.285 428.902V427.824C213.061 427.922 212.725 427.964 212.431 427.964C211.661 427.964 211.269 427.67 211.269 426.774V423.106H213.285V422H211.269V420.054H210.065V422H208.581V423.106H210.065V426.928C210.065 428.384 210.975 429.07 212.207 429.07ZM215.439 420.124C215.929 420.124 216.279 419.76 216.279 419.27C216.279 418.808 215.929 418.416 215.439 418.416C214.949 418.416 214.571 418.808 214.571 419.27C214.571 419.76 214.949 420.124 215.439 420.124ZM214.823 429H216.027V422H214.823V429ZM220.424 429.14C221.824 429.14 222.86 428.384 222.86 427.04C222.86 425.976 222.174 425.36 220.956 424.982L220.186 424.744C219.402 424.506 219.192 424.17 219.192 423.736C219.192 423.218 219.752 422.896 220.354 422.896C221.026 422.896 221.488 423.246 221.81 423.694L222.706 423.078C222.244 422.294 221.446 421.86 220.396 421.86C219.066 421.86 217.988 422.588 217.988 423.778C217.988 424.772 218.576 425.486 219.738 425.822L220.438 426.046C221.348 426.326 221.656 426.634 221.656 427.138C221.656 427.74 221.11 428.076 220.438 428.076C219.654 428.076 218.926 427.684 218.66 426.97L217.68 427.516C218.114 428.622 219.178 429.14 220.424 429.14ZM229.611 429H231.235L227.021 425.094L230.465 422H228.869L225.817 424.73V418.5H224.613V429H225.817V425.5L229.611 429Z" fill="#1D1D1B"/>
<g filter="url(#filter0_i_61_7537)">
<path d="M206 274.027C206 254.154 188.539 238.043 167 238.043C145.461 238.043 128 254.154 128 274.027C128 293.901 145.461 310.011 167 310.011C188.539 310.011 206 293.901 206 274.027Z" fill="#5977FF"/>
<path d="M164.057 278.445C163.677 278.446 163.305 278.345 162.987 278.152C162.668 277.96 162.419 277.685 162.269 277.363L155.619 262.764C155.428 262.336 155.429 261.856 155.621 261.429C155.812 261.002 156.181 260.662 156.645 260.485H156.66L163.626 257.865C164.096 257.687 164.624 257.686 165.095 257.863C165.566 258.04 165.944 258.379 166.146 258.81L172.796 273.408C172.893 273.618 172.942 273.844 172.944 274.072C172.945 274.3 172.898 274.525 172.804 274.737C172.711 274.948 172.572 275.139 172.398 275.301C172.225 275.463 172.017 275.591 171.789 275.68H171.757L164.793 278.278C164.562 278.376 164.312 278.433 164.057 278.445ZM164.356 258.645C164.239 258.644 164.123 258.665 164.016 258.705L157.052 261.325C156.836 261.409 156.664 261.568 156.573 261.767C156.525 261.864 156.502 261.969 156.502 262.075C156.502 262.181 156.525 262.286 156.573 262.383L163.182 276.981C163.275 277.178 163.448 277.334 163.664 277.415C163.88 277.496 164.122 277.496 164.338 277.415L171.313 274.795C171.528 274.712 171.701 274.555 171.792 274.356C171.839 274.259 171.864 274.154 171.864 274.047C171.864 273.94 171.839 273.835 171.792 273.738L165.222 259.161C165.152 259.014 165.037 258.888 164.89 258.8C164.744 258.712 164.572 258.666 164.397 258.667L164.356 258.645Z" fill="white"/>
<path opacity="0.9" d="M170.179 268.452C168.348 269.088 166.719 270.136 165.438 271.5L162.628 265.329C163.91 263.967 165.539 262.92 167.369 262.284C169.16 261.538 171.128 261.226 173.087 261.378L175.9 267.546C173.941 267.413 171.977 267.724 170.179 268.452Z" fill="white"/>
<path opacity="0.7" d="M170.179 268.452C168.348 269.088 166.719 270.136 165.438 271.5L162.628 265.329C163.91 263.967 165.539 262.92 167.369 262.284C169.16 261.538 171.128 261.226 173.087 261.378L175.9 267.546C173.941 267.413 171.977 267.724 170.179 268.452Z" fill="white"/>
<g opacity="0.25">
<path opacity="0.9" d="M170.179 268.452C168.348 269.088 166.719 270.136 165.438 271.5L162.628 265.329C163.91 263.967 165.539 262.92 167.369 262.284C169.16 261.538 171.128 261.226 173.087 261.378L175.9 267.546C173.941 267.413 171.977 267.724 170.179 268.452Z" fill="url(#paint0_linear_61_7537)"/>
<path opacity="0.7" d="M170.179 268.452C168.348 269.088 166.719 270.136 165.438 271.5L162.628 265.329C163.91 263.967 165.539 262.92 167.369 262.284C169.16 261.538 171.128 261.226 173.087 261.378L175.9 267.546C173.941 267.413 171.977 267.724 170.179 268.452Z" fill="url(#paint1_linear_61_7537)"/>
</g>
<path d="M171.106 270.333C169.146 270.283 167.201 270.677 165.445 271.484V265.255C167.201 264.448 169.145 264.049 171.106 264.096C173.07 264.032 175.018 264.431 176.767 265.255V271.492C175.012 270.684 173.068 270.286 171.106 270.333Z" fill="white"/>
<path d="M144.913 288.633L146.656 283.622C146.665 283.587 146.686 283.556 146.715 283.532C146.745 283.509 146.781 283.495 146.82 283.493H147.696C147.734 283.499 147.769 283.515 147.8 283.537C147.83 283.56 147.854 283.588 147.869 283.622L149.21 286.79C149.21 286.851 149.308 286.859 149.326 286.79L150.682 283.624C150.694 283.59 150.716 283.559 150.747 283.536C150.778 283.513 150.815 283.499 150.855 283.495H151.73C151.769 283.498 151.805 283.512 151.833 283.535C151.861 283.558 151.881 283.59 151.888 283.624L153.598 288.633C153.611 288.652 153.617 288.674 153.617 288.695C153.617 288.717 153.611 288.738 153.598 288.757C153.584 288.773 153.566 288.786 153.547 288.795C153.527 288.804 153.505 288.809 153.483 288.809H152.44C152.404 288.81 152.37 288.798 152.342 288.778C152.315 288.758 152.297 288.728 152.29 288.696L151.171 285.442C151.17 285.428 151.163 285.415 151.153 285.406C151.142 285.397 151.128 285.391 151.113 285.39C151.098 285.39 151.083 285.396 151.073 285.405C151.061 285.415 151.055 285.428 151.054 285.442L149.74 288.672C149.728 288.71 149.703 288.744 149.669 288.769C149.635 288.793 149.593 288.807 149.549 288.809H148.954C148.911 288.807 148.87 288.793 148.837 288.769C148.805 288.744 148.782 288.709 148.772 288.672L147.416 285.442C147.416 285.374 147.318 285.374 147.3 285.442L146.17 288.694C146.161 288.727 146.139 288.757 146.109 288.778C146.079 288.798 146.042 288.81 146.004 288.809H145.012C144.99 288.808 144.969 288.802 144.95 288.791C144.931 288.78 144.916 288.766 144.904 288.749C144.894 288.731 144.89 288.71 144.892 288.69C144.894 288.67 144.901 288.65 144.913 288.633ZM153.95 286.842C153.945 286.423 154.074 286.013 154.322 285.661C154.569 285.31 154.924 285.034 155.341 284.868C155.763 284.704 156.228 284.657 156.679 284.732C157.13 284.809 157.546 285.005 157.877 285.296C158.204 285.584 158.429 285.956 158.523 286.362C158.618 286.769 158.577 287.193 158.408 287.578C158.23 287.969 157.931 288.301 157.549 288.534C157.167 288.767 156.718 288.89 156.259 288.889C155.955 288.899 155.653 288.854 155.369 288.754C155.085 288.656 154.826 288.505 154.606 288.312C154.393 288.12 154.225 287.892 154.109 287.639C153.994 287.388 153.935 287.116 153.935 286.842H153.95ZM157.388 286.842C157.404 286.652 157.363 286.463 157.268 286.293C157.173 286.124 157.029 285.983 156.852 285.884C156.671 285.788 156.465 285.737 156.256 285.737C156.047 285.737 155.841 285.788 155.661 285.884C155.524 285.974 155.407 286.088 155.318 286.221C155.229 286.352 155.169 286.498 155.141 286.652C155.113 286.804 155.119 286.961 155.157 287.112C155.195 287.263 155.264 287.405 155.362 287.532C155.445 287.638 155.546 287.731 155.661 287.806C155.84 287.908 156.046 287.96 156.256 287.96C156.466 287.96 156.673 287.908 156.852 287.806C157.027 287.706 157.17 287.563 157.261 287.393C157.353 287.223 157.392 287.032 157.373 286.842H157.388ZM160.618 288.49C160.538 288.424 160.463 288.49 160.463 288.559V288.666C160.461 288.705 160.444 288.741 160.414 288.77C160.386 288.797 160.347 288.815 160.305 288.82H159.48C159.438 288.816 159.399 288.798 159.37 288.77C159.341 288.742 159.324 288.705 159.322 288.666V283.616C159.324 283.578 159.341 283.54 159.37 283.512C159.399 283.484 159.438 283.466 159.48 283.463H160.305C160.348 283.465 160.388 283.482 160.417 283.511C160.446 283.539 160.463 283.577 160.463 283.616V285.031C160.463 285.132 160.538 285.162 160.66 285.085C160.984 284.863 161.378 284.742 161.783 284.742C162.205 284.776 162.608 284.917 162.948 285.15C163.288 285.384 163.55 285.699 163.706 286.062C163.862 286.424 163.905 286.82 163.832 287.204C163.758 287.589 163.57 287.947 163.288 288.238C163.09 288.431 162.852 288.586 162.588 288.693C162.323 288.8 162.039 288.857 161.75 288.861C161.332 288.864 160.926 288.732 160.603 288.488L160.618 288.49ZM162.734 286.842C162.744 286.656 162.698 286.47 162.602 286.304C162.506 286.14 162.363 286.002 162.188 285.906C162.011 285.809 161.808 285.758 161.601 285.758C161.395 285.758 161.192 285.809 161.014 285.906C160.869 285.982 160.743 286.084 160.644 286.208C160.545 286.333 160.476 286.475 160.443 286.626C160.408 286.776 160.409 286.931 160.446 287.082C160.483 287.232 160.554 287.373 160.654 287.495C160.756 287.618 160.884 287.719 161.03 287.793C161.178 287.865 161.339 287.908 161.506 287.919C161.673 287.93 161.84 287.907 161.996 287.853C162.152 287.799 162.294 287.715 162.411 287.606C162.523 287.507 162.61 287.388 162.67 287.257C162.729 287.126 162.759 286.985 162.757 286.842H162.734ZM164.617 283.858C164.615 283.737 164.652 283.619 164.724 283.517C164.794 283.416 164.896 283.337 165.016 283.289C165.137 283.242 165.27 283.228 165.399 283.25C165.527 283.272 165.646 283.328 165.739 283.413C165.833 283.497 165.898 283.604 165.925 283.723C165.952 283.841 165.941 283.963 165.893 284.076C165.844 284.187 165.76 284.283 165.653 284.352C165.545 284.42 165.418 284.458 165.287 284.459C165.113 284.46 164.946 284.397 164.821 284.284C164.698 284.172 164.627 284.018 164.626 283.858H164.617ZM164.677 288.663V285.031C164.676 285.011 164.68 284.992 164.688 284.975C164.696 284.957 164.708 284.942 164.723 284.928C164.738 284.915 164.755 284.904 164.774 284.898C164.793 284.89 164.814 284.887 164.834 284.887H165.66C165.7 284.89 165.738 284.905 165.767 284.931C165.797 284.957 165.814 284.993 165.818 285.031V288.663C165.815 288.702 165.797 288.739 165.769 288.766C165.74 288.795 165.701 288.813 165.66 288.817H164.834C164.79 288.816 164.747 288.8 164.715 288.771C164.683 288.743 164.663 288.705 164.662 288.663H164.677ZM166.807 287.461V283.654C166.806 283.617 166.821 283.579 166.849 283.551C166.877 283.523 166.915 283.505 166.955 283.501H167.784C167.826 283.505 167.866 283.523 167.896 283.551C167.925 283.578 167.944 283.615 167.948 283.654V287.499C167.948 287.749 168.064 287.916 168.368 287.916C168.41 287.916 168.45 287.932 168.479 287.959C168.509 287.987 168.526 288.023 168.526 288.062V288.713C168.523 288.751 168.507 288.787 168.478 288.814C168.448 288.841 168.409 288.856 168.368 288.859C167.26 288.847 166.792 288.504 166.792 287.461H166.807ZM168.866 286.868C168.866 286.509 168.968 286.158 169.164 285.848C169.36 285.539 169.642 285.283 169.979 285.107C170.321 284.928 170.708 284.833 171.1 284.833C171.493 284.833 171.879 284.928 172.22 285.107C172.559 285.282 172.841 285.538 173.037 285.848C173.233 286.157 173.336 286.509 173.335 286.868C173.335 287.005 173.293 287.125 173.138 287.125H170.18C170.105 287.125 170.081 287.164 170.09 287.225C170.129 287.449 170.257 287.653 170.452 287.794C170.647 287.936 170.892 288.004 171.139 287.985C171.295 287.993 171.451 287.967 171.595 287.908C171.738 287.85 171.865 287.762 171.964 287.65C171.999 287.609 172.045 287.577 172.097 287.555C172.149 287.534 172.206 287.525 172.262 287.529H173.036C173.177 287.529 173.237 287.614 173.186 287.736C172.958 288.155 172.583 288.493 172.12 288.692C171.659 288.891 171.137 288.942 170.641 288.833C170.147 288.734 169.704 288.482 169.386 288.12C169.068 287.758 168.892 287.306 168.89 286.84L168.866 286.868ZM171.991 286.516C172.048 286.516 172.072 286.516 172.066 286.431C172.027 286.216 171.905 286.02 171.723 285.88C171.541 285.74 171.31 285.666 171.073 285.67C170.845 285.667 170.623 285.736 170.443 285.864C170.263 285.993 170.135 286.174 170.081 286.379C170.081 286.431 170.081 286.485 170.146 286.485L171.991 286.516ZM174.032 288.677V283.616C174.034 283.578 174.049 283.541 174.078 283.512C174.107 283.484 174.146 283.466 174.187 283.463H176.898C177.142 283.437 177.389 283.456 177.624 283.519C177.859 283.582 178.079 283.687 178.27 283.828C178.462 283.969 178.622 284.143 178.74 284.341C178.858 284.539 178.933 284.756 178.96 284.981C178.967 285.062 178.967 285.142 178.96 285.222C178.958 285.459 178.905 285.693 178.804 285.912C178.704 286.13 178.557 286.327 178.374 286.494C178.191 286.66 177.974 286.79 177.736 286.879C177.496 286.968 177.241 287.013 176.985 287.01H176.827H175.391C175.348 287.01 175.307 287.024 175.274 287.049C175.258 287.062 175.246 287.078 175.239 287.096C175.232 287.114 175.229 287.134 175.233 287.153V288.639C175.231 288.677 175.214 288.714 175.186 288.742C175.158 288.77 175.119 288.788 175.078 288.793H174.184C174.146 288.791 174.109 288.778 174.079 288.756C174.05 288.734 174.029 288.703 174.02 288.669L174.032 288.677ZM176.839 286.15C176.962 286.147 177.084 286.122 177.196 286.075C177.309 286.027 177.41 285.96 177.494 285.876C177.581 285.797 177.649 285.701 177.694 285.596C177.739 285.491 177.76 285.379 177.757 285.266C177.759 285.155 177.739 285.045 177.695 284.942C177.651 284.838 177.585 284.744 177.5 284.665C177.415 284.584 177.312 284.522 177.197 284.482C177.083 284.443 176.961 284.428 176.839 284.437H175.393C175.287 284.437 175.244 284.484 175.244 284.574V286C175.244 286.09 175.287 286.137 175.393 286.137L176.839 286.15ZM179.377 286.856C179.362 286.326 179.576 285.811 179.972 285.427C180.368 285.041 180.914 284.816 181.49 284.802H181.507C181.93 284.805 182.337 284.945 182.658 285.198C182.732 285.258 182.812 285.25 182.812 285.159V285.044C182.812 285.025 182.817 285.006 182.825 284.989C182.833 284.971 182.844 284.956 182.859 284.942C182.873 284.929 182.891 284.918 182.91 284.912C182.93 284.904 182.95 284.901 182.97 284.901H183.795C183.837 284.903 183.876 284.918 183.905 284.944C183.934 284.971 183.952 285.006 183.953 285.044V287.614C183.953 287.812 184.028 287.889 184.178 287.911C184.215 287.913 184.251 287.928 184.277 287.952C184.305 287.976 184.322 288.008 184.326 288.043V288.713C184.326 288.749 184.311 288.784 184.283 288.81C184.254 288.836 184.216 288.85 184.178 288.85C183.968 288.876 183.756 288.849 183.562 288.77C183.37 288.691 183.205 288.564 183.087 288.402C183.036 288.326 182.979 288.309 182.887 288.402C182.708 288.573 182.494 288.706 182.256 288.797C182.019 288.887 181.764 288.931 181.507 288.927C181.218 288.921 180.932 288.861 180.667 288.752C180.402 288.643 180.164 288.486 179.966 288.291C179.767 288.096 179.613 287.867 179.512 287.616C179.411 287.366 179.365 287.099 179.377 286.832V286.856ZM182.812 286.856C182.828 286.666 182.786 286.476 182.691 286.308C182.597 286.138 182.453 285.996 182.276 285.898C182.096 285.799 181.89 285.746 181.68 285.746C181.47 285.746 181.265 285.799 181.085 285.898C180.892 285.985 180.729 286.118 180.612 286.282C180.495 286.448 180.428 286.639 180.418 286.836C180.409 287.032 180.457 287.228 180.559 287.402C180.659 287.576 180.808 287.722 180.992 287.824C181.175 287.926 181.384 287.981 181.598 287.982C181.812 287.984 182.023 287.934 182.207 287.834C182.392 287.736 182.545 287.592 182.649 287.42C182.754 287.248 182.806 287.053 182.801 286.856H182.812ZM184.722 290.185V289.537C184.726 289.499 184.746 289.465 184.776 289.44C184.806 289.414 184.846 289.4 184.886 289.399C185.155 289.42 185.423 289.356 185.647 289.217C185.871 289.079 186.038 288.876 186.12 288.639C186.159 288.543 186.159 288.438 186.12 288.342L184.54 285.085C184.527 285.063 184.52 285.038 184.52 285.013C184.52 284.987 184.528 284.962 184.542 284.94C184.556 284.918 184.576 284.9 184.601 284.888C184.626 284.876 184.653 284.87 184.681 284.871H185.506C185.59 284.871 185.64 284.931 185.672 285.017L186.665 287.095C186.739 287.263 186.847 287.247 186.927 287.095L187.872 285.009C187.872 284.99 187.878 284.972 187.887 284.955C187.896 284.939 187.909 284.924 187.924 284.912C187.939 284.899 187.957 284.89 187.976 284.885C187.995 284.879 188.015 284.877 188.036 284.879H188.861C188.886 284.88 188.912 284.886 188.935 284.895C188.959 284.906 188.979 284.921 188.995 284.939C189.006 284.96 189.011 284.982 189.011 285.005C189.011 285.027 189.006 285.049 188.995 285.069L187.341 288.573C186.746 289.852 186.126 290.325 184.862 290.325C184.814 290.325 184.767 290.308 184.732 290.278C184.719 290.243 184.719 290.206 184.732 290.171L184.722 290.185Z" fill="white"/>
</g>
<rect x="253.5" y="105.5" width="225" height="269" rx="14.5" fill="white" stroke="#1D1D1B"/>
<path d="M464 375.5L268 375.5C259.992 375.5 253.5 369.008 253.5 361L253.5 357.5L478.5 357.5L478.5 361C478.5 369.008 472.008 375.5 464 375.5Z" fill="#1D1D1B" stroke="#1D1D1B"/>
<path d="M349.634 268.93C350.03 268.93 350.177 269.121 350.074 269.502L349.414 272.494C349.341 272.831 349.165 273 348.886 273H337.512C337.365 273 337.241 272.956 337.138 272.868C337.035 272.765 336.984 272.648 336.984 272.516V272.296C336.984 272.193 337.123 271.922 337.402 271.482L345.542 258.7H340.482C340.233 258.7 339.976 258.832 339.712 259.096C339.463 259.36 339.25 259.653 339.074 259.976C338.913 260.299 338.7 260.592 338.436 260.856C338.187 261.12 337.937 261.252 337.688 261.252H337.578C337.138 261.252 336.969 261.017 337.072 260.548L337.688 257.996C337.776 257.585 338.003 257.38 338.37 257.38H349.084C349.216 257.38 349.326 257.431 349.414 257.534C349.517 257.622 349.568 257.732 349.568 257.864V258.128C349.568 258.231 349.407 258.546 349.084 259.074L341.076 271.68H346.356C346.708 271.68 347.045 271.541 347.368 271.262C347.691 270.969 347.955 270.653 348.16 270.316C348.365 269.964 348.593 269.649 348.842 269.37C349.106 269.077 349.348 268.93 349.568 268.93H349.634ZM359.976 269.656C360.108 269.48 360.269 269.421 360.46 269.48C360.651 269.539 360.739 269.678 360.724 269.898C360.651 270.675 360.233 271.423 359.47 272.142C358.722 272.861 357.681 273.22 356.346 273.22C354.718 273.22 353.391 272.707 352.364 271.68C351.337 270.639 350.824 269.289 350.824 267.632C350.824 266.048 351.345 264.757 352.386 263.76C353.427 262.748 354.703 262.235 356.214 262.22C357.461 262.205 358.473 262.477 359.25 263.034C360.027 263.591 360.416 264.347 360.416 265.3C360.416 266.077 360.086 266.759 359.426 267.346C358.781 267.918 357.937 268.299 356.896 268.49C356.075 268.666 355.173 268.71 354.19 268.622C354.483 269.341 354.901 269.905 355.444 270.316C356.001 270.727 356.639 270.932 357.358 270.932C358.575 270.932 359.448 270.507 359.976 269.656ZM355.796 263.232C355.18 263.232 354.681 263.511 354.3 264.068C353.933 264.625 353.75 265.329 353.75 266.18C353.75 266.664 353.794 267.126 353.882 267.566C354.689 267.625 355.363 267.588 355.906 267.456C356.918 267.265 357.424 266.503 357.424 265.168C357.409 264.625 357.248 264.171 356.94 263.804C356.647 263.423 356.265 263.232 355.796 263.232ZM366.203 273.22C365.176 273.22 364.362 272.897 363.761 272.252C363.174 271.592 362.881 270.646 362.881 269.414V263.716H361.847C361.554 263.716 361.407 263.569 361.407 263.276V262.902C361.407 262.594 361.554 262.44 361.847 262.44H362.397C362.998 262.44 363.504 262.242 363.915 261.846C364.34 261.45 364.612 260.922 364.729 260.262C364.802 259.91 364.971 259.734 365.235 259.734H365.675C365.998 259.734 366.159 259.91 366.159 260.262L366.181 262.44H368.711C368.828 262.44 368.931 262.484 369.019 262.572C369.107 262.66 369.151 262.77 369.151 262.902V263.276C369.151 263.408 369.107 263.518 369.019 263.606C368.931 263.679 368.828 263.716 368.711 263.716H366.181V269.458C366.181 269.883 366.284 270.228 366.489 270.492C366.709 270.741 366.98 270.866 367.303 270.866C368.066 270.866 368.564 270.536 368.799 269.876C368.931 269.685 369.092 269.612 369.283 269.656C369.488 269.685 369.591 269.803 369.591 270.008C369.591 270.859 369.283 271.607 368.667 272.252C368.066 272.897 367.244 273.22 366.203 273.22ZM374.732 273.22C373.706 273.22 372.892 272.897 372.29 272.252C371.704 271.592 371.41 270.646 371.41 269.414V263.716H370.376C370.083 263.716 369.936 263.569 369.936 263.276V262.902C369.936 262.594 370.083 262.44 370.376 262.44H370.926C371.528 262.44 372.034 262.242 372.444 261.846C372.87 261.45 373.141 260.922 373.258 260.262C373.332 259.91 373.5 259.734 373.764 259.734H374.204C374.527 259.734 374.688 259.91 374.688 260.262L374.71 262.44H377.24C377.358 262.44 377.46 262.484 377.548 262.572C377.636 262.66 377.68 262.77 377.68 262.902V263.276C377.68 263.408 377.636 263.518 377.548 263.606C377.46 263.679 377.358 263.716 377.24 263.716H374.71V269.458C374.71 269.883 374.813 270.228 375.018 270.492C375.238 270.741 375.51 270.866 375.832 270.866C376.595 270.866 377.094 270.536 377.328 269.876C377.46 269.685 377.622 269.612 377.812 269.656C378.018 269.685 378.12 269.803 378.12 270.008C378.12 270.859 377.812 271.607 377.196 272.252C376.595 272.897 375.774 273.22 374.732 273.22ZM379.346 273C379.008 273 378.84 272.875 378.84 272.626V272.538C378.84 272.391 378.979 272.164 379.258 271.856C379.551 271.548 379.698 271.225 379.698 270.888V260.064C379.698 259.683 379.551 259.338 379.258 259.03C378.979 258.722 378.84 258.509 378.84 258.392V258.304C378.84 258.128 378.986 257.981 379.28 257.864L382.052 256.5C382.345 256.383 382.565 256.368 382.712 256.456C382.873 256.544 382.954 256.691 382.954 256.896V270.888C382.954 271.225 383.108 271.548 383.416 271.856C383.738 272.164 383.9 272.391 383.9 272.538V272.626C383.9 272.875 383.731 273 383.394 273H379.346ZM394.158 269.656C394.29 269.48 394.451 269.421 394.642 269.48C394.832 269.539 394.92 269.678 394.906 269.898C394.832 270.675 394.414 271.423 393.652 272.142C392.904 272.861 391.862 273.22 390.528 273.22C388.9 273.22 387.572 272.707 386.546 271.68C385.519 270.639 385.006 269.289 385.006 267.632C385.006 266.048 385.526 264.757 386.568 263.76C387.609 262.748 388.885 262.235 390.396 262.22C391.642 262.205 392.654 262.477 393.432 263.034C394.209 263.591 394.598 264.347 394.598 265.3C394.598 266.077 394.268 266.759 393.608 267.346C392.962 267.918 392.119 268.299 391.078 268.49C390.256 268.666 389.354 268.71 388.372 268.622C388.665 269.341 389.083 269.905 389.626 270.316C390.183 270.727 390.821 270.932 391.54 270.932C392.757 270.932 393.63 270.507 394.158 269.656ZM389.978 263.232C389.362 263.232 388.863 263.511 388.482 264.068C388.115 264.625 387.932 265.329 387.932 266.18C387.932 266.664 387.976 267.126 388.064 267.566C388.87 267.625 389.545 267.588 390.088 267.456C391.1 267.265 391.606 266.503 391.606 265.168C391.591 264.625 391.43 264.171 391.122 263.804C390.828 263.423 390.447 263.232 389.978 263.232Z" fill="#1D1D1B"/>
<path d="M277 305H278.302V300.534H281.844V299.302H278.302V296.292H282.782V295.06H277V305ZM286.606 305.14C287.67 305.14 288.608 304.594 289.07 303.922V305H290.274V298H289.07V299.078C288.608 298.406 287.67 297.86 286.606 297.86C284.646 297.86 283.176 299.498 283.176 301.5C283.176 303.502 284.646 305.14 286.606 305.14ZM286.788 304.034C285.374 304.034 284.394 302.914 284.394 301.5C284.394 300.086 285.374 298.966 286.788 298.966C288.188 298.966 289.168 300.086 289.168 301.5C289.168 302.914 288.188 304.034 286.788 304.034ZM287.068 297.398C287.992 297.398 288.776 296.642 288.776 295.718C288.776 294.794 287.992 294.038 287.068 294.038C286.13 294.038 285.374 294.794 285.374 295.718C285.374 296.642 286.13 297.398 287.068 297.398ZM287.068 296.684C286.522 296.684 286.102 296.264 286.102 295.718C286.102 295.172 286.522 294.738 287.068 294.738C287.614 294.738 288.062 295.172 288.062 295.718C288.062 296.264 287.614 296.684 287.068 296.684ZM298.801 305.14C299.865 305.14 300.803 304.594 301.265 303.922V305H302.469V294.5H301.265V299.078C300.803 298.406 299.865 297.86 298.801 297.86C296.841 297.86 295.371 299.498 295.371 301.5C295.371 303.502 296.841 305.14 298.801 305.14ZM298.983 304.034C297.569 304.034 296.589 302.914 296.589 301.5C296.589 300.086 297.569 298.966 298.983 298.966C300.383 298.966 301.363 300.086 301.363 301.5C301.363 302.914 300.383 304.034 298.983 304.034ZM305.352 296.124C305.842 296.124 306.192 295.76 306.192 295.27C306.192 294.808 305.842 294.416 305.352 294.416C304.862 294.416 304.484 294.808 304.484 295.27C304.484 295.76 304.862 296.124 305.352 296.124ZM304.736 305H305.94V298H304.736V305ZM310.938 305.07C311.372 305.07 311.722 305 312.016 304.902V303.824C311.792 303.922 311.456 303.964 311.162 303.964C310.392 303.964 310 303.67 310 302.774V299.106H312.016V298H310V296.054H308.796V298H307.312V299.106H308.796V302.928C308.796 304.384 309.706 305.07 310.938 305.07ZM319.045 305.14C320.445 305.14 321.481 304.384 321.481 303.04C321.481 301.976 320.795 301.36 319.577 300.982L318.807 300.744C318.023 300.506 317.813 300.17 317.813 299.736C317.813 299.218 318.373 298.896 318.975 298.896C319.647 298.896 320.109 299.246 320.431 299.694L321.327 299.078C320.865 298.294 320.067 297.86 319.017 297.86C317.687 297.86 316.609 298.588 316.609 299.778C316.609 300.772 317.197 301.486 318.359 301.822L319.059 302.046C319.969 302.326 320.277 302.634 320.277 303.138C320.277 303.74 319.731 304.076 319.059 304.076C318.275 304.076 317.547 303.684 317.281 302.97L316.301 303.516C316.735 304.622 317.799 305.14 319.045 305.14ZM326.118 305.14C327.182 305.14 328.12 304.594 328.582 303.922V305H329.786V298H328.582V299.078C328.12 298.406 327.182 297.86 326.118 297.86C324.158 297.86 322.688 299.498 322.688 301.5C322.688 303.502 324.158 305.14 326.118 305.14ZM326.3 304.034C324.886 304.034 323.906 302.914 323.906 301.5C323.906 300.086 324.886 298.966 326.3 298.966C327.7 298.966 328.68 300.086 328.68 301.5C328.68 302.914 327.7 304.034 326.3 304.034ZM332.052 305H333.256V294.5H332.052V305ZM338.59 303.866C337.19 303.866 336.224 302.83 336.224 301.416C336.224 300.016 337.19 298.966 338.59 298.966C339.99 298.966 340.956 300.016 340.956 301.416C340.956 302.83 339.99 303.866 338.59 303.866ZM338.52 308.066C340.522 308.066 342.062 306.932 342.062 304.594V298H340.858V299.078C340.368 298.364 339.472 297.86 338.422 297.86C336.462 297.86 334.992 299.428 334.992 301.416C334.992 303.432 336.462 304.986 338.422 304.986C339.472 304.986 340.368 304.468 340.858 303.754V304.552C340.858 306.232 339.71 306.974 338.52 306.974C337.442 306.974 336.63 306.512 336.07 305.798L335.23 306.638C335.832 307.422 337.008 308.066 338.52 308.066ZM350.59 305.14C351.654 305.14 352.592 304.594 353.054 303.922V305H354.258V298H353.054V299.078C352.592 298.406 351.654 297.86 350.59 297.86C348.63 297.86 347.16 299.498 347.16 301.5C347.16 303.502 348.63 305.14 350.59 305.14ZM350.772 304.034C349.358 304.034 348.378 302.914 348.378 301.5C348.378 300.086 349.358 298.966 350.772 298.966C352.172 298.966 353.152 300.086 353.152 301.5C353.152 302.914 352.172 304.034 350.772 304.034ZM359.003 305.14C359.899 305.14 360.697 304.748 361.159 303.922V305H362.363V298H361.159V301.472C361.159 303.082 360.291 304.034 359.213 304.034C358.247 304.034 357.631 303.292 357.631 302.116V298H356.427V302.298C356.427 304.034 357.477 305.14 359.003 305.14ZM367.348 305.07C367.782 305.07 368.132 305 368.426 304.902V303.824C368.202 303.922 367.866 303.964 367.572 303.964C366.802 303.964 366.41 303.67 366.41 302.774V299.106H368.426V298H366.41V296.054H365.206V298H363.722V299.106H365.206V302.928C365.206 304.384 366.116 305.07 367.348 305.07ZM372.976 305.14C375.076 305.14 376.63 303.516 376.63 301.5C376.63 299.484 375.076 297.86 372.976 297.86C370.848 297.86 369.308 299.484 369.308 301.5C369.308 303.516 370.848 305.14 372.976 305.14ZM372.976 304.02C371.52 304.02 370.54 302.9 370.54 301.5C370.54 300.1 371.52 298.98 372.976 298.98C374.432 298.98 375.398 300.1 375.398 301.5C375.398 302.9 374.432 304.02 372.976 304.02ZM387.375 305H388.579V300.702C388.579 298.98 387.655 297.86 386.129 297.86C385.065 297.86 384.211 298.448 383.833 299.358C383.483 298.42 382.727 297.86 381.677 297.86C380.725 297.86 379.969 298.336 379.563 299.078V298H378.359V305H379.563V301.528C379.563 299.946 380.361 298.966 381.495 298.966C382.405 298.966 382.867 299.75 382.867 300.884V305H384.071V301.416C384.113 299.904 384.869 298.966 385.989 298.966C386.899 298.966 387.375 299.75 387.375 300.884V305ZM393.629 305.14C394.693 305.14 395.631 304.594 396.093 303.922V305H397.297V298H396.093V299.078C395.631 298.406 394.693 297.86 393.629 297.86C391.669 297.86 390.199 299.498 390.199 301.5C390.199 303.502 391.669 305.14 393.629 305.14ZM393.811 304.034C392.397 304.034 391.417 302.914 391.417 301.5C391.417 300.086 392.397 298.966 393.811 298.966C395.211 298.966 396.191 300.086 396.191 301.5C396.191 302.914 395.211 304.034 393.811 304.034ZM402.28 305.07C402.714 305.07 403.064 305 403.358 304.902V303.824C403.134 303.922 402.798 303.964 402.504 303.964C401.734 303.964 401.342 303.67 401.342 302.774V299.106H403.358V298H401.342V296.054H400.138V298H398.654V299.106H400.138V302.928C400.138 304.384 401.048 305.07 402.28 305.07ZM405.512 296.124C406.002 296.124 406.352 295.76 406.352 295.27C406.352 294.808 406.002 294.416 405.512 294.416C405.022 294.416 404.644 294.808 404.644 295.27C404.644 295.76 405.022 296.124 405.512 296.124ZM404.896 305H406.1V298H404.896V305ZM410.496 305.14C411.896 305.14 412.932 304.384 412.932 303.04C412.932 301.976 412.246 301.36 411.028 300.982L410.258 300.744C409.474 300.506 409.264 300.17 409.264 299.736C409.264 299.218 409.824 298.896 410.426 298.896C411.098 298.896 411.56 299.246 411.882 299.694L412.778 299.078C412.316 298.294 411.518 297.86 410.468 297.86C409.138 297.86 408.06 298.588 408.06 299.778C408.06 300.772 408.648 301.486 409.81 301.822L410.51 302.046C411.42 302.326 411.728 302.634 411.728 303.138C411.728 303.74 411.182 304.076 410.51 304.076C409.726 304.076 408.998 303.684 408.732 302.97L407.752 303.516C408.186 304.622 409.25 305.14 410.496 305.14ZM419.683 305H421.307L417.093 301.094L420.537 298H418.941L415.889 300.73V294.5H414.685V305H415.889V301.5L419.683 305ZM428.443 305.14C430.543 305.14 432.097 303.516 432.097 301.5C432.097 299.484 430.543 297.86 428.443 297.86C426.315 297.86 424.775 299.484 424.775 301.5C424.775 303.516 426.315 305.14 428.443 305.14ZM428.443 304.02C426.987 304.02 426.007 302.9 426.007 301.5C426.007 300.1 426.987 298.98 428.443 298.98C429.899 298.98 430.865 300.1 430.865 301.5C430.865 302.9 429.899 304.02 428.443 304.02ZM435.859 305H436.867L440.101 298H438.757L436.363 303.306L433.969 298H432.625L435.859 305ZM444.247 305.14C445.703 305.14 446.767 304.496 447.397 303.474L446.445 302.816C446.011 303.558 445.339 304.034 444.261 304.034C442.875 304.034 441.881 303.04 441.839 301.738H447.579C447.593 301.584 447.593 301.5 447.593 301.374C447.593 299.134 446.081 297.86 444.261 297.86C442.119 297.86 440.621 299.442 440.621 301.5C440.621 303.558 442.063 305.14 444.247 305.14ZM441.923 300.758C442.147 299.596 443.169 298.924 444.219 298.924C445.283 298.924 446.179 299.61 446.361 300.758H441.923ZM449.302 305H450.506V301.528C450.506 299.89 451.472 299.12 452.354 299.12C452.592 299.12 452.788 299.134 453.012 299.232V297.986C452.83 297.944 452.648 297.93 452.466 297.93C451.668 297.93 450.772 298.462 450.506 299.358V298H449.302V305ZM289.991 318.124C290.481 318.124 290.831 317.76 290.831 317.27C290.831 316.808 290.481 316.416 289.991 316.416C289.501 316.416 289.123 316.808 289.123 317.27C289.123 317.76 289.501 318.124 289.991 318.124ZM289.375 327H290.579V320H289.375V327ZM296.238 327H297.442V323.528C297.442 321.89 298.408 321.12 299.29 321.12C299.528 321.12 299.724 321.134 299.948 321.232V319.986C299.766 319.944 299.584 319.93 299.402 319.93C298.604 319.93 297.708 320.462 297.442 321.358V320H296.238V327ZM304.199 327.14C305.655 327.14 306.719 326.496 307.349 325.474L306.397 324.816C305.963 325.558 305.291 326.034 304.213 326.034C302.827 326.034 301.833 325.04 301.791 323.738H307.531C307.545 323.584 307.545 323.5 307.545 323.374C307.545 321.134 306.033 319.86 304.213 319.86C302.071 319.86 300.573 321.442 300.573 323.5C300.573 325.558 302.015 327.14 304.199 327.14ZM301.875 322.758C302.099 321.596 303.121 320.924 304.171 320.924C305.235 320.924 306.131 321.61 306.313 322.758H301.875ZM312.306 325.866C310.906 325.866 309.94 324.83 309.94 323.416C309.94 322.016 310.906 320.966 312.306 320.966C313.706 320.966 314.672 322.016 314.672 323.416C314.672 324.83 313.706 325.866 312.306 325.866ZM312.236 330.066C314.238 330.066 315.778 328.932 315.778 326.594V320H314.574V321.078C314.084 320.364 313.188 319.86 312.138 319.86C310.178 319.86 308.708 321.428 308.708 323.416C308.708 325.432 310.178 326.986 312.138 326.986C313.188 326.986 314.084 326.468 314.574 325.754V326.552C314.574 328.232 313.426 328.974 312.236 328.974C311.158 328.974 310.346 328.512 309.786 327.798L308.946 328.638C309.548 329.422 310.724 330.066 312.236 330.066ZM318.045 327H319.249V323.528C319.249 321.89 320.159 320.966 321.279 320.966C322.273 320.966 322.931 321.694 322.931 322.87V327H324.121V322.688C324.121 320.952 323.043 319.86 321.475 319.86C320.565 319.86 319.739 320.238 319.249 321.078V320H318.045V327ZM328.403 327.14C329.803 327.14 330.839 326.384 330.839 325.04C330.839 323.976 330.153 323.36 328.935 322.982L328.165 322.744C327.381 322.506 327.171 322.17 327.171 321.736C327.171 321.218 327.731 320.896 328.333 320.896C329.005 320.896 329.467 321.246 329.789 321.694L330.685 321.078C330.223 320.294 329.425 319.86 328.375 319.86C327.045 319.86 325.967 320.588 325.967 321.778C325.967 322.772 326.555 323.486 327.717 323.822L328.417 324.046C329.327 324.326 329.635 324.634 329.635 325.138C329.635 325.74 329.089 326.076 328.417 326.076C327.633 326.076 326.905 325.684 326.639 324.97L325.659 325.516C326.093 326.622 327.157 327.14 328.403 327.14ZM337.59 327H339.214L335 323.094L338.444 320H336.848L333.796 322.73V316.5H332.592V327H333.796V323.5L337.59 327ZM342.572 327.14C343.636 327.14 344.574 326.594 345.036 325.922V327H346.24V320H345.036V321.078C344.574 320.406 343.636 319.86 342.572 319.86C340.612 319.86 339.142 321.498 339.142 323.5C339.142 325.502 340.612 327.14 342.572 327.14ZM342.754 326.034C341.34 326.034 340.36 324.914 340.36 323.5C340.36 322.086 341.34 320.966 342.754 320.966C344.154 320.966 345.134 322.086 345.134 323.5C345.134 324.914 344.154 326.034 342.754 326.034ZM352.174 327.14C354.134 327.14 355.604 325.502 355.604 323.5C355.604 321.498 354.134 319.86 352.174 319.86C351.11 319.86 350.172 320.406 349.71 321.078V316.5H348.506V327H349.71V325.922C350.172 326.594 351.11 327.14 352.174 327.14ZM351.992 326.034C350.592 326.034 349.612 324.914 349.612 323.5C349.612 322.086 350.592 320.966 351.992 320.966C353.392 320.966 354.372 322.086 354.372 323.5C354.372 324.914 353.392 326.034 351.992 326.034ZM360.404 327.14C361.86 327.14 362.924 326.496 363.554 325.474L362.602 324.816C362.168 325.558 361.496 326.034 360.418 326.034C359.032 326.034 358.038 325.04 357.996 323.738H363.736C363.75 323.584 363.75 323.5 363.75 323.374C363.75 321.134 362.238 319.86 360.418 319.86C358.276 319.86 356.778 321.442 356.778 323.5C356.778 325.558 358.22 327.14 360.404 327.14ZM358.08 322.758C358.304 321.596 359.326 320.924 360.376 320.924C361.44 320.924 362.336 321.61 362.518 322.758H358.08ZM368.079 327.07C368.513 327.07 368.863 327 369.157 326.902V325.824C368.933 325.922 368.597 325.964 368.303 325.964C367.533 325.964 367.141 325.67 367.141 324.774V321.106H369.157V320H367.141V318.054H365.937V320H364.453V321.106H365.937V324.928C365.937 326.384 366.847 327.07 368.079 327.07ZM383.088 327H384.292V322.702C384.292 320.98 383.368 319.86 381.842 319.86C380.778 319.86 379.924 320.448 379.546 321.358C379.196 320.42 378.44 319.86 377.39 319.86C376.438 319.86 375.682 320.336 375.276 321.078V320H374.072V327H375.276V323.528C375.276 321.946 376.074 320.966 377.208 320.966C378.118 320.966 378.58 321.75 378.58 322.884V327H379.784V323.416C379.826 321.904 380.582 320.966 381.702 320.966C382.612 320.966 383.088 321.75 383.088 322.884V327ZM389.539 327.14C390.995 327.14 392.059 326.496 392.689 325.474L391.737 324.816C391.303 325.558 390.631 326.034 389.553 326.034C388.167 326.034 387.173 325.04 387.131 323.738H392.871C392.885 323.584 392.885 323.5 392.885 323.374C392.885 321.134 391.373 319.86 389.553 319.86C387.411 319.86 385.913 321.442 385.913 323.5C385.913 325.558 387.355 327.14 389.539 327.14ZM387.215 322.758C387.439 321.596 388.461 320.924 389.511 320.924C390.575 320.924 391.471 321.61 391.653 322.758H387.215ZM397.478 327.14C398.542 327.14 399.48 326.594 399.942 325.922V327H401.146V316.5H399.942V321.078C399.48 320.406 398.542 319.86 397.478 319.86C395.518 319.86 394.048 321.498 394.048 323.5C394.048 325.502 395.518 327.14 397.478 327.14ZM397.66 326.034C396.246 326.034 395.266 324.914 395.266 323.5C395.266 322.086 396.246 320.966 397.66 320.966C399.06 320.966 400.04 322.086 400.04 323.5C400.04 324.914 399.06 326.034 397.66 326.034ZM406.131 327H413.383V325.768H407.853L413.243 317.928V317.06H406.285V318.292H411.521L406.131 326.132V327ZM417.84 327.14C419.296 327.14 420.36 326.496 420.99 325.474L420.038 324.816C419.604 325.558 418.932 326.034 417.854 326.034C416.468 326.034 415.474 325.04 415.432 323.738H421.172C421.186 323.584 421.186 323.5 421.186 323.374C421.186 321.134 419.674 319.86 417.854 319.86C415.712 319.86 414.214 321.442 414.214 323.5C414.214 325.558 415.656 327.14 417.84 327.14ZM415.516 322.758C415.74 321.596 416.762 320.924 417.812 320.924C418.876 320.924 419.772 321.61 419.954 322.758H415.516ZM430.639 327.07C431.073 327.07 431.409 327 431.731 326.902V325.824C431.507 325.922 431.157 325.964 430.863 325.964C430.093 325.964 429.701 325.67 429.701 324.774V321.106H431.731V320H429.701V318.054H428.497V320H427.181V321.106H428.497V324.928C428.497 326.384 429.407 327.07 430.639 327.07ZM425.515 327.07C425.949 327.07 426.299 327 426.593 326.902V325.824C426.369 325.922 426.033 325.964 425.739 325.964C424.969 325.964 424.577 325.67 424.577 324.774V321.106H426.397V320H424.577V318.054H423.373V320H421.889V321.106H423.373V324.928C423.373 326.384 424.283 327.07 425.515 327.07ZM433.272 327H434.476V316.5H433.272V327ZM439.838 327.14C441.294 327.14 442.358 326.496 442.988 325.474L442.036 324.816C441.602 325.558 440.93 326.034 439.852 326.034C438.466 326.034 437.472 325.04 437.43 323.738H443.17C443.184 323.584 443.184 323.5 443.184 323.374C443.184 321.134 441.672 319.86 439.852 319.86C437.71 319.86 436.212 321.442 436.212 323.5C436.212 325.558 437.654 327.14 439.838 327.14ZM437.514 322.758C437.738 321.596 438.76 320.924 439.81 320.924C440.874 320.924 441.77 321.61 441.952 322.758H437.514Z" fill="#1D1D1B"/>
<g filter="url(#filter1_i_61_7537)">
<path d="M405 179.914C405 160.041 387.539 143.93 366 143.93C344.461 143.93 327 160.041 327 179.914C327 199.788 344.461 215.899 366 215.899C387.539 215.899 405 199.788 405 179.914Z" fill="#192550"/>
<path d="M375.1 187.927C375.098 187.855 375.083 187.784 375.055 187.717C375.025 187.653 374.982 187.595 374.929 187.545C374.874 187.494 374.807 187.455 374.734 187.429C374.662 187.402 374.585 187.388 374.507 187.388H356.25V190.776C356.25 190.847 356.265 190.918 356.295 190.984C356.329 191.047 356.374 191.105 356.427 191.156C356.482 191.204 356.546 191.242 356.616 191.268C356.687 191.297 356.765 191.311 356.843 191.309H374.505C374.583 191.309 374.66 191.296 374.732 191.268C374.804 191.242 374.869 191.204 374.924 191.154C374.98 191.105 375.023 191.046 375.053 190.98C375.08 190.913 375.096 190.842 375.098 190.77L375.1 187.927Z" fill="white"/>
<path d="M356.61 171.241C356.61 171.316 356.627 171.39 356.661 171.459C356.69 171.53 356.736 171.594 356.794 171.647C356.852 171.701 356.922 171.742 356.999 171.769C357.074 171.8 357.154 171.816 357.236 171.816H375.1V168.482C375.107 168.409 375.094 168.336 375.061 168.269C375.035 168.197 374.994 168.13 374.94 168.073C374.825 167.97 374.672 167.911 374.511 167.906H357.243C357.082 167.907 356.927 167.967 356.815 168.073C356.756 168.123 356.708 168.184 356.676 168.251C356.643 168.319 356.626 168.391 356.625 168.465L356.61 171.241Z" fill="white"/>
<path d="M369.686 171.816L356.25 187.388H361.959L375.1 171.816H369.686Z" fill="#AE9FF3"/>
</g>
<defs>
<filter id="filter0_i_61_7537" x="128" y="238.043" width="78" height="75.9683" filterUnits="userSpaceOnUse" color-interpolation-filters="sRGB">
<feFlood flood-opacity="0" result="BackgroundImageFix"/>
<feBlend mode="normal" in="SourceGraphic" in2="BackgroundImageFix" result="shape"/>
<feColorMatrix in="SourceAlpha" type="matrix" values="0 0 0 0 0 0 0 0 0 0 0 0 0 0 0 0 0 0 127 0" result="hardAlpha"/>
<feOffset dy="4"/>
<feGaussianBlur stdDeviation="10"/>
<feComposite in2="hardAlpha" operator="arithmetic" k2="-1" k3="1"/>
<feColorMatrix type="matrix" values="0 0 0 0 0 0 0 0 0 0 0 0 0 0 0 0 0 0 0.1 0"/>
<feBlend mode="normal" in2="shape" result="effect1_innerShadow_61_7537"/>
</filter>
<filter id="filter1_i_61_7537" x="327" y="143.93" width="78" height="75.9685" filterUnits="userSpaceOnUse" color-interpolation-filters="sRGB">
<feFlood flood-opacity="0" result="BackgroundImageFix"/>
<feBlend mode="normal" in="SourceGraphic" in2="BackgroundImageFix" result="shape"/>
<feColorMatrix in="SourceAlpha" type="matrix" values="0 0 0 0 0 0 0 0 0 0 0 0 0 0 0 0 0 0 127 0" result="hardAlpha"/>
<feOffset dy="4"/>
<feGaussianBlur stdDeviation="10"/>
<feComposite in2="hardAlpha" operator="arithmetic" k2="-1" k3="1"/>
<feColorMatrix type="matrix" values="0 0 0 0 0 0 0 0 0 0 0 0 0 0 0 0 0 0 0.1 0"/>
<feBlend mode="normal" in2="shape" result="effect1_innerShadow_61_7537"/>
</filter>
<linearGradient id="paint0_linear_61_7537" x1="165.078" y1="268.897" x2="170.006" y2="265.197" gradientUnits="userSpaceOnUse">
<stop stop-color="#504678"/>
<stop offset="0.18" stop-color="#504678" stop-opacity="0.87"/>
<stop offset="0.53" stop-color="#504678" stop-opacity="0.54"/>
<stop offset="1" stop-color="#504678" stop-opacity="0"/>
</linearGradient>
<linearGradient id="paint1_linear_61_7537" x1="169.055" y1="264.874" x2="168.868" y2="263.173" gradientUnits="userSpaceOnUse">
<stop stop-color="#504678"/>
<stop offset="0.64" stop-color="#504678" stop-opacity="0.33"/>
<stop offset="1" stop-color="#504678" stop-opacity="0"/>
</linearGradient>
</defs>
</svg>
