<svg width="81" height="59" viewBox="0 0 81 59" fill="none" xmlns="http://www.w3.org/2000/svg">
<g clip-path="url(#clip0_1893_2002)">
<path d="M50.0321 42.7412H1.03516V58.4405H50.0321V42.7412Z" fill="white"/>
<path d="M50.0326 58.8818H1.03263C0.915966 58.881 0.804343 58.8342 0.722122 58.7516C0.639901 58.669 0.593757 58.5573 0.59376 58.4409V42.7564C0.593369 42.6986 0.604431 42.6413 0.626311 42.5879C0.648192 42.5344 0.680459 42.4857 0.721251 42.4448C0.762043 42.4038 0.810556 42.3712 0.863997 42.3491C0.917439 42.3269 0.97475 42.3154 1.03263 42.3154H50.0326C50.0904 42.3154 50.1478 42.3269 50.2012 42.3491C50.2546 42.3712 50.3032 42.4038 50.3439 42.4448C50.3847 42.4857 50.417 42.5344 50.4389 42.5879C50.4608 42.6413 50.4718 42.6986 50.4714 42.7564V58.4409C50.4714 58.5573 50.4253 58.669 50.3431 58.7516C50.2608 58.8342 50.1492 58.881 50.0326 58.8818V58.8818ZM1.47448 57.994H49.5907V43.1825H1.47448V57.994Z" fill="black"/>
<path d="M50.0321 1.32324H1.03516V17.0225H50.0321V1.32324Z" fill="white"/>
<path d="M50.0326 17.463H1.03262C0.915956 17.4622 0.804333 17.4154 0.722112 17.3328C0.639891 17.2502 0.593747 17.1385 0.59375 17.022V1.32278C0.593747 1.20634 0.639891 1.09463 0.722112 1.01202C0.804333 0.929417 0.915956 0.882617 1.03262 0.881836H50.0326C50.1492 0.882617 50.2608 0.929417 50.3431 1.01202C50.4253 1.09463 50.4714 1.20634 50.4714 1.32278V17.022C50.4714 17.1385 50.4253 17.2502 50.3431 17.3328C50.2608 17.4154 50.1492 17.4622 50.0326 17.463V17.463ZM1.47447 16.5752H49.5907V1.76372H1.47447V16.5752Z" fill="black"/>
<path d="M50.0321 22.0322H1.03516V37.7315H50.0321V22.0322Z" fill="#DDF3E4"/>
<path d="M50.0326 38.1719H1.03262C0.915956 38.1712 0.804333 38.1244 0.722112 38.0418C0.639891 37.9591 0.593747 37.8474 0.59375 37.731V22.0317C0.59375 21.9156 0.639988 21.8042 0.722293 21.722C0.804598 21.6399 0.916228 21.5938 1.03262 21.5938H50.0326C50.0902 21.5938 50.1473 21.6051 50.2005 21.6271C50.2537 21.6491 50.3021 21.6814 50.3429 21.722C50.3836 21.7627 50.416 21.811 50.438 21.8641C50.4601 21.9173 50.4714 21.9742 50.4714 22.0317V37.731C50.4714 37.8474 50.4253 37.9591 50.3431 38.0418C50.2608 38.1244 50.1492 38.1712 50.0326 38.1719V38.1719ZM1.47447 37.2841H49.5907V22.4727H1.47447V37.2841Z" fill="black"/>
<path d="M9.1142 10.9529C10.1869 10.9529 11.0565 10.0851 11.0565 9.01454C11.0565 7.94401 10.1869 7.07617 9.1142 7.07617C8.04148 7.07617 7.17188 7.94401 7.17188 9.01454C7.17188 10.0851 8.04148 10.9529 9.1142 10.9529Z" fill="white"/>
<path d="M9.12621 11.3931C8.65701 11.3931 8.19835 11.2543 7.80823 10.9941C7.41811 10.734 7.11404 10.3643 6.93449 9.93166C6.75493 9.49906 6.70795 9.02304 6.79949 8.5638C6.89103 8.10456 7.11696 7.68271 7.44874 7.35162C7.78051 7.02052 8.20321 6.79504 8.6634 6.70369C9.12358 6.61235 9.60057 6.65923 10.0341 6.83842C10.4675 7.0176 10.838 7.32105 11.0987 7.71038C11.3594 8.0997 11.4985 8.55743 11.4985 9.02567C11.4985 9.65356 11.2486 10.2557 10.8037 10.6997C10.3588 11.1437 9.75539 11.3931 9.12621 11.3931ZM9.12621 7.51937C8.82932 7.51937 8.5391 7.60727 8.29228 7.77194C8.04546 7.93661 7.85314 8.17065 7.73966 8.44444C7.62618 8.71823 7.59664 9.01947 7.65478 9.31002C7.71292 9.60057 7.85612 9.86738 8.06626 10.0767C8.2764 10.286 8.54404 10.4284 8.8353 10.4858C9.12656 10.5432 9.42835 10.5132 9.70248 10.3994C9.9766 10.2856 10.2107 10.0932 10.3753 9.84656C10.5398 9.59992 10.6273 9.31012 10.6267 9.01383C10.6259 8.6172 10.4675 8.23709 10.1862 7.95691C9.90486 7.67673 9.52365 7.51937 9.12621 7.51937Z" fill="black"/>
<path d="M9.1142 10.9529C10.1869 10.9529 11.0565 10.0851 11.0565 9.01454C11.0565 7.94401 10.1869 7.07617 9.1142 7.07617C8.04148 7.07617 7.17188 7.94401 7.17188 9.01454C7.17188 10.0851 8.04148 10.9529 9.1142 10.9529Z" fill="white"/>
<path d="M9.12621 11.3931C8.65701 11.3931 8.19835 11.2543 7.80823 10.9941C7.41811 10.734 7.11404 10.3643 6.93449 9.93166C6.75493 9.49906 6.70795 9.02304 6.79949 8.5638C6.89103 8.10456 7.11696 7.68271 7.44874 7.35162C7.78051 7.02052 8.20321 6.79504 8.6634 6.70369C9.12358 6.61235 9.60057 6.65923 10.0341 6.83842C10.4675 7.0176 10.838 7.32105 11.0987 7.71038C11.3594 8.0997 11.4985 8.55743 11.4985 9.02567C11.4985 9.65356 11.2486 10.2557 10.8037 10.6997C10.3588 11.1437 9.75539 11.3931 9.12621 11.3931ZM9.12621 7.51937C8.82932 7.51937 8.5391 7.60727 8.29228 7.77194C8.04546 7.93661 7.85314 8.17065 7.73966 8.44444C7.62618 8.71823 7.59664 9.01947 7.65478 9.31002C7.71292 9.60057 7.85612 9.86738 8.06626 10.0767C8.2764 10.286 8.54404 10.4284 8.8353 10.4858C9.12656 10.5432 9.42835 10.5132 9.70248 10.3994C9.9766 10.2856 10.2107 10.0932 10.3753 9.84656C10.5398 9.59992 10.6273 9.31012 10.6267 9.01383C10.6259 8.6172 10.4675 8.23709 10.1862 7.95691C9.90486 7.67673 9.52365 7.51937 9.12621 7.51937Z" fill="black"/>
<path d="M9.1142 31.8191C10.1869 31.8191 11.0565 30.9513 11.0565 29.8807C11.0565 28.8102 10.1869 27.9424 9.1142 27.9424C8.04148 27.9424 7.17188 28.8102 7.17188 29.8807C7.17188 30.9513 8.04148 31.8191 9.1142 31.8191Z" fill="white"/>
<path d="M9.12621 32.2593C8.65701 32.2593 8.19835 32.1205 7.80823 31.8604C7.41811 31.6002 7.11404 31.2305 6.93449 30.7979C6.75493 30.3653 6.70795 29.8893 6.79949 29.43C6.89103 28.9708 7.11696 28.5489 7.44874 28.2178C7.78051 27.8867 8.20321 27.6613 8.6634 27.5699C9.12358 27.4786 9.60057 27.5254 10.0341 27.7046C10.4675 27.8838 10.838 28.1873 11.0987 28.5766C11.3594 28.9659 11.4985 29.4236 11.4985 29.8919C11.4985 30.5198 11.2486 31.1219 10.8037 31.5659C10.3588 32.0099 9.75539 32.2593 9.12621 32.2593ZM9.12621 28.3856C8.82944 28.3856 8.53934 28.4734 8.29259 28.6379C8.04583 28.8025 7.85351 29.0363 7.73995 29.31C7.62638 29.5836 7.59667 29.8847 7.65456 30.1751C7.71246 30.4656 7.85536 30.7324 8.06521 30.9418C8.27506 31.1513 8.54242 31.2939 8.83348 31.3516C9.12455 31.4094 9.42624 31.3798 9.70042 31.2664C9.9746 31.1531 10.2089 30.9612 10.3738 30.7149C10.5387 30.4687 10.6267 30.1792 10.6267 29.883C10.6259 29.4861 10.4676 29.1057 10.1863 28.825C9.90512 28.5444 9.52392 28.3864 9.12621 28.3856V28.3856Z" fill="black"/>
<path d="M9.1142 52.5281C10.1869 52.5281 11.0565 51.6603 11.0565 50.5897C11.0565 49.5192 10.1869 48.6514 9.1142 48.6514C8.04148 48.6514 7.17188 49.5192 7.17188 50.5897C7.17188 51.6603 8.04148 52.5281 9.1142 52.5281Z" fill="white"/>
<path d="M9.12621 52.9693C8.65701 52.9693 8.19835 52.8305 7.80823 52.5703C7.41811 52.3102 7.11404 51.9404 6.93449 51.5078C6.75493 51.0752 6.70795 50.5992 6.79949 50.14C6.89103 49.6807 7.11696 49.2589 7.44874 48.9278C7.78051 48.5967 8.20321 48.3712 8.6634 48.2799C9.12358 48.1885 9.60057 48.2354 10.0341 48.4146C10.4675 48.5938 10.838 48.8972 11.0987 49.2866C11.3594 49.6759 11.4985 50.1336 11.4985 50.6018C11.4985 51.2297 11.2486 51.8319 10.8037 52.2759C10.3588 52.7199 9.75539 52.9693 9.12621 52.9693ZM9.12621 49.0955C8.82944 49.0955 8.53934 49.1834 8.29259 49.3479C8.04583 49.5124 7.85351 49.7463 7.73995 50.0199C7.62638 50.2935 7.59667 50.5946 7.65456 50.8851C7.71246 51.1756 7.85536 51.4424 8.06521 51.6518C8.27506 51.8612 8.54242 52.0038 8.83348 52.0616C9.12455 52.1194 9.42624 52.0897 9.70042 51.9764C9.9746 51.8631 10.2089 51.6711 10.3738 51.4249C10.5387 51.1786 10.6267 50.8891 10.6267 50.593C10.6259 50.1961 10.4676 49.8156 10.1863 49.535C9.90512 49.2543 9.52392 49.0963 9.12621 49.0955V49.0955Z" fill="black"/>
<path d="M9.1142 52.5281C10.1869 52.5281 11.0565 51.6603 11.0565 50.5897C11.0565 49.5192 10.1869 48.6514 9.1142 48.6514C8.04148 48.6514 7.17188 49.5192 7.17188 50.5897C7.17188 51.6603 8.04148 52.5281 9.1142 52.5281Z" fill="white"/>
<path d="M9.12621 52.9693C8.65701 52.9693 8.19835 52.8305 7.80823 52.5703C7.41811 52.3102 7.11404 51.9404 6.93449 51.5078C6.75493 51.0752 6.70795 50.5992 6.79949 50.14C6.89103 49.6807 7.11696 49.2589 7.44874 48.9278C7.78051 48.5967 8.20321 48.3712 8.6634 48.2799C9.12358 48.1885 9.60057 48.2354 10.0341 48.4146C10.4675 48.5938 10.838 48.8972 11.0987 49.2866C11.3594 49.6759 11.4985 50.1336 11.4985 50.6018C11.4985 51.2297 11.2486 51.8319 10.8037 52.2759C10.3588 52.7199 9.75539 52.9693 9.12621 52.9693ZM9.12621 49.0955C8.82944 49.0955 8.53934 49.1834 8.29259 49.3479C8.04583 49.5124 7.85351 49.7463 7.73995 50.0199C7.62638 50.2935 7.59667 50.5946 7.65456 50.8851C7.71246 51.1756 7.85536 51.4424 8.06521 51.6518C8.27506 51.8612 8.54242 52.0038 8.83348 52.0616C9.12455 52.1194 9.42624 52.0897 9.70042 51.9764C9.9746 51.8631 10.2089 51.6711 10.3738 51.4249C10.5387 51.1786 10.6267 50.8891 10.6267 50.593C10.6259 50.1961 10.4676 49.8156 10.1863 49.535C9.90512 49.2543 9.52392 49.0963 9.12621 49.0955V49.0955Z" fill="black"/>
<path d="M19.0712 31.8191C20.1439 31.8191 21.0136 30.9513 21.0136 29.8807C21.0136 28.8102 20.1439 27.9424 19.0712 27.9424C17.9985 27.9424 17.1289 28.8102 17.1289 29.8807C17.1289 30.9513 17.9985 31.8191 19.0712 31.8191Z" fill="white"/>
<path d="M19.0676 32.2593C18.5984 32.2593 18.1398 32.1205 17.7496 31.8604C17.3595 31.6002 17.0554 31.2305 16.8759 30.7979C16.6963 30.3653 16.6494 29.8893 16.7409 29.43C16.8324 28.9708 17.0584 28.5489 17.3901 28.2178C17.7219 27.8867 18.1446 27.6613 18.6048 27.5699C19.065 27.4786 19.542 27.5254 19.9755 27.7046C20.4089 27.8838 20.7794 28.1873 21.0401 28.5766C21.3008 28.9659 21.4399 29.4236 21.4399 29.8919C21.4399 30.5198 21.19 31.1219 20.7451 31.5659C20.3002 32.0099 19.6968 32.2593 19.0676 32.2593ZM19.0676 28.3856C18.7709 28.3856 18.4807 28.4734 18.234 28.6379C17.9872 28.8025 17.7949 29.0363 17.6814 29.31C17.5678 29.5836 17.5381 29.8847 17.596 30.1751C17.6539 30.4656 17.7968 30.7324 18.0066 30.9418C18.2165 31.1513 18.4838 31.2939 18.7749 31.3516C19.066 31.4094 19.3676 31.3798 19.6418 31.2664C19.916 31.1531 20.1503 30.9612 20.3152 30.7149C20.4801 30.4687 20.5681 30.1792 20.5681 29.883C20.5681 29.4859 20.41 29.105 20.1286 28.8242C19.8472 28.5433 19.4656 28.3856 19.0676 28.3856Z" fill="black"/>
<path d="M7.10711 57.1714C7.06854 57.171 7.03151 57.1562 7.00332 57.1299C6.97615 57.1023 6.96094 57.0651 6.96094 57.0264C6.96094 56.9876 6.97615 56.9505 7.00332 56.9228C10.1199 53.8096 14.4464 48.9326 18.5683 43.8869C18.5943 43.861 18.629 43.8457 18.6657 43.8439C18.7024 43.8421 18.7384 43.854 18.7669 43.8772C18.7953 43.9004 18.8141 43.9333 18.8196 43.9696C18.8251 44.0058 18.8169 44.0428 18.7966 44.0734C14.6629 49.1309 10.3334 54.0108 7.20793 57.1299C7.1805 57.1556 7.14465 57.1703 7.10711 57.1714V57.1714Z" fill="black"/>
<path d="M3.87071 56.9283C3.83495 56.9281 3.80036 56.9156 3.77285 56.8928C3.74569 56.8651 3.73047 56.8279 3.73047 56.7892C3.73047 56.7505 3.74569 56.7133 3.77285 56.6856L6.69078 53.3504C6.71802 53.327 6.75289 53.3142 6.78889 53.3145C6.82488 53.3147 6.85954 53.3281 6.8864 53.352C6.91326 53.3759 6.9305 53.4087 6.93488 53.4444C6.93926 53.4801 6.9305 53.5161 6.91022 53.5458L3.99229 56.878C3.97727 56.8951 3.95849 56.9086 3.9374 56.9173C3.91631 56.9261 3.89349 56.9298 3.87071 56.9283Z" fill="black"/>
<path d="M11.3236 48.3737C11.2872 48.3738 11.2522 48.36 11.2257 48.3352C11.1987 48.3081 11.1836 48.2714 11.1836 48.2331C11.1836 48.1949 11.1987 48.1582 11.2257 48.131L14.9354 43.9229C14.9623 43.8987 14.9971 43.8851 15.0332 43.8848C15.0694 43.8844 15.1045 43.8973 15.1318 43.9209C15.1592 43.9446 15.1769 43.9774 15.1817 44.0132C15.1865 44.0489 15.178 44.0852 15.1578 44.1152L11.4452 48.3234C11.4301 48.3406 11.4113 48.354 11.3903 48.3627C11.3692 48.3715 11.3463 48.3752 11.3236 48.3737V48.3737Z" fill="black"/>
<path d="M2.30768 54.5675C2.27427 54.5671 2.24195 54.5557 2.21575 54.535C2.1852 54.5106 2.16556 54.4751 2.16112 54.4363C2.15667 54.3975 2.16778 54.3585 2.19203 54.3278C5.04176 50.747 8.05161 47.2254 11.1415 43.8429C11.1544 43.8287 11.1699 43.8172 11.1872 43.809C11.2045 43.8008 11.2233 43.7961 11.2424 43.7951C11.2616 43.7941 11.2807 43.797 11.2988 43.8034C11.3168 43.8098 11.3334 43.8197 11.3476 43.8325C11.3618 43.8453 11.3734 43.8608 11.3816 43.8781C11.3898 43.8954 11.3945 43.9141 11.3955 43.9332C11.3965 43.9523 11.3937 43.9714 11.3872 43.9894C11.3808 44.0074 11.3709 44.024 11.358 44.0382C8.27402 47.4118 5.26712 50.9335 2.42333 54.5113C2.40938 54.5286 2.39178 54.5426 2.37179 54.5523C2.3518 54.562 2.32991 54.5672 2.30768 54.5675V54.5675Z" fill="black"/>
<path d="M2.46334 49.9569C2.42856 49.9563 2.39505 49.9437 2.36845 49.9214C2.33878 49.8961 2.32028 49.8602 2.31695 49.8214C2.31362 49.7827 2.32573 49.7441 2.35065 49.7142C3.95492 47.8143 5.63926 45.944 7.36215 44.1536C7.38986 44.1265 7.42712 44.1113 7.46593 44.1113C7.50474 44.1113 7.54201 44.1265 7.56972 44.1536C7.58353 44.1671 7.5945 44.1832 7.60199 44.201C7.60948 44.2188 7.61333 44.2379 7.61333 44.2572C7.61333 44.2765 7.60948 44.2956 7.60199 44.3134C7.5945 44.3312 7.58353 44.3473 7.56972 44.3608C5.8498 46.1364 4.16843 48.0096 2.57009 49.9066C2.55682 49.9219 2.54046 49.9344 2.52207 49.943C2.50368 49.9517 2.48367 49.9564 2.46334 49.9569V49.9569Z" fill="black"/>
<path d="M2.41207 46.1565C2.3726 46.1549 2.33535 46.1379 2.30828 46.1092C2.28092 46.081 2.26563 46.0433 2.26562 46.0041C2.26562 45.9649 2.28092 45.9272 2.30828 45.8991L4.52045 43.7713C4.53345 43.7545 4.5499 43.7407 4.56869 43.7309C4.58748 43.721 4.60817 43.7153 4.62937 43.7141C4.65057 43.7129 4.67178 43.7163 4.69157 43.724C4.71135 43.7317 4.72925 43.7435 4.74405 43.7587C4.75884 43.7739 4.7702 43.7921 4.77734 43.8121C4.78449 43.832 4.78725 43.8533 4.78545 43.8744C4.78365 43.8955 4.77733 43.916 4.76691 43.9344C4.75649 43.9529 4.74222 43.9689 4.72506 43.9814L2.51289 46.1121C2.48643 46.1396 2.45021 46.1555 2.41207 46.1565Z" fill="black"/>
<path d="M10.3318 57.1715C10.2974 57.1715 10.264 57.16 10.2369 57.1389C10.2218 57.1266 10.2094 57.1115 10.2004 57.0943C10.1913 57.0772 10.1858 57.0584 10.1841 57.0391C10.1825 57.0198 10.1847 57.0003 10.1907 56.9819C10.1967 56.9635 10.2064 56.9464 10.2191 56.9318C13.911 52.5372 17.7482 48.1544 21.621 43.9107C21.6345 43.8969 21.6506 43.886 21.6684 43.8785C21.6863 43.871 21.7054 43.8672 21.7247 43.8672C21.7441 43.8672 21.7632 43.871 21.781 43.8785C21.7988 43.886 21.815 43.8969 21.8285 43.9107C21.8557 43.9384 21.8709 43.9756 21.8709 44.0143C21.8709 44.053 21.8557 44.0902 21.8285 44.1179C17.9587 48.3645 14.1185 52.7443 10.4355 57.1389C10.4065 57.1628 10.3693 57.1745 10.3318 57.1715Z" fill="black"/>
<path d="M13.7785 57.0585C13.7446 57.0582 13.7119 57.0456 13.6866 57.023C13.6565 56.9982 13.6374 56.9625 13.6335 56.9237C13.6297 56.8849 13.6413 56.8461 13.6659 56.8158C17.2629 52.4923 21.0111 48.1835 24.8068 44.0108C24.8189 43.9935 24.8345 43.9789 24.8527 43.9681C24.8709 43.9573 24.8912 43.9505 24.9122 43.9482C24.9332 43.9458 24.9545 43.948 24.9746 43.9546C24.9947 43.9612 25.0132 43.9719 25.0288 43.9862C25.0444 44.0005 25.0567 44.0179 25.065 44.0374C25.0733 44.0568 25.0773 44.0778 25.0768 44.0989C25.0762 44.12 25.0712 44.1408 25.062 44.1598C25.0527 44.1788 25.0395 44.1956 25.0233 44.2091C21.2335 48.3758 17.4882 52.6817 13.8912 57.0052C13.878 57.0224 13.8609 57.0362 13.8413 57.0455C13.8217 57.0547 13.8002 57.0592 13.7785 57.0585V57.0585Z" fill="black"/>
<path d="M17.1353 57.1717C17.1072 57.1715 17.0798 57.1633 17.0562 57.1481C17.0326 57.133 17.0138 57.1114 17.002 57.086C16.9902 57.0606 16.9859 57.0323 16.9895 57.0046C16.9932 56.9768 17.0047 56.9506 17.0226 56.9291L27.8166 44.2631C27.8289 44.2481 27.8441 44.2357 27.8613 44.2267C27.8785 44.2177 27.8973 44.2121 27.9166 44.2105C27.936 44.2088 27.9555 44.2111 27.974 44.2171C27.9924 44.223 28.0095 44.2327 28.0242 44.2454C28.0539 44.2706 28.0724 44.3065 28.0757 44.3453C28.079 44.3841 28.0669 44.4226 28.042 44.4525L17.248 57.1214C17.2337 57.1371 17.2163 57.1497 17.1969 57.1583C17.1775 57.167 17.1566 57.1715 17.1353 57.1717V57.1717Z" fill="black"/>
<path d="M20.3323 57.1713C20.298 57.1705 20.2649 57.1591 20.2374 57.1387C20.2073 57.1139 20.1882 57.0782 20.1843 57.0394C20.1804 57.0006 20.1921 56.9619 20.2166 56.9316C23.7958 52.5547 27.5144 48.1808 31.2271 43.9431C31.2396 43.9283 31.2549 43.9161 31.2722 43.9074C31.2895 43.8986 31.3084 43.8933 31.3277 43.892C31.3471 43.8906 31.3665 43.8931 31.3849 43.8993C31.4032 43.9056 31.4202 43.9154 31.4347 43.9283C31.4618 43.9559 31.477 43.9931 31.477 44.0318C31.477 44.0706 31.4618 44.1077 31.4347 44.1354C27.7101 48.3732 24.0212 52.7412 20.4331 57.118C20.4208 57.1332 20.4055 57.1458 20.3881 57.1549C20.3708 57.1641 20.3518 57.1697 20.3323 57.1713V57.1713Z" fill="black"/>
<path d="M23.3985 57.171C23.3649 57.1721 23.332 57.1605 23.3066 57.1385C23.2912 57.1269 23.2784 57.1123 23.2688 57.0957C23.2592 57.079 23.2532 57.0605 23.2509 57.0414C23.2487 57.0224 23.2504 57.003 23.2559 56.9846C23.2614 56.9662 23.2706 56.9491 23.2829 56.9343C26.7642 52.6196 30.3998 48.3256 34.0858 44.1677C34.1113 44.1387 34.1474 44.121 34.186 44.1185C34.2247 44.116 34.2628 44.1289 34.2919 44.1544C34.3209 44.1799 34.3387 44.2159 34.3412 44.2545C34.3437 44.2931 34.3308 44.331 34.3052 44.3601C30.6222 48.5031 26.9896 52.809 23.5112 57.1178C23.4976 57.1344 23.4804 57.1479 23.4609 57.1571C23.4414 57.1663 23.4201 57.1711 23.3985 57.171V57.171Z" fill="black"/>
<path d="M26.6493 57.0592C26.6131 57.0585 26.5784 57.0448 26.5514 57.0207C26.5376 57.0072 26.5266 56.9911 26.5192 56.9733C26.5117 56.9555 26.5078 56.9364 26.5078 56.9171C26.5078 56.8979 26.5117 56.8788 26.5192 56.861C26.5266 56.8432 26.5376 56.8271 26.5514 56.8136C30.2848 52.7119 33.9174 48.4298 37.3543 44.0884C37.3661 44.0734 37.3808 44.0609 37.3976 44.0516C37.4143 44.0423 37.4327 44.0364 37.4517 44.0342C37.4707 44.032 37.4899 44.0335 37.5083 44.0388C37.5268 44.044 37.5439 44.0529 37.5589 44.0648C37.5742 44.0764 37.587 44.0909 37.5966 44.1075C37.6062 44.124 37.6124 44.1423 37.6149 44.1613C37.6174 44.1803 37.616 44.1996 37.611 44.2181C37.606 44.2365 37.5974 44.2538 37.5856 44.269C34.1458 48.6192 30.5072 52.9073 26.7709 57.0118C26.7554 57.0283 26.7365 57.0411 26.7155 57.0493C26.6944 57.0575 26.6718 57.0609 26.6493 57.0592V57.0592Z" fill="black"/>
<path d="M29.7301 56.9288C29.6943 56.9286 29.6597 56.9161 29.6322 56.8933C29.6051 56.8656 29.5898 56.8284 29.5898 56.7897C29.5898 56.751 29.6051 56.7138 29.6322 56.6861L39.6018 45.0352C39.6135 45.0178 39.6288 45.0031 39.6467 44.992C39.6645 44.981 39.6845 44.9738 39.7053 44.971C39.7261 44.9683 39.7473 44.9699 39.7674 44.9759C39.7875 44.9819 39.8062 44.9921 39.822 45.0059C39.8379 45.0196 39.8507 45.0365 39.8595 45.0556C39.8683 45.0746 39.873 45.0953 39.8732 45.1162C39.8734 45.1372 39.8691 45.1579 39.8607 45.1771C39.8523 45.1963 39.8398 45.2135 39.8242 45.2276L29.8546 56.8785C29.8393 56.8961 29.82 56.9098 29.7984 56.9185C29.7768 56.9273 29.7533 56.9308 29.7301 56.9288V56.9288Z" fill="black"/>
<path d="M32.8502 57.0587C32.8221 57.0584 32.7947 57.0503 32.7711 57.0351C32.7475 57.0199 32.7287 56.9983 32.7169 56.9729C32.7051 56.9475 32.7007 56.9193 32.7044 56.8915C32.708 56.8637 32.7195 56.8375 32.7375 56.816L42.4965 45.2983C42.523 45.2733 42.5577 45.2589 42.5941 45.2579C42.6305 45.2568 42.6661 45.2692 42.6939 45.2926C42.7218 45.316 42.74 45.3488 42.7452 45.3848C42.7504 45.4208 42.7421 45.4574 42.7219 45.4877L32.9688 56.9995C32.9551 57.018 32.9373 57.0331 32.9166 57.0434C32.896 57.0537 32.8732 57.0589 32.8502 57.0587V57.0587Z" fill="black"/>
<path d="M36.3121 57.0585C36.2758 57.0586 36.2408 57.0449 36.2143 57.0201C36.1871 56.9924 36.1719 56.9552 36.1719 56.9165C36.1719 56.8777 36.1871 56.8406 36.2143 56.8129C39.5118 53.0989 42.7025 49.1956 45.7035 45.2093C45.7149 45.1939 45.7293 45.1809 45.7458 45.171C45.7623 45.1611 45.7805 45.1546 45.7996 45.1519C45.8186 45.1491 45.838 45.1502 45.8566 45.155C45.8753 45.1598 45.8927 45.1682 45.9081 45.1797C45.9389 45.2038 45.9592 45.2387 45.9647 45.2774C45.9702 45.316 45.9606 45.3552 45.9377 45.3869C42.9338 49.3643 39.7223 53.2824 36.41 57.0023C36.3861 57.0332 36.3509 57.0534 36.3121 57.0585V57.0585Z" fill="black"/>
<path d="M39.4667 57.0592C39.4348 57.0584 39.4038 57.0481 39.3777 57.0296C39.3467 57.0056 39.3265 56.9703 39.3215 56.9315C39.3165 56.8927 39.3271 56.8535 39.3511 56.8224C42.3164 52.9546 45.4597 49.1814 48.7246 45.6066C48.7375 45.5924 48.753 45.5809 48.7703 45.5727C48.7876 45.5645 48.8064 45.5597 48.8255 45.5588C48.8447 45.5578 48.8638 45.5606 48.8819 45.5671C48.8999 45.5735 48.9165 45.5834 48.9307 45.5962C48.9449 45.609 48.9565 45.6245 48.9647 45.6418C48.9729 45.6591 48.9776 45.6778 48.9786 45.6969C48.9796 45.716 48.9767 45.7351 48.9703 45.7531C48.9639 45.7711 48.954 45.7877 48.9411 45.8019C45.6792 49.3738 42.5359 53.141 39.5824 57C39.5693 57.0185 39.552 57.0336 39.5319 57.0439C39.5117 57.0542 39.4893 57.0594 39.4667 57.0592V57.0592Z" fill="black"/>
<path d="M42.2876 56.9288C42.2527 56.9287 42.219 56.9161 42.1927 56.8933C42.163 56.868 42.1445 56.8321 42.1412 56.7934C42.1378 56.7546 42.15 56.716 42.1749 56.6861L48.4022 49.4565C48.4279 49.4273 48.4641 49.4094 48.5029 49.4066C48.5418 49.4039 48.5801 49.4164 48.6097 49.4417C48.6246 49.4542 48.6367 49.4695 48.6455 49.4867C48.6543 49.504 48.6595 49.5228 48.6609 49.5421C48.6623 49.5614 48.6598 49.5808 48.6536 49.5991C48.6473 49.6175 48.6375 49.6344 48.6246 49.6488L42.3973 56.8785C42.3833 56.8938 42.3664 56.9062 42.3476 56.9148C42.3287 56.9234 42.3083 56.9282 42.2876 56.9288V56.9288Z" fill="black"/>
<path d="M45.0074 57.0592C44.9712 57.0587 44.9364 57.045 44.9096 57.0207C44.8824 56.9931 44.8672 56.9559 44.8672 56.9171C44.8672 56.8784 44.8824 56.8412 44.9096 56.8136L48.3168 53.0345C48.3445 53.0074 48.3818 52.9922 48.4206 52.9922C48.4594 52.9922 48.4966 53.0074 48.5244 53.0345C48.5382 53.048 48.5491 53.0641 48.5566 53.0819C48.5641 53.0997 48.568 53.1188 48.568 53.1381C48.568 53.1574 48.5641 53.1764 48.5566 53.1942C48.5491 53.212 48.5382 53.2281 48.5244 53.2416L45.1171 57.0207C45.1024 57.0342 45.0851 57.0445 45.0662 57.0511C45.0474 57.0577 45.0274 57.0605 45.0074 57.0592V57.0592Z" fill="black"/>
<path d="M47.9332 57.0587C47.8969 57.0588 47.8618 57.0451 47.8353 57.0203C47.8082 56.9926 47.793 56.9554 47.793 56.9167C47.793 56.8779 47.8082 56.8408 47.8353 56.8131L48.725 55.8336C48.7385 55.8198 48.7546 55.8088 48.7725 55.8014C48.7903 55.7939 48.8094 55.79 48.8287 55.79C48.8481 55.79 48.8672 55.7939 48.885 55.8014C48.9029 55.8088 48.919 55.8198 48.9325 55.8336C48.9597 55.8612 48.9749 55.8984 48.9749 55.9371C48.9749 55.9759 48.9597 56.0131 48.9325 56.0407L48.0429 57.0203C48.0282 57.0337 48.0109 57.0441 47.992 57.0507C47.9732 57.0573 47.9531 57.06 47.9332 57.0587V57.0587Z" fill="black"/>
<path d="M60.3203 41.1406L69.5575 50.208C71.1502 51.8284 72.8333 53.3578 74.5986 54.789C75.5535 55.5348 76.618 56.2421 77.7805 56.2421C78.9429 56.2421 80.1765 55.2655 80.1676 53.9545C80.1676 52.9306 79.4529 52.1079 78.7917 51.4095C73.8889 46.2504 68.7736 41.3665 63.4458 36.7578C62.4554 38.1842 61.4827 39.5988 60.3203 41.1406Z" fill="white"/>
<path d="M77.7652 56.683C76.4693 56.683 75.3395 55.9372 74.3106 55.1352C72.5374 53.6928 70.8465 52.1525 69.2457 50.5216L60.0115 41.4542C59.932 41.3784 59.8838 41.2758 59.8761 41.1663C59.8684 41.0569 59.9019 40.9485 59.97 40.8624C61.1265 39.3354 62.114 37.903 63.0659 36.5003C63.1009 36.4487 63.1465 36.4051 63.1996 36.3724C63.2528 36.3396 63.3123 36.3185 63.3742 36.3104C63.4361 36.3023 63.4991 36.3074 63.5589 36.3253C63.6187 36.3433 63.674 36.3736 63.7212 36.4145C69.0292 41.0192 74.2038 45.9584 79.1115 51.1076C79.8321 51.8652 80.5942 52.7737 80.609 53.9515C80.6087 54.2975 80.539 54.6399 80.4041 54.9585C80.2691 55.2772 80.0716 55.5657 79.8232 55.807C79.2781 56.356 78.5395 56.6704 77.7652 56.683V56.683ZM60.9041 41.0962L69.8655 49.8943C71.442 51.5029 73.1082 53.0215 74.8562 54.4428C75.7458 55.1471 76.7362 55.8011 77.7652 55.8011C78.3002 55.7891 78.8092 55.5681 79.1827 55.1856C79.3482 55.0261 79.4804 54.8354 79.5715 54.6246C79.6626 54.4138 79.7109 54.187 79.7135 53.9574C79.7135 53.1022 79.0878 52.3801 78.4562 51.7143C73.7116 46.7071 68.6704 41.8981 63.5166 37.4147C62.707 38.5985 61.8649 39.8148 60.9041 41.0962Z" fill="black"/>
<path d="M48.3072 7.7207C44.51 7.7207 40.7981 8.84449 37.6409 10.9499C34.4837 13.0554 32.023 16.0479 30.5702 19.5491C29.1173 23.0502 28.7375 26.9027 29.4787 30.6193C30.2199 34.3359 32.0489 37.7496 34.7344 40.4288C37.4199 43.108 40.8411 44.9322 44.5656 45.6708C48.29 46.4093 52.1502 46.0291 55.658 44.5781C59.1659 43.1271 62.1638 40.6706 64.2726 37.5191C66.3813 34.3677 67.5063 30.663 67.5051 26.8735C67.5035 21.7933 65.4802 16.9218 61.8801 13.3301C58.28 9.73839 53.3978 7.7207 48.3072 7.7207ZM48.3072 41.4305C45.4237 41.4305 42.6049 40.5772 40.2072 38.9786C37.8096 37.38 35.9407 35.1078 34.8369 32.4492C33.7332 29.7907 33.4441 26.8653 34.0062 24.0428C34.5683 21.2204 35.9564 18.6276 37.995 16.5924C40.0336 14.5571 42.631 13.1708 45.459 12.6087C48.287 12.0466 51.2186 12.3339 53.8829 13.4343C56.5473 14.5348 58.825 16.3989 60.4278 18.791C62.0307 21.1831 62.8868 23.9958 62.888 26.8735C62.8884 28.7848 62.5116 30.6774 61.779 32.4433C61.0465 34.2092 59.9726 35.8139 58.6186 37.1656C57.2647 38.5174 55.6572 39.5897 53.888 40.3215C52.1187 41.0533 50.2224 41.4301 48.3072 41.4305ZM48.3072 41.4305C45.4237 41.4305 42.6049 40.5772 40.2072 38.9786C37.8096 37.38 35.9407 35.1078 34.8369 32.4492C33.7332 29.7907 33.4441 26.8653 34.0062 24.0428C34.5683 21.2204 35.9564 18.6276 37.995 16.5924C40.0336 14.5571 42.631 13.1708 45.459 12.6087C48.287 12.0466 51.2186 12.3339 53.8829 13.4343C56.5473 14.5348 58.825 16.3989 60.4278 18.791C62.0307 21.1831 62.8868 23.9958 62.888 26.8735C62.8884 28.7848 62.5116 30.6774 61.779 32.4433C61.0465 34.2092 59.9726 35.8139 58.6186 37.1656C57.2647 38.5174 55.6572 39.5897 53.888 40.3215C52.1187 41.0533 50.2224 41.4301 48.3072 41.4305Z" fill="white"/>
<path d="M48.3077 46.4767C44.4234 46.4767 40.6264 45.3273 37.3968 43.1738C34.1671 41.0202 31.6498 37.9594 30.1632 34.3782C28.6767 30.797 28.2876 26.8563 29.0451 23.0544C29.8027 19.2525 31.6729 15.7602 34.4193 13.019C37.1656 10.2778 40.6648 8.41091 44.4744 7.65432C48.2839 6.89772 52.2327 7.28544 55.8214 8.76844C59.4102 10.2514 62.4777 12.7631 64.6361 15.9859C66.7945 19.2086 67.9468 22.9977 67.9474 26.8741C67.9435 32.0713 65.8731 37.0546 62.1909 40.7298C58.5087 44.4051 53.5155 46.472 48.3077 46.4767ZM48.3077 8.15923C44.5971 8.15865 40.9697 9.25625 37.8843 11.3132C34.7989 13.3702 32.3941 16.2941 30.974 19.7152C29.5539 23.1362 29.1823 26.9008 29.9062 30.5326C30.6302 34.1644 32.4172 37.5004 35.0412 40.1186C37.6651 42.7368 41.0082 44.5196 44.6476 45.2415C48.2869 45.9634 52.0591 45.592 55.4869 44.1743C58.9147 42.7565 61.8442 40.3561 63.9049 37.2767C65.9656 34.1972 67.0649 30.5771 67.0637 26.8741C67.0566 21.9122 65.0782 17.1557 61.5622 13.6474C58.0462 10.1391 53.2796 8.16549 48.3077 8.15923ZM48.3077 41.869C45.3366 41.869 42.4323 40.9898 39.9619 39.3426C37.4915 37.6954 35.566 35.3541 34.4289 32.6149C33.2918 29.8756 32.9941 26.8614 33.5735 23.9533C34.1529 21.0452 35.5834 18.3739 37.684 16.2771C39.7847 14.1803 42.4612 12.7523 45.3751 12.1735C48.289 11.5947 51.3095 11.8911 54.0545 13.0254C56.7996 14.1596 59.146 16.0807 60.7971 18.5458C62.4482 21.0108 63.3297 23.9091 63.3303 26.8741C63.3272 30.8495 61.7435 34.6612 58.927 37.4726C56.1105 40.2839 52.2912 41.8651 48.3077 41.869ZM34.1688 26.8741C34.1688 29.6655 34.9982 32.3942 36.5523 34.7152C38.1064 37.0361 40.3152 38.845 42.8995 39.9131C45.4837 40.9812 48.3273 41.2605 51.0707 40.7157C53.814 40.1709 56.3339 38.8265 58.3115 36.8525C60.2892 34.8784 61.6358 32.3634 62.1812 29.6256C62.7265 26.8877 62.446 24.0499 61.3752 21.4712C60.3044 18.8924 58.4913 16.6884 56.1653 15.138C53.8393 13.5876 51.1048 12.7604 48.3077 12.761C44.5587 12.7657 40.9647 14.2542 38.3141 16.9C35.6635 19.5458 34.1727 23.1328 34.1688 26.8741V26.8741Z" fill="black"/>
<path d="M62.7998 41.6914H62.7583C62.7212 41.6804 62.6899 41.6554 62.6711 41.6217C62.6523 41.5879 62.6474 41.5482 62.6575 41.5109L62.9956 40.3272C63.0062 40.2879 63.032 40.2545 63.0673 40.2343C63.1026 40.214 63.1445 40.2086 63.1839 40.2192C63.2232 40.2298 63.2567 40.2555 63.277 40.2908C63.2973 40.326 63.3027 40.3678 63.2921 40.4071L62.954 41.5908C62.9435 41.6225 62.9225 41.6497 62.8945 41.6679C62.8665 41.6862 62.8331 41.6945 62.7998 41.6914Z" fill="black"/>
<path d="M64.4126 43.7572H64.3918C64.3728 43.755 64.3544 43.749 64.3377 43.7396C64.3211 43.7301 64.3065 43.7174 64.2948 43.7022C64.2832 43.687 64.2748 43.6697 64.27 43.6511C64.2653 43.6326 64.2644 43.6133 64.2673 43.5944C64.4452 42.2183 64.6646 40.8245 64.9137 39.4513C64.9216 39.4133 64.9439 39.3798 64.976 39.3577C65.008 39.3357 65.0473 39.3268 65.0857 39.333C65.1237 39.3408 65.157 39.3632 65.1786 39.3953C65.2002 39.4273 65.2084 39.4666 65.2014 39.5046C64.9553 40.8688 64.7358 42.2568 64.5579 43.6299C64.5529 43.665 64.5355 43.6971 64.5089 43.7204C64.4822 43.7438 64.4481 43.7568 64.4126 43.7572V43.7572Z" fill="black"/>
<path d="M66.5076 45.7603C66.4688 45.7603 66.4316 45.7451 66.4038 45.718C66.3761 45.6909 66.3602 45.654 66.3594 45.6153C66.3594 44.9257 66.4661 43.7687 66.561 42.7477C66.6174 42.1233 66.6678 41.5876 66.6856 41.2473C66.6855 41.2277 66.6895 41.2083 66.6974 41.1904C66.7053 41.1725 66.7169 41.1565 66.7315 41.1433C66.746 41.1302 66.7632 41.1203 66.7819 41.1142C66.8005 41.1082 66.8203 41.1061 66.8398 41.1082C66.8589 41.1093 66.8776 41.1142 66.8948 41.1226C66.912 41.1309 66.9273 41.1426 66.94 41.1569C66.9527 41.1712 66.9624 41.1878 66.9686 41.2059C66.9748 41.2239 66.9774 41.243 66.9762 41.2621C66.9614 41.6083 66.911 42.1499 66.8546 42.7743C66.7597 43.7894 66.653 44.9376 66.653 45.6153C66.653 45.6537 66.6376 45.6906 66.6104 45.7178C66.5831 45.745 66.5462 45.7603 66.5076 45.7603Z" fill="black"/>
<path d="M68.6565 47.7368C68.6179 47.7361 68.581 47.7207 68.5535 47.6937C68.5259 47.6668 68.5097 47.6303 68.5082 47.5918L68.3985 42.7C68.3977 42.6613 68.4121 42.6238 68.4387 42.5955C68.4654 42.5673 68.502 42.5506 68.5408 42.5491C68.5605 42.5479 68.5802 42.5507 68.5987 42.5575C68.6172 42.5643 68.6341 42.5748 68.6484 42.5884C68.6626 42.6021 68.6738 42.6185 68.6813 42.6367C68.6888 42.6549 68.6925 42.6744 68.692 42.6941L68.8047 47.5859C68.804 47.6247 68.7887 47.6618 68.7617 47.6898C68.7348 47.7178 68.6983 47.7346 68.6594 47.7368H68.6565Z" fill="black"/>
<path d="M70.6975 49.9C70.6594 49.8994 70.6229 49.8844 70.5954 49.858C70.5679 49.8317 70.5514 49.796 70.5492 49.758L70.3594 44.6295C70.3585 44.5909 70.3725 44.5535 70.3984 44.5248C70.4243 44.4962 70.4602 44.4786 70.4988 44.4756C70.5375 44.4761 70.5747 44.491 70.6031 44.5172C70.6316 44.5434 70.6493 44.5792 70.653 44.6176L70.8457 49.7432C70.8465 49.7819 70.8321 49.8195 70.8055 49.8477C70.7788 49.8759 70.7422 49.8926 70.7034 49.8941L70.6975 49.9Z" fill="black"/>
<path d="M72.7774 51.7324C72.7399 51.7324 72.7038 51.7179 72.6767 51.692C72.6496 51.6661 72.6336 51.6307 72.6321 51.5933L72.3711 46.8051C72.3703 46.7665 72.3842 46.7291 72.4101 46.7004C72.4361 46.6718 72.472 46.6542 72.5105 46.6512C72.53 46.6491 72.5497 46.6512 72.5684 46.6572C72.5871 46.6633 72.6042 46.6732 72.6188 46.6863C72.6333 46.6994 72.645 46.7155 72.6529 46.7334C72.6608 46.7513 72.6648 46.7707 72.6647 46.7903L72.9257 51.5755C72.9273 51.6146 72.9137 51.6528 72.8877 51.682C72.8617 51.7113 72.8253 51.7293 72.7863 51.7324H72.7774Z" fill="black"/>
<path d="M74.8366 53.4105C74.8001 53.4106 74.7648 53.3969 74.7379 53.3722C74.7109 53.3476 74.6943 53.3137 74.6913 53.2773L74.3325 48.6163C74.3294 48.5771 74.342 48.5382 74.3675 48.5082C74.3931 48.4783 74.4296 48.4597 74.4689 48.4565C74.5082 48.4534 74.5472 48.466 74.5772 48.4915C74.6073 48.517 74.6259 48.5534 74.629 48.5927L74.9908 53.2536C74.9924 53.2729 74.9902 53.2923 74.9841 53.3107C74.9781 53.3291 74.9685 53.3461 74.9558 53.3607C74.943 53.3754 74.9275 53.3873 74.9101 53.3958C74.8927 53.4044 74.8738 53.4093 74.8544 53.4105H74.8366Z" fill="black"/>
<path d="M76.786 54.925C76.7499 54.9252 76.715 54.912 76.6881 54.8879C76.6613 54.8639 76.6444 54.8307 76.6407 54.7948L76.2196 50.708C76.2154 50.6692 76.2268 50.6303 76.2512 50.5998C76.2757 50.5693 76.3112 50.5497 76.3501 50.5452C76.3888 50.5427 76.427 50.5551 76.4568 50.5799C76.4866 50.6047 76.5057 50.64 76.5102 50.6784L76.9313 54.7652C76.9333 54.7843 76.9316 54.8036 76.9261 54.822C76.9207 54.8403 76.9116 54.8574 76.8995 54.8723C76.8873 54.8872 76.8724 54.8995 76.8554 54.9085C76.8385 54.9176 76.8199 54.9232 76.8008 54.925H76.786Z" fill="black"/>
<path d="M78.6946 54.7091C78.6597 54.7094 78.6259 54.6969 78.5997 54.674C78.5735 54.6511 78.5566 54.6194 78.5522 54.5849L78.2557 52.7589C78.2497 52.7205 78.2591 52.6813 78.2818 52.6497C78.3046 52.6181 78.3389 52.5968 78.3773 52.5903C78.4156 52.585 78.4546 52.5947 78.486 52.6173C78.5175 52.6399 78.539 52.6736 78.5463 52.7116L78.8428 54.5375C78.8462 54.5566 78.8457 54.5761 78.8414 54.595C78.8371 54.6139 78.829 54.6317 78.8177 54.6475C78.8064 54.6632 78.792 54.6765 78.7754 54.6866C78.7589 54.6966 78.7404 54.7033 78.7212 54.7062L78.6946 54.7091Z" fill="black"/>
<g opacity="0.13">
<path opacity="0.13" d="M61.8872 31.5143C61.4068 31.9197 61.1814 32.5738 60.7722 33.0561C60.271 33.6809 59.7312 34.274 59.1561 34.8317C58.6757 35.2608 58.2131 35.6396 57.7416 35.9977C57.654 36.0141 57.5704 36.0473 57.4955 36.0954C55.0965 37.8266 53.2906 38.4628 50.257 39.0192C48.4859 39.4129 46.6472 39.3896 44.8867 38.9511C43.2972 38.5812 42.5292 38.1491 40.8686 37.0305C39.6424 36.1007 38.5217 35.0399 37.5266 33.867V33.867C36.751 32.7834 36.1506 31.5851 35.7474 30.3158C35.5101 29.6766 35.3292 29.0166 35.1395 28.3597C34.8979 27.7255 34.7752 27.0524 34.7777 26.3739C34.6037 25.8866 34.4436 25.3934 34.2973 24.8943C34.1551 24.8302 33.9993 24.8017 33.8436 24.8114C33.5999 26.7834 33.6099 28.7784 33.8732 30.7478C34.3062 32.4524 34.837 34.299 36.4739 36.1338C37.7935 37.5839 38.6979 38.087 39.2643 38.5546C40.5657 39.5463 42.0132 40.3309 43.5552 40.8806C44.4126 41.1053 45.2876 41.2568 46.1707 41.3334H46.1944C47.1504 41.499 48.1256 41.5229 49.0886 41.4044C49.8389 41.3113 50.5793 41.1508 51.3008 40.925C52.8286 40.5874 54.3086 40.0626 55.7073 39.3625C56.0601 39.1563 56.4007 38.93 56.7274 38.6848C58.3252 37.6936 59.7874 36.4999 61.0776 35.1336C61.3089 34.6512 61.5343 34.1659 61.7478 33.6776C62.0117 32.9437 62.2786 32.2127 62.5366 31.4788C62.4331 31.4335 62.3205 31.4131 62.2077 31.4193C62.0948 31.4254 61.9851 31.458 61.8872 31.5143V31.5143Z" fill="black"/>
</g>
<g opacity="0.13">
<path opacity="0.13" d="M65.0201 37.7644C64.2906 37.5543 63.8013 38.0603 63.4395 38.6196L63.3921 38.6788C62.7545 39.4216 62.5736 39.3565 61.5209 40.3065C61.2895 40.4169 61.0866 40.5789 60.9279 40.78C60.0383 41.866 61.3905 43.3842 62.5944 42.6769C63.4283 42.2091 64.1547 41.5719 64.7265 40.8066C65.1056 40.4081 65.4452 39.9741 65.7407 39.5104C65.829 39.3518 65.8803 39.1754 65.8909 38.9943C65.9015 38.8131 65.871 38.632 65.8018 38.4642C65.7325 38.2964 65.6263 38.1464 65.491 38.0253C65.3556 37.9041 65.1947 37.8149 65.0201 37.7644V37.7644Z" fill="black"/>
</g>
<path d="M43.8058 23.4939L41.5195 25.6187L47.7468 32.5258L54.6324 22.5232L52.0822 20.499L47.2753 27.2611L43.8058 23.4939Z" fill="#DDF3E4"/>
<path d="M47.7457 32.9666C47.6838 32.9663 47.6227 32.9533 47.566 32.9283C47.5094 32.9034 47.4585 32.8671 47.4166 32.8216L41.1893 25.9145C41.1505 25.8724 41.1203 25.8231 41.1007 25.7693C41.081 25.7155 41.0721 25.6584 41.0746 25.6013C41.0771 25.5441 41.0909 25.4879 41.1151 25.4361C41.1394 25.3842 41.1736 25.3376 41.216 25.299L43.4993 23.1712C43.5417 23.1315 43.5916 23.1006 43.6461 23.0803C43.7005 23.06 43.7585 23.0506 43.8166 23.0529C43.9299 23.0613 44.0358 23.112 44.1132 23.1949L47.2298 26.5774L51.7193 20.2622C51.7537 20.2132 51.7977 20.1716 51.8487 20.14C51.8997 20.1085 51.9566 20.0876 52.0159 20.0787C52.075 20.0713 52.1351 20.0756 52.1926 20.0913C52.2501 20.1071 52.3039 20.134 52.351 20.1705L54.9012 22.1947C54.9879 22.2641 55.0452 22.3635 55.0617 22.4732C55.0782 22.5829 55.0526 22.6948 54.9902 22.7865L48.1105 32.792C48.0721 32.8464 48.0222 32.8915 47.9642 32.9243C47.9063 32.957 47.8418 32.9765 47.7754 32.9814L47.7457 32.9666ZM42.1352 25.6482L47.6983 31.8184L54.0353 22.6149L52.1701 21.1352L47.6331 27.5185C47.5948 27.5719 47.5451 27.6161 47.4875 27.6478C47.43 27.6796 47.3661 27.6981 47.3004 27.7021C47.2348 27.706 47.1691 27.6953 47.1082 27.6708C47.0472 27.6462 46.9925 27.6083 46.9481 27.5599L43.7781 24.1182L42.1352 25.6482Z" fill="black"/>
<g opacity="0.13">
<path opacity="0.13" d="M49.3212 46.1298C48.1619 46.2242 46.9971 46.2302 45.8369 46.1475C44.0992 45.9374 41.6142 45.023 39.5918 43.8363C39.103 43.5401 38.6344 43.2119 38.1892 42.8538C37.8748 42.5756 37.5605 42.2382 37.1038 42.2619C36.8886 42.2662 36.6793 42.333 36.5016 42.4542C36.3239 42.5753 36.1854 42.7457 36.1033 42.9442C36.0211 43.1427 35.9988 43.3609 36.039 43.5719C36.0793 43.783 36.1804 43.9777 36.3299 44.1322C37.4652 45.1095 38.7368 45.917 40.1048 46.5293C42.3299 47.6262 44.7953 48.1482 47.2751 48.0474C47.9186 48.0267 48.565 48.0267 49.2055 47.9468C49.3453 47.9607 49.4863 47.9441 49.619 47.8981C49.7516 47.8521 49.8726 47.7779 49.9736 47.6805C50.0999 47.5523 50.1854 47.3898 50.2194 47.2133C50.2534 47.0367 50.2343 46.8541 50.1646 46.6884C50.0949 46.5227 49.9776 46.3812 49.8275 46.2818C49.6775 46.1824 49.5013 46.1295 49.3212 46.1298V46.1298Z" fill="black"/>
</g>
</g>
<defs>
<clipPath id="clip0_1893_2002">
<rect width="80" height="58" fill="white" transform="translate(0.59375 0.881836)"/>
</clipPath>
</defs>
</svg>
