<svg width="60" height="60" viewBox="0 0 60 60" fill="none" xmlns="http://www.w3.org/2000/svg">
<g clip-path="url(#clip0_1893_1825)">
<path d="M1.04688 29.7012C1.04688 13.0142 13.9416 0.390625 30.0004 0.390625C46.0593 0.390625 59.2086 13.0142 59.2086 29.7012C59.2086 46.3883 46.1882 59.9145 30.1294 59.9145C14.0705 59.9145 1.04688 46.3883 1.04688 29.7012Z" fill="white"/>
<path d="M40.2345 58.1686C40.1413 58.1682 40.0512 58.1348 39.9804 58.0743C39.9096 58.0137 39.8625 57.93 39.8476 57.838C39.0702 52.1913 37.7572 46.6314 35.9263 41.2336C35.027 38.5885 33.4995 34.9912 30.6858 34.3432C29.0326 33.9663 27.1282 34.7664 25.6899 36.4295C24.3112 38.0198 23.4846 40.1061 22.7936 42.1263C21.1098 47.1204 20.033 52.299 19.5864 57.5503C19.575 57.6516 19.5244 57.7444 19.4455 57.8088C19.3665 57.8733 19.2655 57.9043 19.164 57.8952C19.0625 57.8861 18.9686 57.8377 18.9023 57.7603C18.8361 57.6828 18.8027 57.5826 18.8094 57.4809C19.2635 52.167 20.3524 46.9266 22.053 41.8717C22.7704 39.7788 23.6367 37.6098 25.0981 35.9203C26.7281 34.039 28.94 33.1463 30.861 33.586C34.0549 34.32 35.7048 38.1587 36.6669 40.9856C38.5168 46.4307 39.8453 52.0392 40.6345 57.7355C40.6487 57.8376 40.6219 57.9412 40.5599 58.0235C40.498 58.1059 40.4059 58.1605 40.3039 58.1752L40.2345 58.1686Z" fill="black"/>
<path d="M24.8866 44.9497C24.8547 44.9503 24.8239 44.9384 24.8007 44.9166C24.7883 44.9049 24.7786 44.8908 24.7719 44.8751C24.7652 44.8595 24.7617 44.8427 24.7617 44.8257C24.7617 44.8087 24.7652 44.7918 24.7719 44.7762C24.7786 44.7606 24.7883 44.7465 24.8007 44.7347C26.9861 42.3013 29.2377 39.8678 31.4927 37.5005C31.5044 37.4881 31.5184 37.4782 31.534 37.4712C31.5496 37.4643 31.5664 37.4605 31.5834 37.46C31.6004 37.4595 31.6174 37.4624 31.6333 37.4685C31.6492 37.4746 31.6638 37.4838 31.6762 37.4955C31.6885 37.5073 31.6985 37.5213 31.7054 37.5369C31.7124 37.5524 31.7162 37.5692 31.7167 37.5863C31.7171 37.6033 31.7142 37.6203 31.7081 37.6362C31.702 37.6521 31.6929 37.6667 31.6811 37.679C29.4262 40.0464 27.1779 42.4765 24.9924 44.9067C24.9798 44.9221 24.9635 44.9342 24.945 44.9417C24.9265 44.9492 24.9064 44.9519 24.8866 44.9497V44.9497Z" fill="black"/>
<path d="M22.7193 52.8083C22.6891 52.8086 22.6597 52.798 22.6367 52.7785C22.6101 52.756 22.5935 52.724 22.5904 52.6893C22.5873 52.6547 22.598 52.6202 22.6201 52.5934C26.0454 48.5312 29.7145 44.6811 33.6071 41.0642C33.6318 41.0399 33.665 41.0264 33.6996 41.0264C33.7343 41.0264 33.7675 41.0399 33.7922 41.0642C33.8045 41.0759 33.8143 41.09 33.821 41.1056C33.8277 41.1213 33.8311 41.1381 33.8311 41.1551C33.8311 41.1721 33.8277 41.1889 33.821 41.2045C33.8143 41.2202 33.8045 41.2343 33.7922 41.246C29.9071 44.8571 26.2446 48.7006 22.8251 52.7554C22.8126 52.7716 22.7966 52.7848 22.7783 52.794C22.76 52.8031 22.7398 52.808 22.7193 52.8083Z" fill="black"/>
<path d="M23.1388 58.7597C23.1057 58.7583 23.0741 58.7455 23.0495 58.7233C23.0253 58.6986 23.0117 58.6653 23.0117 58.6307C23.0117 58.5961 23.0253 58.5629 23.0495 58.5381L35.0449 45.8716C35.0566 45.8592 35.0707 45.8493 35.0862 45.8423C35.1018 45.8354 35.1186 45.8316 35.1356 45.8311C35.1527 45.8306 35.1696 45.8335 35.1855 45.8396C35.2015 45.8457 35.216 45.8549 35.2284 45.8666C35.2408 45.8784 35.2507 45.8924 35.2577 45.908C35.2646 45.9235 35.2684 45.9403 35.2689 45.9573C35.2693 45.9744 35.2664 45.9914 35.2603 46.0073C35.2543 46.0232 35.2451 46.0378 35.2334 46.0501L23.238 58.7167C23.2258 58.731 23.2106 58.7423 23.1934 58.7497C23.1762 58.7572 23.1575 58.7606 23.1388 58.7597V58.7597Z" fill="black"/>
<path d="M29.5219 59.4441C29.4966 59.4432 29.4722 59.435 29.4515 59.4206C29.4307 59.4062 29.4145 59.3862 29.4048 59.3629C29.395 59.3396 29.3922 59.314 29.3965 59.2892C29.4009 59.2643 29.4122 59.2412 29.4293 59.2226C31.9289 56.7131 34.3888 54.1044 36.7495 51.4626C36.7742 51.4384 36.8075 51.4248 36.8421 51.4248C36.8767 51.4248 36.9099 51.4384 36.9347 51.4626C36.947 51.4743 36.9568 51.4885 36.9635 51.5041C36.9701 51.5197 36.9736 51.5365 36.9736 51.5535C36.9736 51.5705 36.9701 51.5874 36.9635 51.603C36.9568 51.6186 36.947 51.6327 36.9347 51.6445C34.5739 54.2895 32.1074 56.9048 29.6045 59.4143C29.5813 59.4336 29.5521 59.4442 29.5219 59.4441V59.4441Z" fill="black"/>
<g opacity="0.13">
<path opacity="0.13" d="M38.0868 22.7245C37.8403 22.4871 37.5115 22.3545 37.1693 22.3545C36.8271 22.3545 36.4982 22.4871 36.2518 22.7245C35.5905 23.5974 36.0005 23.8917 35.5145 25.2704C34.9954 27.274 32.4131 29.0727 31.4113 29.519C29.9234 30.1175 29.4275 30.1241 28.6704 30.1803C27.1825 30.2332 27.4371 30.1803 25.7938 29.8067C25.4519 29.7006 25.1251 29.5506 24.8218 29.3603C24.6913 29.2701 24.5436 29.2078 24.388 29.1772C24.2323 29.1467 24.072 29.1485 23.9171 29.1827C23.7622 29.2169 23.616 29.2826 23.4876 29.3758C23.3593 29.469 23.2515 29.5877 23.1711 29.7244C23.0906 29.8611 23.0393 30.0129 23.0201 30.1704C23.001 30.3279 23.0146 30.4876 23.0599 30.6396C23.1053 30.7916 23.1816 30.9326 23.2839 31.0538C23.3862 31.1751 23.5124 31.2739 23.6546 31.3441C28.6141 34.6967 33.4678 33.728 37.0717 28.3684C37.7885 27.1377 38.2391 25.7703 38.3943 24.3545C38.4769 23.7892 38.553 23.151 38.0868 22.7245Z" fill="black"/>
</g>
<g opacity="0.13">
<path opacity="0.13" d="M33.2875 45.2037C34.6861 50.3682 34.8779 52.8843 35.1258 58.2405C35.1589 58.4588 35.1887 58.6803 35.2217 58.9018C35.2217 58.9878 35.2217 59.077 35.2416 59.163C35.7011 59.1035 36.1607 59.0407 36.6203 58.9845C37.437 58.7927 38.247 58.5844 39.0571 58.3662L39.9795 57.9099C39.8076 56.6171 39.5266 55.3409 39.2455 54.0679C38.2338 48.5761 37.5593 42.8264 34.8117 37.8669C33.9951 36.2138 32.9404 34.4879 31.2806 33.5687C29.5051 32.7322 27.8718 35.1789 29.2968 36.5444C30.778 37.8835 30.5003 37.652 31.4426 39.4804C32.5469 41.3915 32.5469 42.3999 33.2875 45.2037Z" fill="black"/>
</g>
<path d="M29.8273 34.0317C28.6074 34.0291 27.396 33.8292 26.2399 33.4399C25.5833 33.2344 24.9613 32.9313 24.395 32.5405C23.3733 31.8065 22.6096 30.6824 22.0541 29.0986C21.7312 28.2247 21.5482 27.3052 21.5119 26.3742C21.5055 25.2293 21.7176 24.0937 22.1368 23.0282C22.8147 21.0777 24.0212 19.3538 25.6216 18.0489C27.2938 16.7043 29.4179 16.0523 31.5565 16.2271V16.2271C33.5403 16.4288 35.458 17.7546 36.8466 19.8641C37.9665 21.6661 38.5407 23.7537 38.4998 25.875C38.5156 26.6728 38.4233 27.4692 38.2254 28.2423C37.6269 30.4774 35.7853 32.4446 33.4246 33.3737C32.2772 33.8164 31.057 34.0395 29.8273 34.0317V34.0317ZM30.8192 16.971C29.1023 16.9974 27.4432 17.5954 26.1044 18.6705C24.6183 19.8846 23.4979 21.4869 22.8675 23.2993C22.4846 24.2734 22.2894 25.3111 22.2922 26.3577C22.3275 27.2075 22.496 28.0465 22.7914 28.8441C23.2907 30.2724 23.9619 31.2742 24.8479 31.909C25.3558 32.2555 25.9132 32.523 26.5011 32.7025C28.6529 33.4565 30.9999 33.439 33.1402 32.6529C35.2794 31.8131 36.9392 30.0476 37.4781 28.0472C37.6546 27.3393 37.7369 26.6111 37.7228 25.8816C37.7621 23.9094 37.228 21.9683 36.1854 20.2939C34.9389 18.3795 33.2262 17.1793 31.4838 17.0041C31.2619 16.9811 31.0389 16.9701 30.8159 16.971H30.8192Z" fill="black"/>
<path d="M30.0032 60.0004C24.0688 60.003 18.267 58.2457 13.3315 54.9506C8.39606 51.6556 4.54862 46.9709 2.27583 41.489C0.0030513 36.0072 -0.59297 29.9744 0.563156 24.1538C1.71928 18.3332 4.57562 12.9862 8.7709 8.78904C12.9662 4.59191 18.3119 1.73322 24.132 0.574525C29.9522 -0.584168 35.9852 0.00919407 41.468 2.27956C46.9509 4.54992 51.6373 8.3953 54.9345 13.3293C58.2317 18.2634 59.9916 24.0644 59.9916 29.9987C59.982 37.9504 56.8198 45.5739 51.1984 51.1978C45.5769 56.8218 37.9549 59.9873 30.0032 60.0004V60.0004ZM30.0032 0.780681C24.2236 0.780681 18.5738 2.49457 13.7683 5.7056C8.96281 8.91663 5.21744 13.4806 3.00584 18.8203C0.794245 24.16 0.215756 30.0356 1.34354 35.7041C2.47132 41.3725 5.25471 46.5793 9.34172 50.6658C13.4287 54.7524 18.6358 57.5352 24.3044 58.6623C29.973 59.7895 35.8485 59.2103 41.188 56.9981C46.5274 54.7859 51.091 51.04 54.3014 46.2341C57.5119 41.4283 59.2252 35.7783 59.2245 29.9987C59.2149 22.252 56.133 14.8254 50.655 9.34791C45.1769 3.87045 37.7499 0.789431 30.0032 0.780681V0.780681Z" fill="black"/>
<g opacity="0.13">
<path opacity="0.13" d="M17.4474 30.2163C17.4188 30.0754 17.352 29.9452 17.2543 29.8398C17.1566 29.7344 17.0318 29.6579 16.8936 29.6187C16.7554 29.5794 16.609 29.5789 16.4705 29.6173C16.332 29.6556 16.2067 29.7313 16.1084 29.836C15.7017 30.4245 15.8273 31.2214 15.6058 31.8826C15.4136 32.4283 15.1333 32.9387 14.7759 33.3936C14.6833 33.4928 14.8453 33.3474 14.9015 33.3011C14.8321 33.3606 14.7131 33.4631 14.6437 33.5292L14.5379 33.6085C13.9791 33.9689 13.4104 34.3062 12.8384 34.6434C12.3539 34.8319 11.843 34.9434 11.3241 34.9741C11.1224 34.9741 10.9207 34.9972 10.7223 34.9906H10.6727C10.0346 34.8253 9.37667 34.7559 8.74516 34.5641L8.67903 34.5409C8.3788 34.3686 8.02472 34.3155 7.68713 34.3921C7.51308 34.4598 7.36167 34.5753 7.25032 34.7252C7.13896 34.8751 7.07219 35.0534 7.05769 35.2396C7.04318 35.4257 7.08153 35.6123 7.16831 35.7776C7.2551 35.943 7.3868 36.0805 7.54827 36.1743C8.37485 36.571 9.20143 37.0372 10.1272 37.1496C11.2646 37.2852 12.4119 36.9711 13.4831 36.614C16.3729 35.8205 17.7681 32.5241 17.4474 30.2163Z" fill="black"/>
</g>
<path d="M10.4778 37.4281C9.59981 37.2423 8.75786 36.9151 7.98479 36.4594C7.29077 36.0877 6.70561 35.5415 6.287 34.8748C5.86838 34.208 5.63078 33.4437 5.59762 32.6571C5.49671 31.9746 5.50452 31.2805 5.62076 30.6005C5.7913 29.7754 6.11665 28.9901 6.5796 28.2861C7.3638 26.9843 8.4949 25.9265 9.84625 25.2311C11.2619 24.5112 12.8998 24.3621 14.4222 24.8145V24.8145C15.8373 25.2641 17.0342 26.5238 17.712 28.263C18.2477 29.7308 18.3476 31.3222 17.9997 32.8455C17.8869 33.4251 17.699 33.9875 17.4409 34.5185C17.0053 35.3115 16.3937 35.9941 15.6532 36.514C14.9127 37.0338 14.0629 37.3771 13.1691 37.5174C12.2744 37.6576 11.3612 37.6273 10.4778 37.4281V37.4281ZM13.7114 25.5253C12.5315 25.297 11.3093 25.4668 10.2364 26.0081C9.03173 26.6305 8.02423 27.5762 7.32683 28.7391C6.55375 29.8514 6.24641 31.222 6.47049 32.5579C6.48627 33.2116 6.67671 33.8491 7.02207 34.4044C7.36742 34.9596 7.85509 35.4123 8.43445 35.7154C9.81673 36.5464 11.4452 36.8702 13.0402 36.6313C13.7991 36.5173 14.5216 36.2305 15.1522 35.7931C15.7828 35.3557 16.3045 34.7794 16.6771 34.1086C16.9016 33.6482 17.0639 33.1601 17.1599 32.6571C17.471 31.3004 17.3849 29.8828 16.9119 28.5738C16.6375 27.8662 15.8241 26.1701 14.1775 25.6444C14.0215 25.5955 13.8625 25.5569 13.7014 25.5286L13.7114 25.5253Z" fill="black"/>
<path d="M11.0056 37.7612C9.95415 37.2752 8.54565 37.5496 7.32892 38.4721C6.11219 39.3945 5.25916 40.7104 4.47886 42.0198C4.27056 42.3669 4.06887 42.7207 3.86719 43.0778C6.10475 47.7123 9.5959 51.6272 13.9449 54.3788C14.1471 50.6813 14.0287 46.9731 13.5911 43.296C13.3696 41.3122 12.824 38.601 11.0056 37.7612Z" fill="#F9F5F1"/>
<path d="M11.388 36.9618C10.039 36.3402 8.28669 36.6476 6.80876 37.7718C5.48623 38.7637 4.55715 40.1821 3.73387 41.5675C3.62807 41.7427 3.52888 41.9213 3.42969 42.0965C3.52226 42.3114 3.61484 42.5296 3.71403 42.7578C4.06781 42.1494 4.43151 41.5476 4.81174 40.9591C5.53252 39.8482 6.31942 38.7406 7.41382 37.9834C8.50821 37.2263 9.97292 36.9122 11.1764 37.4676C12.9718 38.2942 13.4644 40.5789 13.6628 42.5461C14.0673 46.4823 14.1845 50.4428 14.0133 54.396C14.2745 54.5614 14.5456 54.7267 14.8134 54.8722C15.0529 50.9697 14.9423 47.0537 14.4828 43.171C14.205 40.9988 13.5967 37.9867 11.388 36.9618Z" fill="black"/>
<path d="M4.48011 42.0202C5.26041 40.6977 6.13328 39.3751 7.33017 38.4725C8.52706 37.5699 9.9554 37.2756 11.0068 37.7616C12.8253 38.6014 13.3543 41.3126 13.5924 43.2799C14.0309 46.9625 14.1493 50.6762 13.9461 54.3793L14.0024 54.4123C14.1736 50.4591 14.0564 46.4986 13.6519 42.5624C13.4535 40.5952 12.9609 38.3105 11.1655 37.4839C9.96201 36.9284 8.49731 37.2558 7.40291 37.9997C6.30851 38.7436 5.52161 39.8512 4.80083 40.9754C4.4206 41.5639 4.0569 42.1657 3.70312 42.774C3.75603 42.8865 3.81554 42.9956 3.86844 43.1047C4.07013 42.7211 4.27182 42.3674 4.48011 42.0202Z" fill="black"/>
<g opacity="0.13">
<path opacity="0.13" d="M42.5209 30.2162C42.5492 30.0747 42.6159 29.9438 42.7138 29.8378C42.8117 29.7318 42.937 29.6549 43.0758 29.6156C43.2147 29.5763 43.3617 29.576 43.5006 29.6149C43.6396 29.6538 43.7651 29.7303 43.8633 29.836C44.27 30.4245 44.1443 31.2214 44.3626 31.8826C44.5557 32.4285 44.8372 32.939 45.1958 33.3936C45.2883 33.4928 45.1263 33.3473 45.0701 33.301L45.328 33.5292L45.4338 33.6085C45.9893 33.9689 46.5613 34.3062 47.13 34.6434C47.6156 34.8319 48.1276 34.9434 48.6476 34.9741C48.8459 34.9741 49.0476 34.9972 49.2493 34.9906H49.2989C49.937 34.8253 50.595 34.7558 51.2265 34.5641L51.2893 34.5409C51.5897 34.3689 51.9436 34.3158 52.2812 34.3921C52.4553 34.4598 52.6067 34.5752 52.718 34.7252C52.8294 34.8751 52.8962 35.0534 52.9107 35.2396C52.9252 35.4257 52.8868 35.6122 52.8 35.7776C52.7133 35.9429 52.5816 36.0804 52.4201 36.1743C51.5968 36.571 50.7669 37.0372 49.8411 37.1496C48.7038 37.2852 47.5565 36.9711 46.4852 36.614C43.5955 35.8205 42.2035 32.5241 42.5209 30.2162Z" fill="black"/>
</g>
<path d="M46.7963 37.5165C45.9034 37.3774 45.0542 37.0354 44.3142 36.5166C43.5742 35.9979 42.9631 35.3163 42.5278 34.5243C42.2683 33.9939 42.0804 33.4313 41.9691 32.8513C41.6211 31.328 41.721 29.7366 42.2567 28.2687C42.9345 26.5296 44.1314 25.2699 45.5432 24.8202C47.0667 24.368 48.7056 24.5171 50.1225 25.2368C51.4732 25.9331 52.6041 26.9907 53.3891 28.2919C53.8508 28.9966 54.176 29.7816 54.348 30.6063C54.4625 31.2865 54.4703 31.9803 54.3711 32.6628C54.2845 33.7167 53.872 34.7174 53.1908 35.5261C52.8364 35.8977 52.4285 36.2141 51.9806 36.4651C51.209 36.9213 50.368 37.2486 49.491 37.4339C48.606 37.6308 47.6917 37.6589 46.7963 37.5165ZM45.8044 25.66C44.1512 26.1857 43.3478 27.8819 43.0734 28.5894C42.597 29.8978 42.5108 31.3164 42.8254 32.6728C42.9214 33.1758 43.0837 33.6639 43.3081 34.1242C43.6804 34.7954 44.202 35.372 44.8326 35.8094C45.4633 36.2469 46.186 36.5334 46.9451 36.647C48.5366 36.877 50.1587 36.5474 51.5343 35.7146C52.1137 35.4118 52.6013 34.9592 52.9461 34.4038C53.291 33.8484 53.4805 33.2106 53.4949 32.557C53.5847 31.9671 53.5792 31.3665 53.4784 30.7782C53.3288 30.0578 53.0438 29.3723 52.6386 28.7581C51.9457 27.5909 50.9417 26.6395 49.7389 26.0105C48.6649 25.469 47.4416 25.2992 46.2607 25.5278C46.1088 25.5579 45.9586 25.5966 45.811 25.6435L45.8044 25.66Z" fill="black"/>
<path d="M48.9631 37.7612C50.0112 37.2752 51.4197 37.5496 52.6364 38.4721C53.8532 39.3945 54.7095 40.7104 55.4898 42.0198C55.6981 42.3669 55.8998 42.7207 56.0982 43.0778C53.8627 47.7137 50.3711 51.6291 46.0204 54.3788C45.8193 50.6812 45.9388 46.973 46.3775 43.296C46.6156 41.3122 47.1446 38.601 48.9631 37.7612Z" fill="#F9F5F1"/>
<path d="M48.5924 36.9618C49.9381 36.3402 51.6937 36.6476 53.1717 37.7718C54.4777 38.7637 55.42 40.1821 56.2465 41.5675L56.5507 42.0965C56.4548 42.3114 56.3656 42.5296 56.2631 42.7578C55.9093 42.1494 55.5489 41.5476 55.1654 40.9591C54.4479 39.8482 53.6577 38.7406 52.5633 37.9834C51.4689 37.2263 50.0042 36.9122 48.804 37.4676C47.0054 38.2942 46.516 40.5789 46.3143 42.5461C45.9109 46.4824 45.7948 50.4429 45.9672 54.396C45.7027 54.5614 45.4348 54.7267 45.167 54.8722C44.9258 50.9698 45.0365 47.0536 45.4977 43.171C45.7721 40.9988 46.3738 37.9867 48.5924 36.9618Z" fill="black"/>
<path d="M55.4901 42.0202C54.7098 40.6977 53.837 39.3751 52.6368 38.4725C51.4366 37.5699 50.0115 37.2756 48.9634 37.7616C47.1449 38.6014 46.6159 41.3126 46.3779 43.2799C45.9382 46.9624 45.8187 50.6761 46.0208 54.3793L45.9679 54.4123C45.7956 50.4592 45.9116 46.4987 46.3151 42.5624C46.5167 40.5952 47.0061 38.3105 48.8047 37.4839C50.0049 36.9284 51.4729 37.2558 52.564 37.9997C53.6551 38.7436 54.4486 39.8512 55.1661 40.9754C55.5496 41.5639 55.91 42.1657 56.2638 42.774C56.2109 42.8865 56.1547 42.9956 56.0985 43.1047C55.9001 42.7211 55.6918 42.3674 55.4901 42.0202Z" fill="black"/>
</g>
<defs>
<clipPath id="clip0_1893_1825">
<rect width="60" height="60" fill="white"/>
</clipPath>
</defs>
</svg>
