<?xml version="1.0" encoding="utf-8"?>
<!-- Generator: Adobe Illustrator 25.2.1, SVG Export Plug-In . SVG Version: 6.00 Build 0)  -->
<svg version="1.1" id="Lag_1" xmlns="http://www.w3.org/2000/svg" xmlns:xlink="http://www.w3.org/1999/xlink" x="0px" y="0px"
	 viewBox="0 0 15.3 15" style="enable-background:new 0 0 15.3 15;" xml:space="preserve">
<style type="text/css">
	.st0{clip-path:url(#SVGID_2_);}
	.st1{fill:#2766F1;}
	.st2{fill:#FFFFFF;}
</style>
<g>
	<defs>
		<rect id="SVGID_1_" x="0.1" width="15" height="15"/>
	</defs>
	<clipPath id="SVGID_2_">
		<use xlink:href="#SVGID_1_"  style="overflow:visible;"/>
	</clipPath>
	<g class="st0">
		<path class="st1" d="M7.6,15c4.1,0,7.5-3.4,7.5-7.5c0-4.1-3.4-7.5-7.5-7.5C3.4,0,0.1,3.4,0.1,7.5C0.1,11.6,3.4,15,7.6,15z"/>
		<path class="st2" d="M6.4,11c-0.2,0-0.4-0.1-0.5-0.2L4.3,9C4.2,9,4.2,8.9,4.1,8.8c0-0.1-0.1-0.2-0.1-0.3c0-0.1,0-0.2,0.1-0.3
			c0-0.1,0.1-0.2,0.2-0.3c0.1-0.1,0.3-0.2,0.5-0.2c0.1,0,0.2,0,0.3,0.1c0.1,0,0.2,0.1,0.2,0.2l1.1,1.2l3.5-3.9
			c0.1-0.1,0.1-0.1,0.2-0.2C10.2,5,10.3,5,10.4,5s0.2,0,0.3,0.1c0.1,0,0.2,0.1,0.2,0.2C10.9,5.3,11,5.4,11,5.5
			c0,0.1,0.1,0.2,0.1,0.3c0,0.1,0,0.2-0.1,0.3c0,0.1-0.1,0.2-0.2,0.3l-4,4.4C6.7,10.9,6.5,11,6.4,11L6.4,11z"/>
	</g>
</g>
</svg>
