<svg width="33" height="26" viewBox="0 0 33 26" fill="none" xmlns="http://www.w3.org/2000/svg">
<path d="M31.8077 4.79682C28.6125 5.39523 28.4106 4.95468 25.1873 5.17573C21.9671 5.43788 18.7291 5.03495 15.4934 5.09003C12.2537 5.0898 9.01113 5.05219 5.75575 4.84218C2.50341 4.67403 3.60251 4.56062 0.321677 4.00873C0.321677 4.00873 -0.97619 2.72634 2.24712 2.50575C5.4674 2.24434 12.0367 2.17829 15.2727 2.12686C18.5126 2.13081 21.7552 2.16845 25.0107 2.37935C28.263 2.5488 33.4481 3.21616 31.8077 4.79682Z" fill="white"/>
<path d="M31.8077 13.7226C28.6125 14.321 28.4106 13.8805 25.1873 14.1015C21.9671 14.3637 18.7291 13.9607 15.4934 14.0158C12.2537 14.0156 9.01113 13.978 5.75575 13.768C2.50341 13.5998 3.60251 13.4864 0.321677 12.9345C0.321677 12.9345 -0.97619 11.6521 2.24712 11.4315C5.4674 11.1701 12.0367 11.1041 15.2727 11.0526C18.5126 11.0566 21.7552 11.0942 25.0107 11.3051C28.263 11.4746 33.4481 12.1419 31.8077 13.7226Z" fill="white"/>
<path d="M31.9419 22.6063C30.0696 23.264 29.8956 22.8315 27.9622 23.1157C26.0355 23.4406 24.0205 23.1067 22.0603 23.2267C20.0911 23.292 18.1159 23.3202 16.1129 23.1779C14.1165 23.077 14.7713 22.9424 12.7129 22.4617C12.7129 22.4617 11.7746 21.2169 13.7081 20.9331C15.6349 20.6089 19.62 20.4107 21.5808 20.2943C23.5506 20.2327 25.5258 20.2045 27.5291 20.3477C29.5256 20.4499 32.7548 21.0066 31.9419 22.6063Z" fill="white"/>
</svg>
