<svg width="68" height="64" viewBox="0 0 68 64" fill="none" xmlns="http://www.w3.org/2000/svg">
<g clip-path="url(#clip0_1893_1850)">
<path d="M0.613281 54.1763C5.40499 46.995 9.81398 39.5519 13.8208 31.8797C14.1125 31.9716 14.3976 32.0841 14.6742 32.2164C14.6523 32.104 14.6523 31.9883 14.6742 31.876C14.8939 31.1031 15.1983 30.3583 15.5816 29.6559C15.7616 29.3229 16.1109 28.9529 16.4349 29.1342C17.3908 26.99 17.7018 24.6013 17.3279 22.2743C17.2464 20.6168 17.3333 18.9552 17.5872 17.3162C17.9434 14.6923 18.5624 12.1133 19.4343 9.6201C19.7255 8.61288 20.2159 7.67824 20.8746 6.87465C21.1691 6.52559 21.5536 6.26908 21.9837 6.13464C22.1984 6.07113 22.4254 6.06462 22.6433 6.11574C22.8612 6.16687 23.0629 6.27393 23.2295 6.42694C23.6724 6.87835 23.6436 7.61466 23.5896 8.25477C23.496 9.24269 23.3988 10.2306 23.3159 11.237C23.7792 11.5848 24.2293 11.9548 24.6662 12.347C24.9529 12.5869 25.2105 12.8615 25.4332 13.1648C25.7151 12.7452 25.9666 12.305 26.1857 11.8475C25.3388 10.2416 24.6268 8.56435 24.0577 6.83395C23.9023 6.41555 23.803 5.9774 23.7624 5.53152C23.7382 5.28044 23.7715 5.02701 23.8597 4.79151C23.9028 4.67522 23.968 4.5689 24.0514 4.4787C24.1349 4.38851 24.2349 4.31625 24.3458 4.2661C24.6319 4.17628 24.9409 4.20552 25.2063 4.3475C26.1389 4.75821 26.7294 5.69433 27.266 6.56754C27.626 7.15955 27.9861 7.74786 28.321 8.32507C28.4579 8.13471 28.5727 7.92858 28.663 7.71086C28.8276 7.39381 29.0218 7.09393 29.2428 6.81545C28.8803 6.05817 28.5442 5.28732 28.2346 4.50291C27.9694 3.88835 27.7807 3.24192 27.6728 2.57887C27.6208 2.36269 27.6232 2.13644 27.6799 1.92149C27.7366 1.70655 27.8457 1.51001 27.9969 1.35045C28.1242 1.26129 28.2705 1.20499 28.4234 1.18631C28.5764 1.16763 28.7314 1.18713 28.8755 1.24315C29.1622 1.35903 29.4249 1.52979 29.6497 1.74636C30.2909 2.3213 30.8638 2.97209 31.3564 3.6852C31.6632 2.93098 32.0972 2.23831 32.6383 1.63906C32.7484 1.51095 32.8771 1.40112 33.0199 1.31345C33.1506 1.24056 33.299 1.20806 33.4472 1.21988C33.5954 1.2317 33.7372 1.28732 33.8553 1.38005C33.9322 1.21919 34.0588 1.08907 34.2154 1.01005C34.3241 0.993719 34.4349 1.00216 34.5401 1.03477C34.6453 1.06739 34.7422 1.12337 34.8239 1.19875C35.6107 1.84954 36.2914 2.62521 36.8403 3.49649L38.0538 2.04606C38.2525 1.77386 38.4963 1.53966 38.7739 1.35415C38.9051 1.25474 39.0604 1.19444 39.2228 1.1799C39.3852 1.16536 39.5483 1.19713 39.6942 1.27173C39.8401 1.34632 39.9632 1.46084 40.0499 1.60268C40.1366 1.74453 40.1834 1.9082 40.1854 2.07567C40.2021 2.39647 40.1606 2.71768 40.063 3.02288C39.7214 4.28767 39.219 5.50065 38.5687 6.63044C38.9621 7.17394 39.3159 7.74654 39.6273 8.34357C40.2418 7.42103 40.8588 6.49848 41.4781 5.57593C41.8598 5.00612 42.3135 4.3845 42.9796 4.2698C43.216 4.22159 43.4613 4.2623 43.6709 4.38451C43.8153 4.48832 43.9335 4.6261 44.0155 4.78637C44.0976 4.94663 44.1412 5.12473 44.1426 5.30582C44.1419 5.66654 44.081 6.02446 43.9626 6.36404C43.4138 8.1911 42.6636 9.94771 41.7265 11.5996C41.7085 11.6329 41.6905 11.6773 41.7265 11.7032C41.7625 11.7291 41.8022 11.6662 41.7517 11.681C42.0794 12.1678 42.3742 12.6772 42.6339 13.2055C42.8682 12.7823 43.1859 12.414 43.5666 12.1241C43.9472 11.8342 44.3826 11.6291 44.8448 11.5219C44.6601 10.4348 44.5506 9.3356 44.5171 8.23257C44.4919 7.47036 44.5999 6.54534 45.2697 6.21604C45.4802 6.13151 45.7082 6.10312 45.9324 6.13353C46.1565 6.16394 46.3695 6.25215 46.5515 6.38994C46.9135 6.66949 47.2161 7.02203 47.4409 7.42596C48.8167 9.71887 49.7233 12.2758 50.1055 14.9408C50.4883 17.6067 50.6366 20.3026 50.5484 22.9958C50.5123 25.0605 50.4547 27.2435 51.5386 29.0343C51.5952 28.9685 51.6712 28.9234 51.7551 28.9061C51.8389 28.8887 51.926 28.9 52.0031 28.9381C52.1582 29.0191 52.2843 29.1487 52.3631 29.3081C52.4596 29.4761 52.5427 29.6518 52.6116 29.8335C52.9474 30.5922 53.2255 31.3765 53.4433 32.1794C48.7779 34.5282 44.3275 37.3033 40.1458 40.4712C40.2329 40.0312 40.2228 39.5767 40.1162 39.1413C40.0097 38.7058 39.8094 38.3005 39.5301 37.9552C39.2768 37.704 39.0543 37.4219 38.8675 37.1153C38.7778 36.951 38.7524 36.7576 38.7965 36.5748C38.8407 36.3919 38.9511 36.2332 39.1052 36.131C37.917 33.5669 35.9041 31.5208 33.7761 29.6707C31.8389 31.4812 30.2753 33.6731 29.178 36.1162C29.1019 37.2766 28.6638 38.3809 27.9285 39.265C27.7701 39.4574 27.5864 39.7164 27.7161 39.931C27.7845 40.042 27.9213 40.1012 27.9573 40.2233C27.9729 40.3264 27.9511 40.4317 27.8961 40.5193C25.4512 45.5107 22.1349 49.9952 19.654 54.9755C18.8222 56.6553 18.0877 58.3906 17.2343 60.0594C16.5966 61.3282 15.8621 62.5431 15.0378 63.6928C11.7972 62.6716 8.84097 60.8364 5.95678 58.9789C4.00158 57.7209 2.01757 56.3963 0.613281 54.1763Z" fill="white"/>
<path d="M16.4553 29.3493C16.3768 29.3494 16.3002 29.3249 16.2356 29.279C16.1927 29.2493 16.1559 29.2111 16.1274 29.1666C16.0988 29.1222 16.0792 29.0724 16.0695 29.0202C16.0597 28.9679 16.0602 28.9141 16.0708 28.862C16.0814 28.8099 16.1019 28.7605 16.1312 28.7166C17.125 27.2366 17.0674 25.2385 17.0098 23.3219L16.9918 22.7928C16.9055 19.352 17.2688 15.9148 18.072 12.5732C18.4591 10.7481 19.1083 8.99227 19.9984 7.36353C20.7186 6.09071 21.7124 5.495 22.6269 5.7651C23.646 6.07221 24.1213 7.28583 23.898 9.01376C23.8332 9.49847 23.7612 9.98317 23.6892 10.4679C23.6496 10.7269 23.6135 10.9859 23.5739 11.2449C23.5669 11.2973 23.5498 11.3477 23.5237 11.3932C23.4975 11.4387 23.4628 11.4785 23.4217 11.5101C23.3805 11.5418 23.3336 11.5647 23.2837 11.5776C23.2338 11.5905 23.1819 11.5931 23.131 11.5853C23.0276 11.5697 22.9343 11.5128 22.8716 11.4268C22.8089 11.3409 22.7818 11.2329 22.7962 11.1265C22.8358 10.8675 22.8718 10.6085 22.9114 10.3458C22.9834 9.86478 23.0554 9.38377 23.1166 8.90646C23.1599 8.56236 23.3363 6.81962 22.3965 6.54211C21.7556 6.34971 21.0786 7.05272 20.6645 7.77424C19.816 9.33615 19.196 11.018 18.8246 12.7656C18.0413 16.0325 17.6877 19.3924 17.7731 22.7558V23.2812C17.8344 25.331 17.8992 27.4475 16.7577 29.1569C16.7256 29.2112 16.6815 29.2569 16.6289 29.2903C16.5764 29.3238 16.5169 29.344 16.4553 29.3493V29.3493Z" fill="black"/>
<path d="M34.0207 8.00671C33.9379 8.00596 33.8574 7.9788 33.7903 7.929C33.7062 7.86541 33.6499 7.77025 33.6337 7.66423C33.6175 7.55821 33.6427 7.4499 33.7039 7.36289L34.3196 6.49708C34.3812 6.41072 34.4736 6.35305 34.5766 6.33674C34.6796 6.32044 34.7847 6.34683 34.8687 6.41013C34.9527 6.47342 35.0089 6.56843 35.0247 6.67425C35.0406 6.78007 35.0149 6.88803 34.9533 6.97439L34.3412 7.8402C34.3039 7.89151 34.2556 7.93324 34.2 7.96213C34.1444 7.99102 34.083 8.00628 34.0207 8.00671V8.00671Z" fill="black"/>
<path d="M38.6647 7.14875C38.6049 7.14805 38.546 7.13417 38.4919 7.10805C38.3982 7.06096 38.3264 6.97783 38.2921 6.8767C38.2577 6.77557 38.2635 6.6646 38.3082 6.56784C38.851 5.45086 39.3319 4.30325 39.7485 3.13048C39.9502 2.55327 40.0474 1.80215 39.6549 1.58755C39.2624 1.37295 38.7187 1.85765 38.3226 2.37936C37.9265 2.90107 37.5449 3.41168 37.1596 3.93339C37.1284 3.97567 37.0894 4.01121 37.0448 4.03799C37.0002 4.06477 36.951 4.08228 36.8998 4.08949C36.8486 4.09671 36.7966 4.0935 36.7467 4.08004C36.6967 4.06659 36.6498 4.04316 36.6087 4.01109C36.5675 3.97902 36.533 3.93894 36.5069 3.89314C36.4808 3.84733 36.4638 3.7967 36.4568 3.74413C36.4498 3.69157 36.4529 3.63809 36.466 3.58676C36.4791 3.53543 36.5019 3.48726 36.5331 3.44498C36.9171 2.91957 37.306 2.3991 37.6997 1.88356C38.4811 0.858638 39.3272 0.488633 40.0294 0.87344C40.7315 1.25825 40.9044 2.20546 40.4903 3.40058C40.0652 4.60034 39.576 5.77505 39.0248 6.91934C38.9921 6.98869 38.9408 7.04706 38.8771 7.08767C38.8134 7.12828 38.7397 7.14947 38.6647 7.14875V7.14875Z" fill="black"/>
<path d="M42.8619 13.3938C42.7666 13.3933 42.6747 13.3579 42.6026 13.2939C42.5638 13.2589 42.532 13.2165 42.5092 13.1689C42.4864 13.1213 42.4729 13.0696 42.4696 13.0167C42.4662 12.9637 42.4731 12.9106 42.4897 12.8604C42.5064 12.8102 42.5325 12.7639 42.5666 12.7241C43.1643 12.0174 43.8161 11.2959 44.6514 10.9407C44.7445 10.9113 44.8448 10.9185 44.933 10.9608C45.0212 11.0032 45.0909 11.0778 45.1286 11.17C45.1663 11.2622 45.1693 11.3655 45.137 11.4599C45.1047 11.5543 45.0395 11.633 44.9539 11.6807C44.2769 11.973 43.6972 12.6168 43.1535 13.2532C43.1173 13.2965 43.0726 13.3314 43.0224 13.3557C42.9721 13.3799 42.9174 13.3929 42.8619 13.3938V13.3938Z" fill="black"/>
<path d="M31.2924 4.04389C31.2173 4.04309 31.1439 4.02135 31.0799 3.98099C31.0363 3.95242 30.9986 3.91528 30.969 3.87169C30.9394 3.82811 30.9185 3.77894 30.9075 3.72702C30.8964 3.6751 30.8955 3.62145 30.9047 3.56915C30.9139 3.51685 30.9331 3.46694 30.9611 3.42228L31.8433 1.98666C32.5346 0.876636 33.3772 0.432629 34.101 0.813736C34.193 0.863432 34.2623 0.948319 34.294 1.05008C34.3256 1.15183 34.3171 1.2623 34.2702 1.35765C34.2466 1.40482 34.2142 1.44675 34.1748 1.48104C34.1354 1.51532 34.0898 1.54128 34.0406 1.55744C33.9915 1.57359 33.9397 1.57962 33.8882 1.57517C33.8368 1.57073 33.7867 1.55591 33.7409 1.53155C33.334 1.31695 32.7759 1.98665 32.5094 2.41956L31.6236 3.85519C31.5884 3.91281 31.5395 3.96033 31.4816 3.99332C31.4237 4.02631 31.3586 4.04371 31.2924 4.04389Z" fill="black"/>
<path d="M33.3796 7.02985C33.3355 7.02971 33.2917 7.02222 33.25 7.00765C33.1515 6.97233 33.0705 6.89851 33.0247 6.80221C32.9788 6.70591 32.9718 6.59492 33.0051 6.49334C33.232 5.81993 33.4336 5.13171 33.6029 4.4435C33.6156 4.39199 33.6381 4.34358 33.6691 4.30102C33.7001 4.25845 33.7389 4.22258 33.7834 4.19543C33.8279 4.16829 33.8771 4.15041 33.9283 4.14282C33.9795 4.13523 34.0316 4.13808 34.0818 4.1512C34.1319 4.16432 34.179 4.18745 34.2204 4.21928C34.2618 4.25111 34.2967 4.29102 34.3232 4.33671C34.3496 4.38241 34.367 4.43301 34.3744 4.48561C34.3817 4.53822 34.379 4.5918 34.3662 4.64331C34.1898 5.35372 33.9809 6.06413 33.7505 6.75604C33.7237 6.83543 33.6737 6.90437 33.6073 6.9534C33.5409 7.00242 33.4614 7.02913 33.3796 7.02985Z" fill="black"/>
<path d="M25.4291 13.5464C25.354 13.5456 25.2806 13.5239 25.2167 13.4835C25.173 13.4549 25.1354 13.4178 25.1058 13.3742C25.0762 13.3306 25.0553 13.2815 25.0442 13.2295C25.0332 13.1776 25.0322 13.124 25.0414 13.0717C25.0506 13.0194 25.0698 12.9695 25.0978 12.9248C25.2527 12.6732 25.3751 12.466 25.5011 12.2588C25.6271 12.0516 25.7532 11.8407 25.9116 11.5854C25.9393 11.5407 25.9752 11.502 26.0174 11.4716C26.0596 11.4412 26.1073 11.4196 26.1576 11.4081C26.2079 11.3966 26.2599 11.3954 26.3107 11.4045C26.3615 11.4137 26.41 11.433 26.4535 11.4614C26.497 11.4899 26.5346 11.5268 26.5642 11.5702C26.5938 11.6135 26.6149 11.6625 26.6261 11.7142C26.6373 11.7659 26.6384 11.8194 26.6295 11.8715C26.6206 11.9237 26.6018 11.9736 26.5741 12.0183C26.4193 12.2699 26.2933 12.4771 26.1709 12.6843C26.0484 12.8915 25.9188 13.1024 25.7604 13.3577C25.7251 13.4153 25.6763 13.4628 25.6184 13.4958C25.5604 13.5288 25.4953 13.5462 25.4291 13.5464V13.5464Z" fill="black"/>
<path d="M28.3664 8.78071C28.2958 8.78094 28.2264 8.7616 28.1656 8.72471C28.1048 8.68782 28.0548 8.63476 28.0209 8.57112C27.987 8.50748 27.9704 8.43562 27.9729 8.36311C27.9754 8.29059 27.9969 8.22011 28.0351 8.1591L28.4996 7.40059L28.9533 6.66058C28.981 6.61587 29.0169 6.57721 29.0591 6.54679C29.1013 6.51636 29.149 6.49478 29.1993 6.48327C29.2496 6.47176 29.3016 6.47055 29.3524 6.4797C29.4032 6.48886 29.4517 6.5082 29.4952 6.53662C29.5387 6.56505 29.5764 6.602 29.606 6.64537C29.6356 6.68874 29.6566 6.73767 29.6678 6.78938C29.679 6.84109 29.6801 6.89457 29.6712 6.94674C29.6623 6.99892 29.6435 7.04878 29.6158 7.09348L29.1658 7.8335C29.0217 8.0703 28.8777 8.3071 28.6977 8.59571C28.662 8.65264 28.613 8.69943 28.5551 8.73176C28.4972 8.76409 28.4323 8.78093 28.3664 8.78071V8.78071Z" fill="black"/>
<path d="M41.7614 12.2098C41.7017 12.2086 41.6428 12.1948 41.5886 12.1691C41.495 12.122 41.4232 12.0389 41.3888 11.9377C41.3544 11.8366 41.3602 11.7256 41.405 11.6289C42.2331 9.86394 42.9857 8.03611 43.6446 6.19718C43.7994 5.76427 44.0047 4.99466 43.6446 4.71715C43.523 4.64854 43.3851 4.61601 43.2465 4.62319C43.1079 4.63038 42.974 4.677 42.8597 4.75785C42.5497 4.98647 42.2866 5.27566 42.0855 5.60887C41.4014 6.57829 40.7136 7.5699 40.0367 8.56892C39.9765 8.65675 39.8849 8.71642 39.7819 8.73481C39.6789 8.75319 39.573 8.72879 39.4876 8.66697C39.4021 8.60515 39.344 8.51096 39.3261 8.40515C39.3082 8.29933 39.332 8.19054 39.3921 8.10271C40.0727 7.11479 40.7604 6.12317 41.4482 5.14266C41.7099 4.71837 42.0529 4.35328 42.4564 4.06964C42.7035 3.9013 42.9934 3.81152 43.2899 3.81152C43.5864 3.81152 43.8764 3.9013 44.1235 4.06964C44.5232 4.38785 44.8977 5.06126 44.3864 6.48208C43.7202 8.33212 42.9461 10.1821 42.1179 11.9878C42.0844 12.0552 42.0334 12.1116 41.9704 12.1509C41.9074 12.1901 41.8351 12.2105 41.7614 12.2098V12.2098Z" fill="black"/>
<path d="M29.0699 36.3638C28.9975 36.3643 28.9263 36.3438 28.8647 36.3046C28.776 36.2487 28.7122 36.1591 28.6873 36.0552C28.6624 35.9514 28.6782 35.8416 28.7315 35.7496C30.1688 33.3687 31.8217 31.1326 33.6681 29.071C33.7023 29.0314 33.7439 28.9991 33.7903 28.976C33.8367 28.9528 33.8871 28.9393 33.9386 28.9362C33.9901 28.9331 34.0417 28.9405 34.0904 28.9579C34.1392 28.9753 34.1841 29.0025 34.2226 29.0377C34.3007 29.1095 34.348 29.2101 34.3541 29.3176C34.3601 29.4251 34.3245 29.5307 34.255 29.6112C32.4409 31.6349 30.817 33.8302 29.4048 36.1677C29.3704 36.2275 29.3214 36.277 29.2627 36.3114C29.204 36.3458 29.1375 36.3639 29.0699 36.3638V36.3638Z" fill="black"/>
<path d="M52.8215 63.5524C48.7215 55.7625 44.4906 48.0467 40.1289 40.4048C44.5153 37.2033 49.2116 34.4754 54.143 32.2646C58.3054 40.0052 62.8064 47.5533 67.6602 54.7869C65.4277 56.9182 62.3239 57.71 59.5909 59.0864C57.2108 60.2815 55.0864 61.9429 52.8215 63.5524Z" fill="#ACD4F7"/>
<g opacity="0.13">
<path opacity="0.13" d="M50.4763 16.9947C50.5583 17.0815 50.6596 17.1463 50.7716 17.1834C50.7284 16.8134 50.6924 16.4434 50.6564 16.0734C50.5879 15.3963 50.5483 14.7155 50.5195 14.0347C50.4655 13.7942 50.4079 13.55 50.3503 13.2947C49.8138 11.7739 49.3529 10.2236 48.9316 8.66219C48.6916 8.13431 48.4515 7.60767 48.2115 7.08226C48.0887 6.84904 47.9103 6.6517 47.693 6.50875C47.6078 6.47529 47.5156 6.46485 47.4254 6.47845C47.3352 6.49204 47.2498 6.5292 47.1776 6.58638C47.1053 6.64356 47.0485 6.71883 47.0127 6.80501C46.9768 6.89118 46.9631 6.98537 46.9728 7.07856C46.9112 7.1578 46.8747 7.25457 46.8682 7.3558C46.8618 7.45703 46.8857 7.55786 46.9368 7.64467C47.4913 8.65479 47.747 9.676 48.0746 11.0376C48.3727 12.1867 48.5809 13.3584 48.6976 14.5416C48.8462 15.731 48.9316 16.9279 48.9532 18.127C49.0144 19.977 48.9892 21.8048 48.8956 23.6437C48.6688 25.4716 48.7624 27.3956 49.6374 29.0458C49.7312 29.2155 49.8359 29.3787 49.9506 29.5342L49.8822 29.438C49.9369 29.537 50.0103 29.6236 50.0981 29.6929C50.1859 29.7622 50.2864 29.8127 50.3935 29.8413C50.4663 29.8611 50.5415 29.8698 50.6168 29.8673C50.6168 29.8969 50.642 29.9265 50.66 29.9561C51.1 30.8924 51.6502 31.7697 52.2983 32.5683C52.3985 32.6564 52.5265 32.7037 52.6584 32.7015C52.5195 32.8069 52.4245 32.9623 52.3925 33.1365C52.3604 33.3108 52.3936 33.4912 52.4855 33.6413C53.2813 35.2915 54.3111 36.8049 55.2401 38.3774C55.9603 39.7427 56.8136 41.0155 57.5842 42.3439C58.1459 43.3059 58.812 44.1939 59.435 45.1152C59.9715 45.9884 60.4396 46.8986 61.0049 47.7534C61.1633 48.0235 61.329 48.2899 61.4946 48.5563C62.0031 49.5633 62.562 50.5427 63.1689 51.4904C63.439 51.9307 63.7054 52.3784 64.0007 52.8039C64.1087 53.0925 64.314 53.3627 64.44 53.6291C64.6637 54.0151 64.9115 54.3859 65.1818 54.7391C65.2571 54.9444 65.3473 55.1435 65.4518 55.3348C65.5524 55.4939 65.6736 55.6383 65.8119 55.764C65.9322 55.8685 66.0777 55.9376 66.2332 55.9638C66.5536 55.6937 66.8813 55.431 67.2162 55.1794C67.2314 55.0629 67.2228 54.9445 67.191 54.8316C67.191 54.8057 67.191 54.7761 67.191 54.7428C67.1658 54.5467 67.191 54.7428 67.191 54.8205V54.7539C67.1045 54.3358 67.1045 54.4172 66.7625 53.6661C66.6076 53.359 66.4456 53.0556 66.2764 52.7521C66.2845 52.5046 66.1993 52.2634 66.0387 52.0787C65.603 51.4275 65.5202 51.3387 65.0341 50.6579C64.6056 49.9734 64.1699 49.2889 63.7595 48.5933C63.3994 47.9976 63.0681 47.3871 62.7332 46.7802C62.7169 46.6682 62.6749 46.5617 62.6108 46.4694C62.5447 46.3418 62.4714 46.2182 62.3912 46.0994C62.0779 45.6295 61.7935 45.2114 61.5234 44.8229C61.1633 44.2642 60.8033 43.6944 60.4432 43.1246C59.8779 42.2773 59.3053 41.4336 58.794 40.5345C58.7543 40.4632 58.7059 40.3973 58.65 40.3384C58.4376 40.0424 58.2251 39.739 58.0415 39.4208C57.2781 38.1369 56.684 36.7531 55.9098 35.4728C55.467 34.6736 54.9953 33.8929 54.502 33.127C54.2607 32.8125 54.1095 32.35 53.7026 32.239C53.5763 32.1961 53.44 32.1961 53.3137 32.239C53.3391 32.1679 53.3513 32.0926 53.3497 32.017C53.2885 31.4583 52.7844 31.0735 52.5287 30.5962C52.1903 30.1115 52.0462 29.4639 51.6358 29.0458C51.57 28.9882 51.4925 28.9464 51.4089 28.9237C51.2577 28.2096 50.4835 26.885 50.6348 24.5281C50.7264 22.0159 50.6735 19.5004 50.4763 16.9947Z" fill="black"/>
</g>
<path d="M38.9337 36.3642C38.8661 36.3642 38.7997 36.3462 38.741 36.3118C38.6822 36.2774 38.6332 36.2279 38.5988 36.1681C36.5032 32.5901 33.637 29.4377 30.8644 26.3851C27.1917 22.3484 23.3965 18.1747 21.3513 12.9687C20.9912 12.0548 21.0704 11.3407 21.5745 10.9559C21.8472 10.7638 22.1793 10.6821 22.5071 10.7265C23.7314 10.8264 24.6243 11.7662 25.4345 12.7245C26.1042 13.5126 26.7812 14.3155 27.4581 15.1073C25.9687 12.3322 24.6855 9.44536 23.6197 6.4714C23.1084 5.05058 23.4793 4.37716 23.8826 4.06266C24.1294 3.89339 24.4194 3.80305 24.7162 3.80305C25.0129 3.80305 25.3029 3.89339 25.5497 4.06266C25.9532 4.34629 26.2962 4.71139 26.5579 5.13568C28.2431 7.52592 29.957 10.0346 31.6782 12.6246C31.1525 11.3814 30.5548 10.1715 29.9714 8.98004C29.0416 7.18471 28.2226 5.33101 27.5193 3.42995C27.1053 2.23483 27.2781 1.29131 27.9802 0.902803C28.6824 0.514296 29.5286 0.902801 30.3099 1.91292C31.7862 3.85915 33.2337 5.88679 34.6308 7.87372C34.028 6.28913 33.5699 4.65034 33.2625 2.97854C33.0645 1.90182 33.2841 1.1285 33.8891 0.813999C34.6092 0.443993 35.4554 0.8695 36.1431 1.98692L44.6265 15.7327C44.8281 14.0084 44.5617 12.2102 44.2988 10.4601C44.2304 9.97536 44.1584 9.49435 44.0936 9.01334C43.8703 7.28541 44.3456 6.05329 45.3646 5.76469C46.2792 5.49458 47.2586 6.09029 47.9932 7.36311C48.8815 8.99688 49.5352 10.7541 49.934 12.5802C50.7354 15.9221 51.0987 19.359 51.0142 22.7998L50.9962 23.3289C50.9386 25.2455 50.881 27.2288 51.8748 28.7236C51.925 28.8124 51.9408 28.9175 51.9188 29.0177C51.8968 29.1179 51.8387 29.2059 51.7562 29.264C51.6738 29.3221 51.5729 29.3459 51.474 29.3308C51.3751 29.3157 51.2855 29.2626 51.223 29.1824C50.0852 27.4693 50.1428 25.3528 50.2112 23.3067V22.7776C50.2967 19.4142 49.9431 16.0542 49.1598 12.7874C48.7948 11.0313 48.1784 9.34044 47.3306 7.77012C46.9129 7.04861 46.2504 6.3456 45.5987 6.538C44.6697 6.8155 44.8461 8.55823 44.8785 8.90234C44.9397 9.37965 45.0117 9.85695 45.0802 10.3343C45.4042 12.5025 45.7355 14.741 45.2206 16.9167C45.2024 16.9945 45.1623 17.0651 45.1052 17.1196C45.0482 17.1742 44.9768 17.2102 44.8999 17.2232C44.8231 17.2363 44.7442 17.2257 44.6731 17.1929C44.6021 17.1601 44.542 17.1065 44.5004 17.0388L35.495 2.41983C35.2285 1.98692 34.674 1.30981 34.2635 1.53181C33.853 1.75382 33.9899 2.50493 34.0475 2.82684C34.6305 5.98495 35.7676 9.00776 37.4034 11.7477C37.457 11.8365 37.4749 11.9433 37.4534 12.0454C37.4319 12.1476 37.3727 12.2371 37.2882 12.2953C37.2037 12.3528 37.101 12.3749 37.0012 12.357C36.9015 12.3391 36.8121 12.2826 36.7516 12.1991C36.0495 11.2186 35.3546 10.2344 34.6668 9.25755C33.0573 6.97831 31.3937 4.62506 29.687 2.37912C29.2909 1.85742 28.7364 1.37641 28.3547 1.58731C27.973 1.79822 28.0595 2.55303 28.2575 3.13024C28.9515 5.00295 29.7584 6.82939 30.6736 8.59894C31.7538 10.7894 32.8592 13.039 33.5326 15.4626C33.5574 15.5555 33.5493 15.6545 33.5098 15.7419C33.4702 15.8293 33.4017 15.8995 33.3165 15.9399C33.2319 15.98 33.1362 15.9878 33.0465 15.9621C32.9568 15.9363 32.8789 15.8786 32.8268 15.7993C30.508 12.2435 28.1855 8.80984 25.9206 5.59448C25.7189 5.26057 25.4545 4.97127 25.1428 4.74347C25.0303 4.66003 24.8966 4.6118 24.758 4.60458C24.6194 4.59736 24.4817 4.63146 24.3615 4.70277C24.0014 4.99138 24.2031 5.76099 24.3615 6.1828C25.8631 10.3731 27.802 14.3839 30.1443 18.1451C30.1984 18.2296 30.2196 18.332 30.2037 18.4318C30.1878 18.5317 30.1359 18.6217 30.0584 18.6841C29.9809 18.7465 29.8834 18.7767 29.7853 18.7687C29.6871 18.7607 29.5955 18.7151 29.5286 18.6409C27.9658 16.9352 26.3779 15.0592 24.8476 13.2425C24.1274 12.4137 23.3821 11.596 22.4531 11.522C22.3148 11.4992 22.1731 11.524 22.0498 11.5923C21.8374 11.7588 21.931 12.2472 22.0894 12.6542C24.0806 17.7196 27.8218 21.8415 31.4513 25.8227C34.2527 28.9049 37.1513 32.0906 39.2866 35.7389C39.3398 35.8308 39.3557 35.9406 39.3307 36.0445C39.3058 36.1484 39.2421 36.238 39.1533 36.2939C39.0888 36.3398 39.0122 36.3643 38.9337 36.3642Z" fill="black"/>
<path d="M52.9506 64.011C52.8775 64.013 52.8053 63.9944 52.7418 63.9572C52.6784 63.92 52.626 63.8657 52.5905 63.8001C48.4893 55.9855 44.1504 48.171 39.6962 40.5785C39.6494 40.4975 39.6313 40.4024 39.6451 40.3093C39.6589 40.2161 39.7037 40.1308 39.7719 40.0679C42.26 37.8145 45.0938 36.3012 47.8303 34.836C49.8863 33.7259 51.9388 32.6418 53.9516 31.5503C53.9995 31.5249 54.052 31.5097 54.1058 31.5059C54.1597 31.502 54.2137 31.5095 54.2646 31.5279C54.3155 31.5462 54.3622 31.5751 54.4019 31.6127C54.4416 31.6502 54.4733 31.6958 54.4953 31.7464C56.1156 35.4835 58.2941 38.9948 60.4041 42.3915L67.9404 54.4648C67.9685 54.5095 67.9877 54.5594 67.9969 54.6117C68.0061 54.664 68.0051 54.7176 67.9941 54.7696C67.983 54.8215 67.9621 54.8706 67.9325 54.9142C67.9029 54.9578 67.8652 54.9949 67.8216 55.0235C67.7331 55.0804 67.6264 55.0991 67.5246 55.0755C67.4228 55.052 67.3341 54.9881 67.2779 54.8977L59.7704 42.817C57.7179 39.5129 55.6007 36.1014 53.9768 32.4568C52.0648 33.4854 50.1348 34.5141 48.2156 35.5464C45.6123 36.9413 42.9189 38.3769 40.564 40.4453C44.9641 47.9601 49.2526 55.6821 53.307 63.4079C53.3316 63.4547 53.3469 63.5061 53.352 63.559C53.3571 63.612 53.352 63.6654 53.3369 63.7163C53.3219 63.7672 53.2972 63.8146 53.2642 63.8556C53.2313 63.8966 53.1908 63.9306 53.145 63.9555C53.0867 63.9926 53.0192 64.0119 52.9506 64.011V64.011Z" fill="black"/>
<path d="M40.4662 40.249C40.3932 40.2531 40.3206 40.2358 40.2569 40.1991C40.1931 40.1625 40.1408 40.1079 40.1061 40.0418L38.3489 36.7747C38.3012 36.6845 38.2884 36.579 38.3131 36.4795C38.3378 36.38 38.3982 36.2938 38.4822 36.2382C42.7941 33.4103 47.2724 30.8598 51.8913 28.6012C51.9798 28.5567 52.0815 28.5484 52.1757 28.5779C52.2699 28.6075 52.3498 28.6726 52.399 28.7603C52.9542 29.7373 53.4462 30.7509 53.8717 31.7944C53.903 31.8906 53.8979 31.9954 53.8573 32.0878C53.8168 32.1803 53.7438 32.2537 53.653 32.2934C53.5622 32.333 53.4601 32.3361 53.3672 32.3019C53.2743 32.2677 53.1973 32.1988 53.1516 32.1089C52.7858 31.2129 52.3698 30.3395 51.9057 29.4929C47.5423 31.6412 43.3064 34.0529 39.2203 36.7155L40.7974 39.6496C40.8476 39.7433 40.8594 39.8537 40.8304 39.9564C40.8013 40.0591 40.7338 40.1457 40.6426 40.1972C40.5891 40.2299 40.5283 40.2477 40.4662 40.249V40.249Z" fill="black"/>
<path d="M15.0535 64.0116C14.9892 64.0127 14.9258 63.9961 14.8698 63.9635C14.8241 63.9386 14.7836 63.9046 14.7506 63.8636C14.7177 63.8226 14.693 63.7752 14.6779 63.7243C14.6628 63.6734 14.6577 63.62 14.6629 63.567C14.668 63.5141 14.6833 63.4627 14.7078 63.4159C18.7622 55.6938 23.0507 47.9681 27.4508 40.4533C25.0959 38.3849 22.4098 36.9493 19.7992 35.5544C17.8693 34.5221 15.9393 33.4935 14.0381 32.4648C12.4177 36.1131 10.2969 39.5245 8.24447 42.825L0.736927 54.9057C0.680705 54.9961 0.592059 55.06 0.49025 55.0835C0.38844 55.1071 0.281696 55.0884 0.193217 55.0315C0.149606 55.003 0.11192 54.9658 0.0823259 54.9222C0.0527313 54.8786 0.0318101 54.8295 0.0207678 54.7775C0.00972558 54.7256 0.00877967 54.672 0.0179822 54.6197C0.0271848 54.5674 0.0463553 54.5175 0.0743921 54.4728L7.58193 42.3884C9.69197 38.9917 11.874 35.4804 13.4907 31.7433C13.5123 31.6928 13.5437 31.6473 13.5831 31.6098C13.6224 31.5722 13.6688 31.5434 13.7194 31.525C13.7701 31.5066 13.8238 31.4991 13.8774 31.5029C13.931 31.5067 13.9832 31.5218 14.0309 31.5472C16.0665 32.6375 18.1141 33.7327 20.1737 34.8329C22.9103 36.3129 25.7441 37.8114 28.2286 40.0648C28.2979 40.1269 28.3438 40.212 28.3583 40.3053C28.3728 40.3986 28.3549 40.4942 28.3078 40.5754C23.8501 48.1716 19.5112 55.9824 15.4135 63.797C15.3785 63.8633 15.3264 63.9184 15.2628 63.9562C15.1993 63.9941 15.1269 64.0132 15.0535 64.0116V64.0116Z" fill="black"/>
<path d="M27.5451 40.2493C27.478 40.2506 27.4119 40.2327 27.3543 40.1975C27.2631 40.146 27.1956 40.0593 27.1665 39.9566C27.1375 39.854 27.1493 39.7436 27.1994 39.6499L28.7766 36.7157C24.6904 34.0532 20.4546 31.6415 16.0912 29.4932C15.6263 30.3394 15.2103 31.2128 14.8453 32.1092C14.7953 32.1914 14.7184 32.2526 14.6284 32.2817C14.5384 32.3109 14.4413 32.306 14.3544 32.2681C14.2676 32.2302 14.1968 32.1617 14.1548 32.0749C14.1127 31.9881 14.1022 31.8887 14.1252 31.7946C14.5529 30.7522 15.0448 29.7388 15.5979 28.7606C15.6478 28.6726 15.7283 28.6074 15.8231 28.5779C15.9179 28.5483 16.0201 28.5568 16.1092 28.6015C20.7281 30.8601 25.2064 33.4106 29.5183 36.2384C29.6016 36.2947 29.6615 36.3809 29.6861 36.4801C29.7108 36.5794 29.6985 36.6846 29.6515 36.7749L27.8944 40.0421C27.8602 40.1061 27.8095 40.1593 27.7479 40.1959C27.6864 40.2324 27.6162 40.2509 27.5451 40.2493V40.2493Z" fill="black"/>
<path d="M52.6466 11.1002H52.5782C52.476 11.0812 52.3851 11.0217 52.3251 10.9344C52.2652 10.8472 52.241 10.7393 52.2578 10.6339C52.5518 8.87647 52.4703 7.07429 52.0189 5.35241C51.5675 3.63052 50.757 2.03015 49.6436 0.66227C49.5763 0.58033 49.5434 0.474264 49.5522 0.367404C49.561 0.260544 49.6107 0.161646 49.6904 0.0924627C49.7702 0.0232798 49.8734 -0.0105162 49.9774 -0.00149552C50.0814 0.00752513 50.1776 0.0586253 50.2449 0.140565C51.4316 1.59973 52.2958 3.30634 52.7776 5.14239C53.2594 6.97844 53.3474 8.90012 53.0355 10.7745C53.0172 10.8666 52.9685 10.9493 52.8976 11.0087C52.8267 11.068 52.7381 11.1003 52.6466 11.1002V11.1002Z" fill="black"/>
<path d="M56.8015 10.5855H56.7475C56.6962 10.5787 56.6468 10.5614 56.6021 10.5348C56.5574 10.5081 56.5183 10.4725 56.4871 10.4302C56.4559 10.3878 56.4333 10.3394 56.4205 10.288C56.4077 10.2365 56.405 10.1829 56.4126 10.1304C56.7573 7.53955 56.6352 4.90569 56.0526 2.36024C56.0298 2.25532 56.0479 2.1454 56.1031 2.05409C56.1583 1.96277 56.2462 1.89733 56.3478 1.87183C56.3982 1.85978 56.4504 1.85808 56.5014 1.86683C56.5524 1.87557 56.6012 1.89458 56.645 1.92278C56.6889 1.95097 56.7269 1.98779 56.7568 2.03111C56.7867 2.07444 56.8081 2.12342 56.8195 2.17524C57.4281 4.81824 57.5575 7.55388 57.2012 10.2451C57.1863 10.3421 57.1375 10.4302 57.0639 10.4929C56.9904 10.5555 56.897 10.5885 56.8015 10.5855V10.5855Z" fill="black"/>
<path d="M11.9511 25.1379C11.8659 25.1375 11.7831 25.1088 11.715 25.0562C11.6468 25.0035 11.5971 24.9297 11.5731 24.8456C10.5971 21.245 10.7343 17.4216 11.9655 13.9045C12.0025 13.8062 12.0755 13.7266 12.1688 13.6829C12.2621 13.6391 12.3684 13.6346 12.4649 13.6704C12.5615 13.7062 12.6405 13.7794 12.6851 13.8744C12.7297 13.9693 12.7364 14.0784 12.7037 14.1784C11.5316 17.5373 11.4057 21.1879 12.3436 24.6236C12.3713 24.7271 12.3581 24.8377 12.3069 24.9313C12.2556 25.0248 12.1705 25.0938 12.07 25.1231C12.0314 25.1348 11.9913 25.1399 11.9511 25.1379Z" fill="black"/>
<path d="M16.4553 29.3493C16.3768 29.3494 16.3002 29.3249 16.2356 29.279C16.1927 29.2493 16.1559 29.2111 16.1274 29.1666C16.0988 29.1222 16.0792 29.0724 16.0695 29.0202C16.0597 28.9679 16.0602 28.9141 16.0708 28.862C16.0814 28.8099 16.1019 28.7605 16.1312 28.7166C17.125 27.2366 17.0674 25.2385 17.0098 23.3219L16.9918 22.7928C16.9055 19.352 17.2688 15.9148 18.072 12.5732C18.4591 10.7481 19.1083 8.99227 19.9984 7.36353C20.7186 6.09071 21.7124 5.495 22.6269 5.7651C23.646 6.07221 24.1213 7.28583 23.898 9.01376C23.8332 9.49847 23.7612 9.98317 23.6892 10.4679C23.6496 10.7269 23.6135 10.9859 23.5739 11.2449C23.5669 11.2973 23.5498 11.3477 23.5237 11.3932C23.4975 11.4387 23.4628 11.4785 23.4217 11.5101C23.3805 11.5418 23.3336 11.5647 23.2837 11.5776C23.2338 11.5905 23.1819 11.5931 23.131 11.5853C23.0276 11.5697 22.9343 11.5128 22.8716 11.4268C22.8089 11.3409 22.7818 11.2329 22.7962 11.1265C22.8358 10.8675 22.8718 10.6085 22.9114 10.3458C22.9834 9.86478 23.0554 9.38377 23.1166 8.90646C23.1599 8.56236 23.3363 6.81962 22.3965 6.54211C21.7556 6.34971 21.0786 7.05272 20.6645 7.77424C19.816 9.33615 19.196 11.018 18.8246 12.7656C18.0413 16.0325 17.6877 19.3924 17.7731 22.7558V23.2812C17.8344 25.331 17.8992 27.4475 16.7577 29.1569C16.7256 29.2112 16.6815 29.2569 16.6289 29.2903C16.5764 29.3238 16.5169 29.344 16.4553 29.3493V29.3493Z" fill="black"/>
<path d="M34.0207 8.00671C33.9379 8.00596 33.8574 7.9788 33.7903 7.929C33.7062 7.86541 33.6499 7.77025 33.6337 7.66423C33.6175 7.55821 33.6427 7.4499 33.7039 7.36289L34.3196 6.49708C34.3812 6.41072 34.4736 6.35305 34.5766 6.33674C34.6796 6.32044 34.7847 6.34683 34.8687 6.41013C34.9527 6.47342 35.0089 6.56843 35.0247 6.67425C35.0406 6.78007 35.0149 6.88803 34.9533 6.97439L34.3412 7.8402C34.3039 7.89151 34.2556 7.93324 34.2 7.96213C34.1444 7.99102 34.083 8.00628 34.0207 8.00671V8.00671Z" fill="black"/>
<path d="M38.6647 7.14875C38.6049 7.14805 38.546 7.13417 38.4919 7.10805C38.3982 7.06096 38.3264 6.97783 38.2921 6.8767C38.2577 6.77557 38.2635 6.6646 38.3082 6.56784C38.851 5.45086 39.3319 4.30325 39.7485 3.13048C39.9502 2.55327 40.0474 1.80215 39.6549 1.58755C39.2624 1.37295 38.7187 1.85765 38.3226 2.37936C37.9265 2.90107 37.5449 3.41168 37.1596 3.93339C37.1284 3.97567 37.0894 4.01121 37.0448 4.03799C37.0002 4.06477 36.951 4.08228 36.8998 4.08949C36.8486 4.09671 36.7966 4.0935 36.7467 4.08004C36.6967 4.06659 36.6498 4.04316 36.6087 4.01109C36.5675 3.97902 36.533 3.93894 36.5069 3.89314C36.4808 3.84733 36.4638 3.7967 36.4568 3.74413C36.4498 3.69157 36.4529 3.63809 36.466 3.58676C36.4791 3.53543 36.5019 3.48726 36.5331 3.44498C36.9171 2.91957 37.306 2.3991 37.6997 1.88356C38.4811 0.858638 39.3272 0.488633 40.0294 0.87344C40.7315 1.25825 40.9044 2.20546 40.4903 3.40058C40.0652 4.60034 39.576 5.77505 39.0248 6.91934C38.9921 6.98869 38.9408 7.04706 38.8771 7.08767C38.8134 7.12828 38.7397 7.14947 38.6647 7.14875V7.14875Z" fill="black"/>
<path d="M42.8619 13.3938C42.7666 13.3933 42.6747 13.3579 42.6026 13.2939C42.5638 13.2589 42.532 13.2165 42.5092 13.1689C42.4864 13.1213 42.4729 13.0696 42.4696 13.0167C42.4662 12.9637 42.4731 12.9106 42.4897 12.8604C42.5064 12.8102 42.5325 12.7639 42.5666 12.7241C43.1643 12.0174 43.8161 11.2959 44.6514 10.9407C44.7445 10.9113 44.8448 10.9185 44.933 10.9608C45.0212 11.0032 45.0909 11.0778 45.1286 11.17C45.1663 11.2622 45.1693 11.3655 45.137 11.4599C45.1047 11.5543 45.0395 11.633 44.9539 11.6807C44.2769 11.973 43.6972 12.6168 43.1535 13.2532C43.1173 13.2965 43.0726 13.3314 43.0224 13.3557C42.9721 13.3799 42.9174 13.3929 42.8619 13.3938V13.3938Z" fill="black"/>
<path d="M31.2924 4.04389C31.2173 4.04309 31.1439 4.02135 31.0799 3.98099C31.0363 3.95242 30.9986 3.91528 30.969 3.87169C30.9394 3.82811 30.9185 3.77894 30.9075 3.72702C30.8964 3.6751 30.8955 3.62145 30.9047 3.56915C30.9139 3.51685 30.9331 3.46694 30.9611 3.42228L31.8433 1.98666C32.5346 0.876636 33.3772 0.432629 34.101 0.813736C34.193 0.863432 34.2623 0.948319 34.294 1.05008C34.3256 1.15183 34.3171 1.2623 34.2702 1.35765C34.2466 1.40482 34.2142 1.44675 34.1748 1.48104C34.1354 1.51532 34.0898 1.54128 34.0406 1.55744C33.9915 1.57359 33.9397 1.57962 33.8882 1.57517C33.8368 1.57073 33.7867 1.55591 33.7409 1.53155C33.334 1.31695 32.7759 1.98665 32.5094 2.41956L31.6236 3.85519C31.5884 3.91281 31.5395 3.96033 31.4816 3.99332C31.4237 4.02631 31.3586 4.04371 31.2924 4.04389Z" fill="black"/>
<path d="M33.3796 7.02985C33.3355 7.02971 33.2917 7.02222 33.25 7.00765C33.1515 6.97233 33.0705 6.89851 33.0247 6.80221C32.9788 6.70591 32.9718 6.59492 33.0051 6.49334C33.232 5.81993 33.4336 5.13171 33.6029 4.4435C33.6156 4.39199 33.6381 4.34358 33.6691 4.30102C33.7001 4.25845 33.7389 4.22258 33.7834 4.19543C33.8279 4.16829 33.8771 4.15041 33.9283 4.14282C33.9795 4.13523 34.0316 4.13808 34.0818 4.1512C34.1319 4.16432 34.179 4.18745 34.2204 4.21928C34.2618 4.25111 34.2967 4.29102 34.3232 4.33671C34.3496 4.38241 34.367 4.43301 34.3744 4.48561C34.3817 4.53822 34.379 4.5918 34.3662 4.64331C34.1898 5.35372 33.9809 6.06413 33.7505 6.75604C33.7237 6.83543 33.6737 6.90437 33.6073 6.9534C33.5409 7.00242 33.4614 7.02913 33.3796 7.02985Z" fill="black"/>
<path d="M25.4291 13.5464C25.354 13.5456 25.2806 13.5239 25.2167 13.4835C25.173 13.4549 25.1354 13.4178 25.1058 13.3742C25.0762 13.3306 25.0553 13.2815 25.0442 13.2295C25.0332 13.1776 25.0322 13.124 25.0414 13.0717C25.0506 13.0194 25.0698 12.9695 25.0978 12.9248C25.2527 12.6732 25.3751 12.466 25.5011 12.2588C25.6271 12.0516 25.7532 11.8407 25.9116 11.5854C25.9393 11.5407 25.9752 11.502 26.0174 11.4716C26.0596 11.4412 26.1073 11.4196 26.1576 11.4081C26.2079 11.3966 26.2599 11.3954 26.3107 11.4045C26.3615 11.4137 26.41 11.433 26.4535 11.4614C26.497 11.4899 26.5346 11.5268 26.5642 11.5702C26.5938 11.6135 26.6149 11.6625 26.6261 11.7142C26.6373 11.7659 26.6384 11.8194 26.6295 11.8715C26.6206 11.9237 26.6018 11.9736 26.5741 12.0183C26.4193 12.2699 26.2933 12.4771 26.1709 12.6843C26.0484 12.8915 25.9188 13.1024 25.7604 13.3577C25.7251 13.4153 25.6763 13.4628 25.6184 13.4958C25.5604 13.5288 25.4953 13.5462 25.4291 13.5464V13.5464Z" fill="black"/>
<path d="M28.3664 8.78071C28.2958 8.78094 28.2264 8.7616 28.1656 8.72471C28.1048 8.68782 28.0548 8.63476 28.0209 8.57112C27.987 8.50748 27.9704 8.43562 27.9729 8.36311C27.9754 8.29059 27.9969 8.22011 28.0351 8.1591L28.4996 7.40059L28.9533 6.66058C28.981 6.61587 29.0169 6.57721 29.0591 6.54679C29.1013 6.51636 29.149 6.49478 29.1993 6.48327C29.2496 6.47176 29.3016 6.47055 29.3524 6.4797C29.4032 6.48886 29.4517 6.5082 29.4952 6.53662C29.5387 6.56505 29.5764 6.602 29.606 6.64537C29.6356 6.68874 29.6566 6.73767 29.6678 6.78938C29.679 6.84109 29.6801 6.89457 29.6712 6.94674C29.6623 6.99892 29.6435 7.04878 29.6158 7.09348L29.1658 7.8335C29.0217 8.0703 28.8777 8.3071 28.6977 8.59571C28.662 8.65264 28.613 8.69943 28.5551 8.73176C28.4972 8.76409 28.4323 8.78093 28.3664 8.78071V8.78071Z" fill="black"/>
<path d="M41.7614 12.2098C41.7017 12.2086 41.6428 12.1948 41.5886 12.1691C41.495 12.122 41.4232 12.0389 41.3888 11.9377C41.3544 11.8366 41.3602 11.7256 41.405 11.6289C42.2331 9.86394 42.9857 8.03611 43.6446 6.19718C43.7994 5.76427 44.0047 4.99466 43.6446 4.71715C43.523 4.64854 43.3851 4.61601 43.2465 4.62319C43.1079 4.63038 42.974 4.677 42.8597 4.75785C42.5497 4.98647 42.2866 5.27566 42.0855 5.60887C41.4014 6.57829 40.7136 7.5699 40.0367 8.56892C39.9765 8.65675 39.8849 8.71642 39.7819 8.73481C39.6789 8.75319 39.573 8.72879 39.4876 8.66697C39.4021 8.60515 39.344 8.51096 39.3261 8.40515C39.3082 8.29933 39.332 8.19054 39.3921 8.10271C40.0727 7.11479 40.7604 6.12317 41.4482 5.14266C41.7099 4.71837 42.0529 4.35328 42.4564 4.06964C42.7035 3.9013 42.9934 3.81152 43.2899 3.81152C43.5864 3.81152 43.8764 3.9013 44.1235 4.06964C44.5232 4.38785 44.8977 5.06126 44.3864 6.48208C43.7202 8.33212 42.9461 10.1821 42.1179 11.9878C42.0844 12.0552 42.0334 12.1116 41.9704 12.1509C41.9074 12.1901 41.8351 12.2105 41.7614 12.2098V12.2098Z" fill="black"/>
<path d="M29.0699 36.3638C28.9975 36.3643 28.9263 36.3438 28.8647 36.3046C28.776 36.2487 28.7122 36.1591 28.6873 36.0552C28.6624 35.9514 28.6782 35.8416 28.7315 35.7496C30.1688 33.3687 31.8217 31.1326 33.6681 29.071C33.7023 29.0314 33.7439 28.9991 33.7903 28.976C33.8367 28.9528 33.8871 28.9393 33.9386 28.9362C33.9901 28.9331 34.0417 28.9405 34.0904 28.9579C34.1392 28.9753 34.1841 29.0025 34.2226 29.0377C34.3007 29.1095 34.348 29.2101 34.3541 29.3176C34.3601 29.4251 34.3245 29.5307 34.255 29.6112C32.4409 31.6349 30.817 33.8302 29.4048 36.1677C29.3704 36.2275 29.3214 36.277 29.2627 36.3114C29.204 36.3458 29.1375 36.3639 29.0699 36.3638V36.3638Z" fill="black"/>
<path d="M52.8215 63.5524C48.7215 55.7625 44.4906 48.0467 40.1289 40.4048C44.5153 37.2033 49.2116 34.4754 54.143 32.2646C58.3054 40.0052 62.8064 47.5533 67.6602 54.7869C65.4277 56.9182 62.3239 57.71 59.5909 59.0864C57.2108 60.2815 55.0864 61.9429 52.8215 63.5524Z" fill="#DDF3E4"/>
<g opacity="0.13">
<path opacity="0.13" d="M50.4763 16.9947C50.5583 17.0815 50.6596 17.1463 50.7716 17.1834C50.7284 16.8134 50.6924 16.4434 50.6564 16.0734C50.5879 15.3963 50.5483 14.7155 50.5195 14.0347C50.4655 13.7942 50.4079 13.55 50.3503 13.2947C49.8138 11.7739 49.3529 10.2236 48.9316 8.66219C48.6916 8.13431 48.4515 7.60767 48.2115 7.08226C48.0887 6.84904 47.9103 6.6517 47.693 6.50875C47.6078 6.47529 47.5156 6.46485 47.4254 6.47845C47.3352 6.49204 47.2498 6.5292 47.1776 6.58638C47.1053 6.64356 47.0485 6.71883 47.0127 6.80501C46.9768 6.89118 46.9631 6.98537 46.9728 7.07856C46.9112 7.1578 46.8747 7.25457 46.8682 7.3558C46.8618 7.45703 46.8857 7.55786 46.9368 7.64467C47.4913 8.65479 47.747 9.676 48.0746 11.0376C48.3727 12.1867 48.5809 13.3584 48.6976 14.5416C48.8462 15.731 48.9316 16.9279 48.9532 18.127C49.0144 19.977 48.9892 21.8048 48.8956 23.6437C48.6688 25.4716 48.7624 27.3956 49.6374 29.0458C49.7312 29.2155 49.8359 29.3787 49.9506 29.5342L49.8822 29.438C49.9369 29.537 50.0103 29.6236 50.0981 29.6929C50.1859 29.7622 50.2864 29.8127 50.3935 29.8413C50.4663 29.8611 50.5415 29.8698 50.6168 29.8673C50.6168 29.8969 50.642 29.9265 50.66 29.9561C51.1 30.8924 51.6502 31.7697 52.2983 32.5683C52.3985 32.6564 52.5265 32.7037 52.6584 32.7015C52.5195 32.8069 52.4245 32.9623 52.3925 33.1365C52.3604 33.3108 52.3936 33.4912 52.4855 33.6413C53.2813 35.2915 54.3111 36.8049 55.2401 38.3774C55.9603 39.7427 56.8136 41.0155 57.5842 42.3439C58.1459 43.3059 58.812 44.1939 59.435 45.1152C59.9715 45.9884 60.4396 46.8986 61.0049 47.7534C61.1633 48.0235 61.329 48.2899 61.4946 48.5563C62.0031 49.5633 62.562 50.5427 63.1689 51.4904C63.439 51.9307 63.7054 52.3784 64.0007 52.8039C64.1087 53.0925 64.314 53.3627 64.44 53.6291C64.6637 54.0151 64.9115 54.3859 65.1818 54.7391C65.2571 54.9444 65.3473 55.1435 65.4518 55.3348C65.5524 55.4939 65.6736 55.6383 65.8119 55.764C65.9322 55.8685 66.0777 55.9376 66.2332 55.9638C66.5536 55.6937 66.8813 55.431 67.2162 55.1794C67.2314 55.0629 67.2228 54.9445 67.191 54.8316C67.191 54.8057 67.191 54.7761 67.191 54.7428C67.1658 54.5467 67.191 54.7428 67.191 54.8205V54.7539C67.1045 54.3358 67.1045 54.4172 66.7625 53.6661C66.6076 53.359 66.4456 53.0556 66.2764 52.7521C66.2845 52.5046 66.1993 52.2634 66.0387 52.0787C65.603 51.4275 65.5202 51.3387 65.0341 50.6579C64.6056 49.9734 64.1699 49.2889 63.7595 48.5933C63.3994 47.9976 63.0681 47.3871 62.7332 46.7802C62.7169 46.6682 62.6749 46.5617 62.6108 46.4694C62.5447 46.3418 62.4714 46.2182 62.3912 46.0994C62.0779 45.6295 61.7935 45.2114 61.5234 44.8229C61.1633 44.2642 60.8033 43.6944 60.4432 43.1246C59.8779 42.2773 59.3053 41.4336 58.794 40.5345C58.7543 40.4632 58.7059 40.3973 58.65 40.3384C58.4376 40.0424 58.2251 39.739 58.0415 39.4208C57.2781 38.1369 56.684 36.7531 55.9098 35.4728C55.467 34.6736 54.9953 33.8929 54.502 33.127C54.2607 32.8125 54.1095 32.35 53.7026 32.239C53.5763 32.1961 53.44 32.1961 53.3137 32.239C53.3391 32.1679 53.3513 32.0926 53.3497 32.017C53.2885 31.4583 52.7844 31.0735 52.5287 30.5962C52.1903 30.1115 52.0462 29.4639 51.6358 29.0458C51.57 28.9882 51.4925 28.9464 51.4089 28.9237C51.2577 28.2096 50.4835 26.885 50.6348 24.5281C50.7264 22.0159 50.6735 19.5004 50.4763 16.9947Z" fill="black"/>
</g>
<path d="M38.9337 36.3642C38.8661 36.3642 38.7997 36.3462 38.741 36.3118C38.6822 36.2774 38.6332 36.2279 38.5988 36.1681C36.5032 32.5901 33.637 29.4377 30.8644 26.3851C27.1917 22.3484 23.3965 18.1747 21.3513 12.9687C20.9912 12.0548 21.0704 11.3407 21.5745 10.9559C21.8472 10.7638 22.1793 10.6821 22.5071 10.7265C23.7314 10.8264 24.6243 11.7662 25.4345 12.7245C26.1042 13.5126 26.7812 14.3155 27.4581 15.1073C25.9687 12.3322 24.6855 9.44536 23.6197 6.4714C23.1084 5.05058 23.4793 4.37716 23.8826 4.06266C24.1294 3.89339 24.4194 3.80305 24.7162 3.80305C25.0129 3.80305 25.3029 3.89339 25.5497 4.06266C25.9532 4.34629 26.2962 4.71139 26.5579 5.13568C28.2431 7.52592 29.957 10.0346 31.6782 12.6246C31.1525 11.3814 30.5548 10.1715 29.9714 8.98004C29.0416 7.18471 28.2226 5.33101 27.5193 3.42995C27.1053 2.23483 27.2781 1.29131 27.9802 0.902803C28.6824 0.514296 29.5286 0.902801 30.3099 1.91292C31.7862 3.85915 33.2337 5.88679 34.6308 7.87372C34.028 6.28913 33.5699 4.65034 33.2625 2.97854C33.0645 1.90182 33.2841 1.1285 33.8891 0.813999C34.6092 0.443993 35.4554 0.8695 36.1431 1.98692L44.6265 15.7327C44.8281 14.0084 44.5617 12.2102 44.2988 10.4601C44.2304 9.97536 44.1584 9.49435 44.0936 9.01334C43.8703 7.28541 44.3456 6.05329 45.3646 5.76469C46.2792 5.49458 47.2586 6.09029 47.9932 7.36311C48.8815 8.99688 49.5352 10.7541 49.934 12.5802C50.7354 15.9221 51.0987 19.359 51.0142 22.7998L50.9962 23.3289C50.9386 25.2455 50.881 27.2288 51.8748 28.7236C51.925 28.8124 51.9408 28.9175 51.9188 29.0177C51.8968 29.1179 51.8387 29.2059 51.7562 29.264C51.6738 29.3221 51.5729 29.3459 51.474 29.3308C51.3751 29.3157 51.2855 29.2626 51.223 29.1824C50.0852 27.4693 50.1428 25.3528 50.2112 23.3067V22.7776C50.2967 19.4142 49.9431 16.0542 49.1598 12.7874C48.7948 11.0313 48.1784 9.34044 47.3306 7.77012C46.9129 7.04861 46.2504 6.3456 45.5987 6.538C44.6697 6.8155 44.8461 8.55823 44.8785 8.90234C44.9397 9.37965 45.0117 9.85695 45.0802 10.3343C45.4042 12.5025 45.7355 14.741 45.2206 16.9167C45.2024 16.9945 45.1623 17.0651 45.1052 17.1196C45.0482 17.1742 44.9768 17.2102 44.8999 17.2232C44.8231 17.2363 44.7442 17.2257 44.6731 17.1929C44.6021 17.1601 44.542 17.1065 44.5004 17.0388L35.495 2.41983C35.2285 1.98692 34.674 1.30981 34.2635 1.53181C33.853 1.75382 33.9899 2.50493 34.0475 2.82684C34.6305 5.98495 35.7676 9.00776 37.4034 11.7477C37.457 11.8365 37.4749 11.9433 37.4534 12.0454C37.4319 12.1476 37.3727 12.2371 37.2882 12.2953C37.2037 12.3528 37.101 12.3749 37.0012 12.357C36.9015 12.3391 36.8121 12.2826 36.7516 12.1991C36.0495 11.2186 35.3546 10.2344 34.6668 9.25755C33.0573 6.97831 31.3937 4.62506 29.687 2.37912C29.2909 1.85742 28.7364 1.37641 28.3547 1.58731C27.973 1.79822 28.0595 2.55303 28.2575 3.13024C28.9515 5.00295 29.7584 6.82939 30.6736 8.59894C31.7538 10.7894 32.8592 13.039 33.5326 15.4626C33.5574 15.5555 33.5493 15.6545 33.5098 15.7419C33.4702 15.8293 33.4017 15.8995 33.3165 15.9399C33.2319 15.98 33.1362 15.9878 33.0465 15.9621C32.9568 15.9363 32.8789 15.8786 32.8268 15.7993C30.508 12.2435 28.1855 8.80984 25.9206 5.59448C25.7189 5.26057 25.4545 4.97127 25.1428 4.74347C25.0303 4.66003 24.8966 4.6118 24.758 4.60458C24.6194 4.59736 24.4817 4.63146 24.3615 4.70277C24.0014 4.99138 24.2031 5.76099 24.3615 6.1828C25.8631 10.3731 27.802 14.3839 30.1443 18.1451C30.1984 18.2296 30.2196 18.332 30.2037 18.4318C30.1878 18.5317 30.1359 18.6217 30.0584 18.6841C29.9809 18.7465 29.8834 18.7767 29.7853 18.7687C29.6871 18.7607 29.5955 18.7151 29.5286 18.6409C27.9658 16.9352 26.3779 15.0592 24.8476 13.2425C24.1274 12.4137 23.3821 11.596 22.4531 11.522C22.3148 11.4992 22.1731 11.524 22.0498 11.5923C21.8374 11.7588 21.931 12.2472 22.0894 12.6542C24.0806 17.7196 27.8218 21.8415 31.4513 25.8227C34.2527 28.9049 37.1513 32.0906 39.2866 35.7389C39.3398 35.8308 39.3557 35.9406 39.3307 36.0445C39.3058 36.1484 39.2421 36.238 39.1533 36.2939C39.0888 36.3398 39.0122 36.3643 38.9337 36.3642Z" fill="black"/>
<path d="M52.9506 64.011C52.8775 64.013 52.8053 63.9944 52.7418 63.9572C52.6784 63.92 52.626 63.8657 52.5905 63.8001C48.4893 55.9855 44.1504 48.171 39.6962 40.5785C39.6494 40.4975 39.6313 40.4024 39.6451 40.3093C39.6589 40.2161 39.7037 40.1308 39.7719 40.0679C42.26 37.8145 45.0938 36.3012 47.8303 34.836C49.8863 33.7259 51.9388 32.6418 53.9516 31.5503C53.9995 31.5249 54.052 31.5097 54.1058 31.5059C54.1597 31.502 54.2137 31.5095 54.2646 31.5279C54.3155 31.5462 54.3622 31.5751 54.4019 31.6127C54.4416 31.6502 54.4733 31.6958 54.4953 31.7464C56.1156 35.4835 58.2941 38.9948 60.4041 42.3915L67.9404 54.4648C67.9685 54.5095 67.9877 54.5594 67.9969 54.6117C68.0061 54.664 68.0051 54.7176 67.9941 54.7696C67.983 54.8215 67.9621 54.8706 67.9325 54.9142C67.9029 54.9578 67.8652 54.9949 67.8216 55.0235C67.7331 55.0804 67.6264 55.0991 67.5246 55.0755C67.4228 55.052 67.3341 54.9881 67.2779 54.8977L59.7704 42.817C57.7179 39.5129 55.6007 36.1014 53.9768 32.4568C52.0648 33.4854 50.1348 34.5141 48.2156 35.5464C45.6123 36.9413 42.9189 38.3769 40.564 40.4453C44.9641 47.9601 49.2526 55.6821 53.307 63.4079C53.3316 63.4547 53.3469 63.5061 53.352 63.559C53.3571 63.612 53.352 63.6654 53.3369 63.7163C53.3219 63.7672 53.2972 63.8146 53.2642 63.8556C53.2313 63.8966 53.1908 63.9306 53.145 63.9555C53.0867 63.9926 53.0192 64.0119 52.9506 64.011V64.011Z" fill="black"/>
<path d="M40.4662 40.249C40.3932 40.2531 40.3206 40.2358 40.2569 40.1991C40.1931 40.1625 40.1408 40.1079 40.1061 40.0418L38.3489 36.7747C38.3012 36.6845 38.2884 36.579 38.3131 36.4795C38.3378 36.38 38.3982 36.2938 38.4822 36.2382C42.7941 33.4103 47.2724 30.8598 51.8913 28.6012C51.9798 28.5567 52.0815 28.5484 52.1757 28.5779C52.2699 28.6075 52.3498 28.6726 52.399 28.7603C52.9542 29.7373 53.4462 30.7509 53.8717 31.7944C53.903 31.8906 53.8979 31.9954 53.8573 32.0878C53.8168 32.1803 53.7438 32.2537 53.653 32.2934C53.5622 32.333 53.4601 32.3361 53.3672 32.3019C53.2743 32.2677 53.1973 32.1988 53.1516 32.1089C52.7858 31.2129 52.3698 30.3395 51.9057 29.4929C47.5423 31.6412 43.3064 34.0529 39.2203 36.7155L40.7974 39.6496C40.8476 39.7433 40.8594 39.8537 40.8304 39.9564C40.8013 40.0591 40.7338 40.1457 40.6426 40.1972C40.5891 40.2299 40.5283 40.2477 40.4662 40.249V40.249Z" fill="black"/>
<path d="M15.0535 64.0116C14.9892 64.0127 14.9258 63.9961 14.8698 63.9635C14.8241 63.9386 14.7836 63.9046 14.7506 63.8636C14.7177 63.8226 14.693 63.7752 14.6779 63.7243C14.6628 63.6734 14.6577 63.62 14.6629 63.567C14.668 63.5141 14.6833 63.4627 14.7078 63.4159C18.7622 55.6938 23.0507 47.9681 27.4508 40.4533C25.0959 38.3849 22.4098 36.9493 19.7992 35.5544C17.8693 34.5221 15.9393 33.4935 14.0381 32.4648C12.4177 36.1131 10.2969 39.5245 8.24447 42.825L0.736927 54.9057C0.680705 54.9961 0.592059 55.06 0.49025 55.0835C0.38844 55.1071 0.281696 55.0884 0.193217 55.0315C0.149606 55.003 0.11192 54.9658 0.0823259 54.9222C0.0527313 54.8786 0.0318101 54.8295 0.0207678 54.7775C0.00972558 54.7256 0.00877967 54.672 0.0179822 54.6197C0.0271848 54.5674 0.0463553 54.5175 0.0743921 54.4728L7.58193 42.3884C9.69197 38.9917 11.874 35.4804 13.4907 31.7433C13.5123 31.6928 13.5437 31.6473 13.5831 31.6098C13.6224 31.5722 13.6688 31.5434 13.7194 31.525C13.7701 31.5066 13.8238 31.4991 13.8774 31.5029C13.931 31.5067 13.9832 31.5218 14.0309 31.5472C16.0665 32.6375 18.1141 33.7327 20.1737 34.8329C22.9103 36.3129 25.7441 37.8114 28.2286 40.0648C28.2979 40.1269 28.3438 40.212 28.3583 40.3053C28.3728 40.3986 28.3549 40.4942 28.3078 40.5754C23.8501 48.1716 19.5112 55.9824 15.4135 63.797C15.3785 63.8633 15.3264 63.9184 15.2628 63.9562C15.1993 63.9941 15.1269 64.0132 15.0535 64.0116V64.0116Z" fill="black"/>
<path d="M27.5451 40.2493C27.478 40.2506 27.4119 40.2327 27.3543 40.1975C27.2631 40.146 27.1956 40.0593 27.1665 39.9566C27.1375 39.854 27.1493 39.7436 27.1994 39.6499L28.7766 36.7157C24.6904 34.0532 20.4546 31.6415 16.0912 29.4932C15.6263 30.3394 15.2103 31.2128 14.8453 32.1092C14.7953 32.1914 14.7184 32.2526 14.6284 32.2817C14.5384 32.3109 14.4413 32.306 14.3544 32.2681C14.2676 32.2302 14.1968 32.1617 14.1548 32.0749C14.1127 31.9881 14.1022 31.8887 14.1252 31.7946C14.5529 30.7522 15.0448 29.7388 15.5979 28.7606C15.6478 28.6726 15.7283 28.6074 15.8231 28.5779C15.9179 28.5483 16.0201 28.5568 16.1092 28.6015C20.7281 30.8601 25.2064 33.4106 29.5183 36.2384C29.6016 36.2947 29.6615 36.3809 29.6861 36.4801C29.7108 36.5794 29.6985 36.6846 29.6515 36.7749L27.8944 40.0421C27.8602 40.1061 27.8095 40.1593 27.7479 40.1959C27.6864 40.2324 27.6162 40.2509 27.5451 40.2493V40.2493Z" fill="black"/>
<path d="M52.6466 11.1002H52.5782C52.476 11.0812 52.3851 11.0217 52.3251 10.9344C52.2652 10.8472 52.241 10.7393 52.2578 10.6339C52.5518 8.87647 52.4703 7.07429 52.0189 5.35241C51.5675 3.63052 50.757 2.03015 49.6436 0.66227C49.5763 0.58033 49.5434 0.474264 49.5522 0.367404C49.561 0.260544 49.6107 0.161646 49.6904 0.0924627C49.7702 0.0232798 49.8734 -0.0105162 49.9774 -0.00149552C50.0814 0.00752513 50.1776 0.0586253 50.2449 0.140565C51.4316 1.59973 52.2958 3.30634 52.7776 5.14239C53.2594 6.97844 53.3474 8.90012 53.0355 10.7745C53.0172 10.8666 52.9685 10.9493 52.8976 11.0087C52.8267 11.068 52.7381 11.1003 52.6466 11.1002V11.1002Z" fill="black"/>
<path d="M56.8015 10.5855H56.7475C56.6962 10.5787 56.6468 10.5614 56.6021 10.5348C56.5574 10.5081 56.5183 10.4725 56.4871 10.4302C56.4559 10.3878 56.4333 10.3394 56.4205 10.288C56.4077 10.2365 56.405 10.1829 56.4126 10.1304C56.7573 7.53955 56.6352 4.90569 56.0526 2.36024C56.0298 2.25532 56.0479 2.1454 56.1031 2.05409C56.1583 1.96277 56.2462 1.89733 56.3478 1.87183C56.3982 1.85978 56.4504 1.85808 56.5014 1.86683C56.5524 1.87557 56.6012 1.89458 56.645 1.92278C56.6889 1.95097 56.7269 1.98779 56.7568 2.03111C56.7867 2.07444 56.8081 2.12342 56.8195 2.17524C57.4281 4.81824 57.5575 7.55388 57.2012 10.2451C57.1863 10.3421 57.1375 10.4302 57.0639 10.4929C56.9904 10.5555 56.897 10.5885 56.8015 10.5855V10.5855Z" fill="black"/>
<path d="M11.9511 25.1379C11.8659 25.1375 11.7831 25.1088 11.715 25.0562C11.6468 25.0035 11.5971 24.9297 11.5731 24.8456C10.5971 21.245 10.7343 17.4216 11.9655 13.9045C12.0025 13.8062 12.0755 13.7266 12.1688 13.6829C12.2621 13.6391 12.3684 13.6346 12.4649 13.6704C12.5615 13.7062 12.6405 13.7794 12.6851 13.8744C12.7297 13.9693 12.7364 14.0784 12.7037 14.1784C11.5316 17.5373 11.4057 21.1879 12.3436 24.6236C12.3713 24.7271 12.3581 24.8377 12.3069 24.9313C12.2556 25.0248 12.1705 25.0938 12.07 25.1231C12.0314 25.1348 11.9913 25.1399 11.9511 25.1379Z" fill="black"/>
</g>
<defs>
<clipPath id="clip0_1893_1850">
<rect width="68" height="64" fill="white"/>
</clipPath>
</defs>
</svg>
