<svg width="56" height="60" viewBox="0 0 56 60" fill="none" xmlns="http://www.w3.org/2000/svg">
<g clip-path="url(#clip0_1_10415)">
<path d="M28.0025 0.716309C12.9364 0.716309 0.724733 13.2553 0.724733 28.7231C0.70666 34.8396 2.67303 40.8006 6.33509 45.7309L2.99747 59.2836L14.44 53.0214C18.5381 55.4479 23.2255 56.7297 28.0025 56.73C43.0686 56.73 55.2802 44.191 55.2802 28.7231C55.2802 13.2553 43.0686 0.716309 28.0025 0.716309Z" fill="white"/>
<path d="M2.9975 60C2.88755 60.0001 2.77901 59.9756 2.68009 59.9281C2.58116 59.8807 2.49446 59.8116 2.42653 59.7262C2.3586 59.6407 2.31123 59.5411 2.28802 59.4349C2.2648 59.3286 2.26633 59.2186 2.29251 59.113L5.55124 45.8674C1.9152 40.8703 -0.0279468 34.864 5.42854e-05 28.7085C5.42854e-05 12.8703 12.5617 -0.0146484 28.0025 -0.0146484C43.4433 -0.0146484 56.005 12.8703 56.005 28.7085C56.005 44.5467 43.4433 57.4317 28.0025 57.4317C23.2374 57.427 18.5571 56.1851 14.4302 53.8304L3.32781 59.9123C3.22616 59.9666 3.11303 59.9966 2.9975 60ZM28.0025 1.43272C13.3604 1.43272 1.44948 13.6744 1.44948 28.7232C1.42655 34.683 3.3434 40.4921 6.91686 45.2924C6.98017 45.3765 7.02403 45.4734 7.04532 45.5761C7.06662 45.6788 7.06484 45.7849 7.04011 45.8869L4.0821 57.8508L14.0802 52.3781C14.1896 52.3157 14.3137 52.2828 14.4401 52.2828C14.5664 52.2828 14.6905 52.3157 14.7999 52.3781C18.7887 54.7327 23.3468 55.9787 27.9927 55.9844C42.6348 55.9844 54.5457 43.7427 54.5457 28.6939C54.5457 13.6452 42.6447 1.43272 28.0025 1.43272Z" fill="black" stroke="white" stroke-width="0.5"/>
<path d="M28.6976 42.1832L17.6938 26.8323C16.8194 25.608 16.4611 24.0955 16.6948 22.6148C16.9285 21.134 17.7359 19.8013 18.946 18.8986C19.5405 18.4613 20.2179 18.1467 20.9379 17.9734C21.6579 17.8001 22.4058 17.7718 23.1371 17.89C23.8684 18.0082 24.5681 18.2705 25.1948 18.6615C25.8214 19.0524 26.3621 19.5639 26.7848 20.1656L28.6976 22.8264L30.6055 20.1656C31.0281 19.5639 31.5689 19.0524 32.1955 18.6615C32.8222 18.2705 33.5219 18.0082 34.2532 17.89C34.9845 17.7718 35.7324 17.8001 36.4524 17.9734C37.1724 18.1467 37.8498 18.4613 38.4442 18.8986C39.6544 19.8013 40.4618 21.134 40.6955 22.6148C40.9292 24.0955 40.5709 25.608 39.6965 26.8323L28.6976 42.1832Z" fill="#F7DDD9"/>
<path d="M28.6976 42.8994C28.5816 42.8998 28.4673 42.8726 28.3643 42.82C28.2613 42.7674 28.1727 42.691 28.106 42.5972L17.1318 27.2464C16.1484 25.8697 15.7451 24.169 16.0074 22.5038C16.2696 20.8386 17.1767 19.3394 18.5368 18.3234C19.2094 17.828 19.9759 17.4713 20.7907 17.2747C21.6055 17.078 22.4521 17.0453 23.2799 17.1785C24.1078 17.3117 24.9001 17.6081 25.6098 18.0501C26.3194 18.492 26.9319 19.0706 27.4108 19.7512L28.7321 21.5885L30.0484 19.7512C30.5273 19.0706 31.1398 18.492 31.8495 18.0501C32.5591 17.6081 33.3515 17.3117 34.1793 17.1785C35.0072 17.0453 35.8537 17.078 36.6685 17.2747C37.4833 17.4713 38.2498 17.828 38.9224 18.3234C40.2777 19.3437 41.1791 20.8445 41.4366 22.5091C41.6941 24.1738 41.2876 25.8722 40.3028 27.2464L29.299 42.5972C29.2317 42.6926 29.1416 42.7702 29.0366 42.8229C28.9317 42.8756 28.8152 42.9019 28.6976 42.8994ZM22.2343 18.5329C21.2035 18.5333 20.2004 18.8632 19.3749 19.4734C18.3184 20.2658 17.6143 21.4327 17.4111 22.7281C17.2078 24.0236 17.5213 25.3464 18.2854 26.4179L28.6976 40.9452L39.1048 26.4179C39.8689 25.3464 40.1824 24.0236 39.9792 22.7281C39.7759 21.4327 39.0718 20.2658 38.0153 19.4734C37.5026 19.0904 36.917 18.8136 36.2935 18.6595C35.67 18.5054 35.0215 18.4773 34.3868 18.5768C33.7444 18.6787 33.1292 18.9073 32.5779 19.2489C32.0266 19.5904 31.5503 20.038 31.1774 20.5651L29.2695 23.2259C29.1999 23.3149 29.1106 23.387 29.0085 23.4365C28.9064 23.4861 28.7941 23.5119 28.6803 23.5119C28.5665 23.5119 28.4543 23.4861 28.3521 23.4365C28.25 23.387 28.1607 23.3149 28.0912 23.2259L26.1833 20.5651C25.7405 19.9358 25.1509 19.4213 24.4644 19.065C23.7779 18.7087 23.0146 18.5212 22.2393 18.5183L22.2343 18.5329Z" fill="black" stroke="white" stroke-width="0.5"/>
<g opacity="0.13">
<path opacity="0.13" d="M50.4192 44.5808C51.6221 42.3829 52.7511 40.1363 53.8702 37.8897C53.7789 37.8411 53.6851 37.7972 53.5892 37.7582C52.2433 37.4122 51.7947 38.996 51.1242 39.8049C49.7537 41.6324 49.0782 42.7289 48.0035 43.9034C45.1983 46.7445 40.8599 48.7036 36.7286 51.2621C31.838 54.0788 26.4938 53.6305 21.7216 52.5389C19.5129 52.0515 17.4621 51.0135 15.2633 50.5311C13.3504 50.1217 11.5115 51.0184 10.0424 52.1539C8.85313 53.0428 7.60829 53.8566 6.31531 54.5905C5.59553 55.0291 4.89053 55.497 4.1954 55.9745C4.04076 56.0547 3.90416 56.165 3.79385 56.2988C3.68354 56.4325 3.60181 56.5871 3.55361 56.753C3.50541 56.9188 3.49173 57.0927 3.51341 57.2639C3.53509 57.4352 3.59167 57.6003 3.67973 57.7494C3.76779 57.8984 3.8855 58.0282 4.02576 58.131C4.16602 58.2338 4.3259 58.3075 4.49575 58.3475C4.6656 58.3874 4.84189 58.393 5.01397 58.3638C5.18605 58.3345 5.35034 58.2711 5.49692 58.1773C7.72036 56.7153 10.0769 55.5165 12.2412 53.9814C13.6117 53.1139 13.9864 53.2406 14.509 53.2553C16.7078 53.84 18.734 54.9658 20.9476 55.5359C27.401 57.2855 33.8149 57.0515 39.4696 53.2211C42.7432 51.0379 46.3717 49.264 49.2754 46.5642C49.6698 45.9258 50.0494 45.263 50.4192 44.5808Z" fill="black"/>
</g>
</g>
<defs>
<clipPath id="clip0_1_10415">
<rect width="56" height="60" fill="white"/>
</clipPath>
</defs>
</svg>
