<svg width="50" height="60" viewBox="0 0 50 60" fill="none" xmlns="http://www.w3.org/2000/svg">
<g clip-path="url(#clip0_1893_2083)">
<path d="M27.9252 1.27246H7.31296C3.81562 1.27246 0.980469 4.12413 0.980469 7.64183V53.1244C0.980469 56.6421 3.81562 59.4937 7.31296 59.4937H27.9252C31.4225 59.4937 34.2577 56.6421 34.2577 53.1244V7.64183C34.2577 4.12413 31.4225 1.27246 27.9252 1.27246Z" fill="#ACD4F7"/>
<path d="M27.9361 59.8818H7.30282C5.52395 59.8802 3.8184 59.1688 2.56055 57.9036C1.3027 56.6384 0.595345 54.9229 0.59375 53.1337V7.62998C0.595345 5.84075 1.3027 4.12527 2.56055 2.86009C3.8184 1.59492 5.52395 0.883441 7.30282 0.881836H27.9361C29.715 0.883441 31.4206 1.59492 32.6784 2.86009C33.9363 4.12527 34.6436 5.84075 34.6452 7.62998V53.1337C34.6436 54.9229 33.9363 56.6384 32.6784 57.9036C31.4206 59.1688 29.715 59.8802 27.9361 59.8818V59.8818ZM7.30282 1.66059C5.72929 1.66219 4.22067 2.29162 3.10802 3.41075C1.99537 4.52988 1.36958 6.04729 1.36799 7.62998V53.1337C1.36958 54.7164 1.99537 56.2338 3.10802 57.3529C4.22067 58.4721 5.72929 59.1015 7.30282 59.1031H27.9361C29.5094 59.1007 31.0176 58.471 32.1301 57.352C33.2425 56.2331 33.8686 54.7161 33.871 53.1337V7.62998C33.8686 6.04753 33.2425 4.53059 32.1301 3.41163C31.0176 2.29267 29.5094 1.66299 27.9361 1.66059H7.30282Z" fill="black"/>
<path d="M34.2577 7.46289H0.980469V51.3667H34.2577V7.46289Z" fill="white"/>
<path d="M34.2566 51.7548H0.979375C0.877104 51.7548 0.779019 51.714 0.706702 51.6412C0.634386 51.5685 0.593762 51.4698 0.593762 51.367V7.46316C0.593364 7.41197 0.603043 7.36121 0.622244 7.3138C0.641445 7.26639 0.669784 7.22327 0.705631 7.18694C0.741478 7.1506 0.784125 7.12176 0.831107 7.10208C0.878089 7.0824 0.928481 7.07226 0.979375 7.07227H34.2566C34.3597 7.07227 34.4585 7.11345 34.5314 7.18676C34.6043 7.26006 34.6452 7.35949 34.6452 7.46316V51.367C34.6452 51.4181 34.6352 51.4688 34.6156 51.5161C34.596 51.5633 34.5673 51.6062 34.5312 51.6423C34.4951 51.6783 34.4522 51.7069 34.4051 51.7262C34.358 51.7455 34.3075 51.7552 34.2566 51.7548V51.7548ZM1.35896 50.9761H33.871V7.85102H1.35896V50.9761Z" fill="black"/>
<path d="M20.9419 54.9121H14.9619C14.9082 54.9169 14.8541 54.9104 14.803 54.893C14.7519 54.8756 14.705 54.8477 14.6653 54.811C14.6255 54.7744 14.5937 54.7299 14.572 54.6802C14.5503 54.6306 14.5391 54.577 14.5391 54.5227C14.5391 54.4685 14.5503 54.4149 14.572 54.3652C14.5937 54.3156 14.6255 54.271 14.6653 54.2344C14.705 54.1978 14.7519 54.1699 14.803 54.1525C14.8541 54.1351 14.9082 54.1286 14.9619 54.1334H20.9419C20.9956 54.1286 21.0497 54.1351 21.1008 54.1525C21.1518 54.1699 21.1987 54.1978 21.2385 54.2344C21.2783 54.271 21.31 54.3156 21.3318 54.3652C21.3535 54.4149 21.3647 54.4685 21.3647 54.5227C21.3647 54.577 21.3535 54.6306 21.3318 54.6802C21.31 54.7299 21.2783 54.7744 21.2385 54.811C21.1987 54.8477 21.1518 54.8756 21.1008 54.893C21.0497 54.9104 20.9956 54.9169 20.9419 54.9121V54.9121Z" fill="black"/>
<path d="M21.2431 15.9658H6.52047C6.46676 15.9706 6.41265 15.9641 6.36159 15.9467C6.31052 15.9293 6.26361 15.9014 6.22384 15.8647C6.18408 15.8281 6.15233 15.7836 6.1306 15.7339C6.10888 15.6843 6.09766 15.6307 6.09766 15.5764C6.09766 15.5222 6.10888 15.4686 6.1306 15.4189C6.15233 15.3693 6.18408 15.3248 6.22384 15.2881C6.26361 15.2515 6.31052 15.2236 6.36159 15.2062C6.41265 15.1888 6.46676 15.1823 6.52047 15.1871H21.2431C21.3398 15.1957 21.4299 15.2404 21.4955 15.3125C21.5611 15.3845 21.5975 15.4787 21.5975 15.5764C21.5975 15.6742 21.5611 15.7683 21.4955 15.8404C21.4299 15.9125 21.3398 15.9572 21.2431 15.9658V15.9658Z" fill="black"/>
<path d="M13.8772 25.0742H6.52047C6.46676 25.079 6.41265 25.0725 6.36159 25.0551C6.31052 25.0377 6.26361 25.0098 6.22384 24.9731C6.18408 24.9365 6.15233 24.892 6.1306 24.8423C6.10888 24.7927 6.09766 24.7391 6.09766 24.6848C6.09766 24.6306 6.10888 24.577 6.1306 24.5273C6.15233 24.4777 6.18408 24.4332 6.22384 24.3965C6.26361 24.3599 6.31052 24.332 6.36159 24.3146C6.41265 24.2972 6.46676 24.2907 6.52047 24.2955H13.8772C13.931 24.2907 13.9851 24.2972 14.0361 24.3146C14.0872 24.332 14.1341 24.3599 14.1739 24.3965C14.2136 24.4332 14.2454 24.4777 14.2671 24.5273C14.2888 24.577 14.3001 24.6306 14.3001 24.6848C14.3001 24.7391 14.2888 24.7927 14.2671 24.8423C14.2454 24.892 14.2136 24.9365 14.1739 24.9731C14.1341 25.0098 14.0872 25.0377 14.0361 25.0551C13.9851 25.0725 13.931 25.079 13.8772 25.0742V25.0742Z" fill="black"/>
<path d="M13.8772 34.1836H6.52047C6.46676 34.1884 6.41265 34.1818 6.36159 34.1644C6.31052 34.147 6.26361 34.1191 6.22384 34.0825C6.18408 34.0459 6.15233 34.0014 6.1306 33.9517C6.10888 33.9021 6.09766 33.8484 6.09766 33.7942C6.09766 33.74 6.10888 33.6863 6.1306 33.6367C6.15233 33.5871 6.18408 33.5425 6.22384 33.5059C6.26361 33.4693 6.31052 33.4414 6.36159 33.424C6.41265 33.4066 6.46676 33.4001 6.52047 33.4048H13.8772C13.931 33.4001 13.9851 33.4066 14.0361 33.424C14.0872 33.4414 14.1341 33.4693 14.1739 33.5059C14.2136 33.5425 14.2454 33.5871 14.2671 33.6367C14.2888 33.6863 14.3001 33.74 14.3001 33.7942C14.3001 33.8484 14.2888 33.9021 14.2671 33.9517C14.2454 34.0014 14.2136 34.0459 14.1739 34.0825C14.1341 34.1191 14.0872 34.147 14.0361 34.1644C13.9851 34.1818 13.931 34.1884 13.8772 34.1836V34.1836Z" fill="black"/>
<path d="M13.8772 43.3037H6.52047C6.46676 43.3085 6.41265 43.3019 6.36159 43.2845C6.31052 43.2671 6.26361 43.2392 6.22384 43.2026C6.18408 43.166 6.15233 43.1215 6.1306 43.0718C6.10888 43.0222 6.09766 42.9686 6.09766 42.9143C6.09766 42.8601 6.10888 42.8065 6.1306 42.7568C6.15233 42.7072 6.18408 42.6626 6.22384 42.626C6.26361 42.5894 6.31052 42.5615 6.36159 42.5441C6.41265 42.5267 6.46676 42.5202 6.52047 42.525H13.8772C13.931 42.5202 13.9851 42.5267 14.0361 42.5441C14.0872 42.5615 14.1341 42.5894 14.1739 42.626C14.2136 42.6626 14.2454 42.7072 14.2671 42.7568C14.2888 42.8065 14.3001 42.8601 14.3001 42.9143C14.3001 42.9686 14.2888 43.0222 14.2671 43.0718C14.2454 43.1215 14.2136 43.166 14.1739 43.2026C14.1341 43.2392 14.0872 43.2671 14.0361 43.2845C13.9851 43.3019 13.931 43.3085 13.8772 43.3037V43.3037Z" fill="black"/>
<path d="M37.7766 17.502H30.7422V47.1065H37.7766V17.502Z" fill="white"/>
<path d="M37.7746 47.4946H30.7402C30.6893 47.495 30.6388 47.4853 30.5917 47.466C30.5446 47.4467 30.5017 47.4182 30.4656 47.3821C30.4294 47.346 30.4008 47.3031 30.3812 47.2559C30.3616 47.2086 30.3516 47.158 30.3516 47.1068V17.5022C30.3516 17.3985 30.3925 17.2991 30.4654 17.2258C30.5383 17.1525 30.6371 17.1113 30.7402 17.1113H37.7746C37.8255 17.1113 37.8759 17.1215 37.9229 17.1411C37.9699 17.1608 38.0125 17.1897 38.0484 17.226C38.0842 17.2623 38.1126 17.3055 38.1318 17.3529C38.151 17.4003 38.1606 17.451 38.1602 17.5022V47.1068C38.1602 47.2096 38.1196 47.3083 38.0473 47.381C37.975 47.4538 37.8769 47.4946 37.7746 47.4946ZM31.1258 46.7159H37.386V17.8931H31.1258V46.7159Z" fill="black"/>
<path d="M49.2063 27.7529H42.1719V47.1065H49.2063V27.7529Z" fill="#ACD4F7"/>
<path d="M49.2043 47.4946H42.1699C42.119 47.495 42.0685 47.4853 42.0214 47.466C41.9742 47.4466 41.9314 47.4181 41.8953 47.3821C41.8591 47.346 41.8305 47.3031 41.8109 47.2559C41.7913 47.2086 41.7812 47.1579 41.7813 47.1067V27.7532C41.7813 27.6495 41.8222 27.5501 41.8951 27.4768C41.968 27.4035 42.0668 27.3623 42.1699 27.3623H49.2043C49.2553 27.3623 49.3059 27.3724 49.353 27.3921C49.4002 27.4117 49.443 27.4405 49.4791 27.4768C49.5152 27.5131 49.5438 27.5562 49.5634 27.6036C49.5829 27.651 49.5929 27.7019 49.5929 27.7532V47.1067C49.5929 47.1579 49.5829 47.2086 49.5633 47.2559C49.5437 47.3031 49.5151 47.346 49.4789 47.3821C49.4428 47.4181 49.3999 47.4466 49.3528 47.466C49.3057 47.4853 49.2552 47.495 49.2043 47.4946V47.4946ZM42.5555 46.7159H48.8187V28.1532H42.5555V46.7159Z" fill="black"/>
<path d="M26.3469 24.5049H19.3125V47.1037H26.3469V24.5049Z" fill="white"/>
<path d="M26.3419 47.4944H19.3075C19.2052 47.4944 19.1071 47.4535 19.0348 47.3808C18.9625 47.3081 18.9219 47.2094 18.9219 47.1065V24.5168C18.9219 24.4139 18.9625 24.3153 19.0348 24.2425C19.1071 24.1698 19.2052 24.1289 19.3075 24.1289H26.3419C26.3928 24.1285 26.4433 24.1383 26.4904 24.1576C26.5376 24.1769 26.5804 24.2054 26.6165 24.2414C26.6527 24.2775 26.6813 24.3204 26.7009 24.3676C26.7205 24.4149 26.7306 24.4656 26.7305 24.5168V47.1187C26.7274 47.2199 26.685 47.3159 26.6124 47.3862C26.5397 47.4564 26.4427 47.4952 26.3419 47.4944V47.4944ZM19.6961 46.7156H25.9563V24.8986H19.6961V46.7156Z" fill="black"/>
<path d="M21.5174 46.1067C21.4894 46.1076 21.4618 46.0991 21.4391 46.0825C20.988 45.7514 20.5555 45.3953 20.1437 45.0159C20.1316 45.0037 20.122 44.9893 20.1154 44.9735C20.1088 44.9576 20.1055 44.9406 20.1055 44.9234C20.1055 44.9063 20.1088 44.8893 20.1154 44.8734C20.122 44.8575 20.1316 44.8431 20.1437 44.831C20.1687 44.8078 20.2015 44.7949 20.2356 44.7949C20.2696 44.7949 20.3024 44.8078 20.3275 44.831C20.7314 45.2063 21.157 45.5574 21.6018 45.8825C21.6293 45.903 21.6476 45.9337 21.6527 45.9678C21.6578 46.0018 21.6492 46.0365 21.6289 46.0643C21.6152 46.08 21.5979 46.0921 21.5785 46.0995C21.559 46.1069 21.5381 46.1094 21.5174 46.1067V46.1067Z" fill="black"/>
<path d="M23.8395 46.0644C23.8089 46.0636 23.7794 46.053 23.7551 46.0341L20.2003 43.0464C20.187 43.0358 20.176 43.0227 20.1678 43.0077C20.1597 42.9927 20.1547 42.9763 20.153 42.9593C20.1513 42.9424 20.153 42.9253 20.158 42.909C20.163 42.8927 20.1713 42.8776 20.1822 42.8646C20.2044 42.8381 20.2361 42.8214 20.2704 42.818C20.3047 42.8146 20.339 42.8248 20.3659 42.8464L23.9208 45.8341C23.9469 45.856 23.9635 45.8873 23.9669 45.9213C23.9702 45.9553 23.9602 45.9893 23.9389 46.016C23.9266 46.0306 23.9115 46.0425 23.8943 46.0508C23.8772 46.0592 23.8585 46.0638 23.8395 46.0644V46.0644Z" fill="black"/>
<path d="M25.3013 44.7555C25.2729 44.7553 25.2454 44.7457 25.223 44.7282L20.204 40.8799C20.1902 40.8698 20.1787 40.857 20.17 40.8423C20.1613 40.8275 20.1557 40.8112 20.1535 40.7942C20.1512 40.7772 20.1524 40.76 20.1569 40.7435C20.1615 40.7269 20.1693 40.7115 20.1799 40.6981C20.2007 40.6709 20.2314 40.6531 20.2653 40.6486C20.2991 40.6441 20.3334 40.6532 20.3606 40.6739L25.3796 44.5161C25.4009 44.5327 25.4165 44.5556 25.4243 44.5815C25.4321 44.6074 25.4317 44.6352 25.423 44.6608C25.4144 44.6865 25.3981 44.7088 25.3762 44.7247C25.3544 44.7406 25.3282 44.7492 25.3013 44.7494V44.7555Z" fill="black"/>
<path d="M25.3666 42.4493C25.3418 42.4498 25.3176 42.4424 25.2973 42.4281C23.556 41.2737 21.8418 40.0313 20.206 38.7374C20.1925 38.7271 20.1812 38.7141 20.1728 38.6992C20.1644 38.6844 20.1591 38.668 20.1571 38.651C20.1551 38.6341 20.1566 38.6169 20.1614 38.6005C20.1661 38.5841 20.1741 38.5688 20.1849 38.5556C20.2062 38.5289 20.2371 38.5117 20.271 38.5077C20.3048 38.5037 20.3388 38.5133 20.3657 38.5344C21.9955 39.8253 23.7036 41.0616 25.4389 42.21C25.4624 42.2254 25.4802 42.248 25.4898 42.2745C25.4994 42.301 25.5002 42.33 25.492 42.3569C25.4839 42.3839 25.4672 42.4075 25.4446 42.4242C25.422 42.4408 25.3946 42.4497 25.3666 42.4493V42.4493Z" fill="black"/>
<path d="M25.2983 40.0645C25.2723 40.0639 25.2471 40.0555 25.226 40.0403C23.5329 38.8646 21.8458 37.6344 20.213 36.3829C20.1965 36.3741 20.1822 36.3617 20.1709 36.3468C20.1596 36.3318 20.1516 36.3145 20.1476 36.2962C20.1436 36.2779 20.1435 36.2589 20.1474 36.2405C20.1514 36.2221 20.1592 36.2048 20.1704 36.1898C20.1816 36.1748 20.196 36.1624 20.2124 36.1534C20.2288 36.1445 20.2469 36.1392 20.2656 36.138C20.2842 36.1367 20.3029 36.1396 20.3204 36.1463C20.3378 36.153 20.3536 36.1634 20.3667 36.1769C21.9995 37.4253 23.6805 38.6555 25.3736 39.813C25.3959 39.8291 25.4126 39.8519 25.4213 39.8781C25.4299 39.9043 25.4301 39.9326 25.4217 39.9589C25.4133 39.9852 25.3969 40.0081 25.3747 40.0244C25.3525 40.0406 25.3257 40.0494 25.2983 40.0494V40.0645Z" fill="black"/>
<path d="M25.2739 37.6651C25.247 37.6646 25.2209 37.6562 25.1986 37.6409L20.1435 34.0714C20.1291 34.0619 20.1167 34.0496 20.1072 34.0352C20.0976 34.0208 20.0911 34.0046 20.088 33.9876C20.0849 33.9706 20.0853 33.9531 20.0891 33.9363C20.093 33.9194 20.1002 33.9035 20.1103 33.8896C20.1202 33.8756 20.1327 33.8638 20.1472 33.8547C20.1616 33.8457 20.1777 33.8395 20.1945 33.8367C20.2113 33.8339 20.2284 33.8345 20.245 33.8383C20.2616 33.8422 20.2772 33.8493 20.2911 33.8593L25.3462 37.4288C25.3684 37.4447 25.385 37.4672 25.3937 37.4931C25.4025 37.519 25.4028 37.547 25.3948 37.5732C25.3868 37.5993 25.3709 37.6223 25.3492 37.6388C25.3275 37.6553 25.3011 37.6645 25.2739 37.6651V37.6651Z" fill="black"/>
<path d="M25.2939 35.444C25.268 35.4429 25.243 35.4345 25.2216 35.4198C23.5075 34.2804 21.8023 33.0684 20.1574 31.826C20.1425 31.8164 20.1296 31.8038 20.1197 31.789C20.1098 31.7742 20.103 31.7575 20.0998 31.7399C20.0966 31.7224 20.097 31.7043 20.101 31.6869C20.105 31.6695 20.1125 31.6531 20.123 31.6388C20.1336 31.6244 20.1469 31.6124 20.1623 31.6035C20.1777 31.5945 20.1947 31.5888 20.2123 31.5868C20.23 31.5847 20.2478 31.5864 20.2648 31.5916C20.2818 31.5967 20.2976 31.6054 20.3111 31.6169C21.953 32.8593 23.6521 34.0653 25.3662 35.2046C25.3897 35.2201 25.4076 35.2427 25.4171 35.2692C25.4267 35.2957 25.4275 35.3246 25.4193 35.3516C25.4112 35.3786 25.3946 35.4022 25.372 35.4188C25.3493 35.4355 25.322 35.4443 25.2939 35.444Z" fill="black"/>
<path d="M25.1387 32.8408C25.1118 32.8402 25.0856 32.8318 25.0634 32.8165L20.2613 29.347C20.2475 29.3371 20.2357 29.3245 20.2267 29.31C20.2177 29.2954 20.2116 29.2793 20.2088 29.2624C20.206 29.2455 20.2065 29.2282 20.2104 29.2116C20.2142 29.1949 20.2213 29.1791 20.2312 29.1652C20.2408 29.151 20.2532 29.1388 20.2676 29.1295C20.2821 29.1202 20.2982 29.1139 20.3151 29.1111C20.332 29.1083 20.3493 29.1089 20.366 29.113C20.3826 29.1171 20.3982 29.1246 20.4119 29.1349L25.214 32.6044C25.2279 32.6144 25.2396 32.627 25.2487 32.6415C25.2577 32.656 25.2637 32.6722 25.2665 32.689C25.2693 32.7059 25.2688 32.7232 25.265 32.7399C25.2611 32.7566 25.254 32.7723 25.2442 32.7862C25.2318 32.8028 25.2159 32.8163 25.1977 32.8257C25.1794 32.8352 25.1592 32.8403 25.1387 32.8408Z" fill="black"/>
<path d="M25.1207 30.5108C25.0945 30.5115 25.0689 30.5029 25.0484 30.4866C23.4457 29.3563 21.84 28.1837 20.2824 26.9989C20.2675 26.9893 20.2546 26.9767 20.2447 26.9618C20.2348 26.947 20.228 26.9303 20.2248 26.9128C20.2216 26.8952 20.222 26.8772 20.226 26.8598C20.23 26.8424 20.2375 26.826 20.248 26.8116C20.2586 26.7973 20.2719 26.7853 20.2873 26.7763C20.3027 26.7674 20.3197 26.7617 20.3373 26.7596C20.355 26.7576 20.3728 26.7592 20.3898 26.7644C20.4068 26.7696 20.4226 26.7782 20.4361 26.7898C21.9936 27.9746 23.5963 29.1472 25.196 30.2745C25.2098 30.2844 25.2216 30.297 25.2306 30.3115C25.2396 30.326 25.2457 30.3422 25.2485 30.3591C25.2513 30.376 25.2508 30.3932 25.2469 30.4099C25.2431 30.4266 25.236 30.4423 25.2261 30.4563C25.2145 30.4735 25.1988 30.4876 25.1803 30.4971C25.1619 30.5066 25.1414 30.5113 25.1207 30.5108V30.5108Z" fill="black"/>
<path d="M25.2934 28.3591C25.265 28.3589 25.2375 28.3493 25.2151 28.3319L21.9825 25.8653C21.9661 25.8565 21.9517 25.8441 21.9404 25.8292C21.9291 25.8142 21.9212 25.797 21.9171 25.7786C21.9131 25.7603 21.913 25.7413 21.917 25.7229C21.9209 25.7046 21.9288 25.6873 21.94 25.6722C21.9512 25.6572 21.9655 25.6448 21.9819 25.6358C21.9983 25.6269 22.0165 25.6216 22.0351 25.6204C22.0538 25.6192 22.0724 25.622 22.0899 25.6287C22.1073 25.6354 22.1231 25.6459 22.1362 25.6593L25.3717 28.1258C25.3988 28.1468 25.4165 28.1777 25.421 28.2117C25.4255 28.2458 25.4164 28.2802 25.3958 28.3076C25.384 28.3237 25.3685 28.3368 25.3507 28.3457C25.3329 28.3547 25.3133 28.3593 25.2934 28.3591V28.3591Z" fill="black"/>
<path d="M25.2886 26.2955C25.2599 26.2942 25.2324 26.2836 25.2102 26.2652L24.3818 25.5986C24.3683 25.5882 24.357 25.5752 24.3486 25.5604C24.3402 25.5455 24.3349 25.5291 24.3329 25.5122C24.3309 25.4952 24.3324 25.478 24.3371 25.4616C24.3419 25.4452 24.3499 25.43 24.3607 25.4168C24.3824 25.3907 24.4133 25.374 24.4469 25.37C24.4805 25.3661 24.5143 25.3752 24.5414 25.3956L25.3699 26.0622C25.3914 26.0789 25.4071 26.1021 25.4149 26.1283C25.4226 26.1545 25.4219 26.1825 25.4129 26.2083C25.4039 26.2342 25.387 26.2565 25.3647 26.2721C25.3424 26.2878 25.3158 26.2959 25.2886 26.2955V26.2955Z" fill="black"/>
<g opacity="0.13">
<path opacity="0.13" d="M32.0286 7.54778C30.8958 7.51445 29.7601 7.46293 28.6243 7.47505C25.5695 7.44475 22.5138 7.44475 19.457 7.47505C17.0469 7.49323 14.6368 7.59323 12.2448 7.4296C9.29546 7.3387 6.34913 7.16295 3.39979 7.28112C2.98405 7.28112 2.57132 7.28113 2.1586 7.26598C1.90876 7.21287 1.64868 7.23935 1.41448 7.34173C0.287769 7.77504 0.637231 9.52949 1.8483 9.51737C3.28832 9.6204 4.73136 9.51737 6.17139 9.53859C7.89159 9.53859 9.60576 9.67494 11.3199 9.7113C17.7308 9.75069 24.1446 9.77493 30.5524 9.66282C31.405 9.66282 32.2575 9.66282 33.1071 9.64161C33.812 9.72039 34.529 9.38707 34.5381 8.58712C34.4507 7.22052 32.9926 7.59323 32.0286 7.54778Z" fill="black"/>
</g>
<g opacity="0.13">
<path opacity="0.13" d="M26.2474 46.8942C25.0785 46.7488 23.8795 46.8942 22.7016 46.8033C21.9213 46.77 21.1411 46.7215 20.3578 46.7306C19.9842 46.7609 19.5745 46.6791 19.228 46.8397C18.1857 47.2397 18.5171 48.8547 19.6287 48.8396C21.2375 48.782 22.8432 48.9426 24.4489 48.9275C24.9189 48.9275 25.3888 48.8881 25.8618 48.8851C26.0781 48.8824 26.2908 48.8284 26.4824 48.7275C26.6483 48.6256 26.7813 48.4776 26.8654 48.3014C26.9495 48.1251 26.981 47.9281 26.9561 47.7342C26.9313 47.5403 26.8511 47.3578 26.7254 47.2087C26.5996 47.0597 26.4336 46.9504 26.2474 46.8942V46.8942Z" fill="black"/>
</g>
<g opacity="0.13">
<path opacity="0.13" d="M34.2193 47.3007C34.0316 47.1126 33.7792 47.0041 33.5143 46.9977C33.4179 46.9977 33.3215 46.9977 33.2583 46.9977H33.21C32.6399 46.8989 32.0645 46.8331 31.4868 46.8008C31.056 46.7583 30.5831 46.722 30.2577 47.0735C30.1167 47.2199 30.0213 47.4046 29.9833 47.6048C29.9453 47.8051 29.9663 48.0121 30.0438 48.2005C30.1213 48.3888 30.2518 48.5503 30.4193 48.665C30.5869 48.7798 30.7841 48.8427 30.9867 48.8461C31.6977 48.8795 32.3997 49.0007 33.0956 49.0037C33.36 49.0542 33.6332 49.0301 33.8849 48.934C34.0372 48.8725 34.1721 48.7739 34.2774 48.6472C34.3827 48.5205 34.4551 48.3695 34.4882 48.2077C34.5214 48.046 34.5141 47.8785 34.4672 47.7202C34.4203 47.5619 34.3351 47.4178 34.2193 47.3007V47.3007Z" fill="black"/>
</g>
</g>
<defs>
<clipPath id="clip0_1893_2083">
<rect width="49" height="59" fill="white" transform="translate(0.59375 0.881836)"/>
</clipPath>
</defs>
</svg>
