<svg width="12" height="12" viewBox="0 0 12 12" fill="none" xmlns="http://www.w3.org/2000/svg">
<path d="M4.14485 1.33301H2.66536C1.92898 1.33301 1.33203 1.92996 1.33203 2.66634V3.99967C1.33203 7.68157 4.3168 10.6663 7.9987 10.6663H9.33203C10.0684 10.6663 10.6654 10.0694 10.6654 9.33301V8.4117C10.6654 8.15918 10.5227 7.92834 10.2968 7.81541L8.68622 7.0101C8.32335 6.82867 7.88392 7.01069 7.75562 7.39557L7.55711 7.9911C7.42852 8.37686 7.03281 8.6065 6.63409 8.52675C5.03822 8.20758 3.79079 6.96015 3.47162 5.36428C3.39187 4.96556 3.62151 4.56985 4.00727 4.44126L4.74636 4.1949C5.07684 4.08474 5.26679 3.73871 5.1823 3.40075L4.79161 1.83798C4.71741 1.54121 4.45076 1.33301 4.14485 1.33301Z" stroke="white"/>
</svg>
