<svg width="61" height="61" viewBox="0 0 61 61" fill="none" xmlns="http://www.w3.org/2000/svg">
<g clip-path="url(#clip0_1893_2061)">
<path d="M10.8633 8.39619C19.1996 18.7765 30.2266 30.6677 30.2266 30.6677C30.2266 30.6677 32.1521 13.7091 32.9142 1.55992C31.407 1.34974 29.8828 1.28727 28.3634 1.37339C21.8934 1.75267 16.0611 4.61277 10.8633 8.39619Z" fill="#F7DDD9"/>
<path d="M30.2284 31.121C30.1659 31.1207 30.1041 31.1075 30.0469 31.0824C29.9896 31.0573 29.9381 31.0207 29.8956 30.9749C29.7836 30.8567 18.7628 18.9531 10.5105 8.68162C10.472 8.63356 10.4436 8.57822 10.427 8.51892C10.4104 8.45962 10.406 8.39758 10.414 8.33654C10.4223 8.27508 10.4427 8.2159 10.4743 8.1625C10.5058 8.1091 10.5477 8.06256 10.5976 8.02566C16.7161 3.58628 22.5173 1.25778 28.3279 0.915815C29.8775 0.831345 31.4316 0.895889 32.9689 1.10856C33.0824 1.12332 33.1861 1.18068 33.2588 1.26901C33.3316 1.35734 33.3681 1.47002 33.3608 1.58421C32.6049 13.606 30.6888 30.5459 30.667 30.7169C30.657 30.8032 30.6223 30.8849 30.5672 30.9521C30.512 31.0193 30.4387 31.0693 30.356 31.0961C30.3146 31.1094 30.2718 31.1178 30.2284 31.121V31.121ZM11.5307 8.48577C18.542 17.1904 27.4134 26.921 29.8832 29.6257C30.2969 25.8764 31.7713 12.235 32.4338 1.95727C31.0922 1.79713 29.7393 1.75344 28.3901 1.82669C22.8719 2.15001 17.3475 4.32929 11.5307 8.48577Z" fill="black"/>
<path d="M59.8197 34.8641C51.1661 33.7139 32.8945 31.4071 32.8945 31.4071C32.8945 31.4071 35.7252 13.3418 37.4422 2.32422C44.6619 4.12422 50.4164 8.12526 55.2067 13.8268C59.3345 18.717 60.8524 26.1688 59.8197 34.8641Z" fill="white"/>
<path d="M59.8182 35.3183H59.7591C51.205 34.1805 33.0081 31.8987 32.837 31.8613C32.7759 31.8541 32.717 31.8346 32.6635 31.8042C32.6101 31.7738 32.5633 31.733 32.526 31.6841C32.4892 31.6359 32.4625 31.5808 32.4475 31.522C32.4326 31.4633 32.4296 31.4021 32.4389 31.3422C32.4389 31.3422 35.2695 13.2738 36.9865 2.25617C36.997 2.1936 37.02 2.13379 37.0542 2.08036C37.0884 2.02692 37.1331 1.98098 37.1856 1.94529C37.2383 1.91081 37.2975 1.8875 37.3596 1.87681C37.4216 1.86611 37.4852 1.86826 37.5464 1.88312C44.5297 3.62716 50.418 7.43234 55.5474 13.5225C59.7062 18.4655 61.3362 25.8645 60.263 34.9204C60.2559 34.9812 60.2369 35.0399 60.207 35.0933C60.1771 35.1466 60.1369 35.1935 60.0888 35.2313C60.0106 35.2891 59.9155 35.3197 59.8182 35.3183V35.3183ZM33.4156 31.0189C36.2618 31.3764 51.4881 33.3038 59.42 34.3546C60.3532 25.765 58.7979 18.7702 54.8599 14.1069C49.9763 8.30902 44.3959 4.63441 37.8139 2.88726C36.2524 12.8821 33.8604 28.1805 33.4156 31.0189V31.0189Z" fill="black"/>
<path d="M59.4083 37.7866C48.991 36.4312 35.0929 35.1255 29.2855 34.3669C22.352 26.5949 15.5678 19.1089 8.1335 10.7617C-0.299287 20.4208 -1.31645 37.3918 5.69791 47.4705C10.7682 54.7638 19.5836 58.6622 28.3554 60.1047C31.9854 60.6954 35.6528 60.4156 39.2766 59.7783C49.7406 57.9659 58.6525 44.6944 59.4083 37.7866Z" fill="white"/>
<path d="M32.4849 60.8815C31.0754 60.8869 29.6678 60.7767 28.2763 60.552C18.0643 58.8919 9.92389 54.3344 5.31712 47.7344C1.89548 42.8287 0.209547 35.9769 0.65125 28.9323C1.11162 21.7541 3.64052 15.1976 7.77137 10.466C7.81312 10.4169 7.8651 10.3776 7.92367 10.3507C7.98224 10.3239 8.04598 10.3102 8.11042 10.3106V10.3106C8.17423 10.3104 8.23736 10.3236 8.29575 10.3493C8.35414 10.375 8.40651 10.4126 8.44948 10.4598C12.2351 14.7095 15.8807 18.7665 19.4049 22.6867C22.8639 26.5323 26.13 30.1665 29.4957 33.9406C31.9841 34.2515 35.8381 34.6743 40.2925 35.1499C46.4732 35.8121 53.4782 36.5613 59.4506 37.3261C59.5682 37.3409 59.6753 37.4014 59.7486 37.4945C59.822 37.5875 59.8557 37.7057 59.8425 37.8235C59.4412 41.4826 56.8781 46.6432 53.3103 50.9675C49.0799 56.1002 44.1154 59.3831 39.3127 60.2131C37.06 60.6301 34.7758 60.8537 32.4849 60.8815V60.8815ZM8.1322 11.4515C0.268649 20.8836 -0.729848 37.4504 6.06055 47.2028C12.0702 55.839 22.6493 58.7054 28.4225 59.638C31.5331 60.1447 34.9703 60.0422 39.1914 59.3116C49.3816 57.5458 57.8548 44.8028 58.8969 38.1717C53.0365 37.4163 46.2337 36.6888 40.2116 36.0453C35.6515 35.5572 31.7135 35.1375 29.2282 34.8017C29.1194 34.7861 29.0194 34.7334 28.9451 34.6525C25.5421 30.8349 22.2418 27.1634 18.7486 23.2743C15.3301 19.4909 11.7965 15.5613 8.1322 11.4515Z" fill="black"/>
<path d="M37.9685 11.3495C37.9384 11.3509 37.9086 11.3431 37.883 11.3272C37.8574 11.3113 37.8372 11.288 37.8251 11.2604C37.813 11.2328 37.8095 11.2022 37.8151 11.1726C37.8207 11.143 37.8352 11.1158 37.8566 11.0946L42.5225 6.14225C42.5509 6.11489 42.5888 6.09961 42.6282 6.09961C42.6677 6.09961 42.7056 6.11489 42.734 6.14225C42.7484 6.15616 42.7598 6.17283 42.7676 6.19125C42.7754 6.20968 42.7795 6.22949 42.7795 6.2495C42.7795 6.26951 42.7754 6.28932 42.7676 6.30775C42.7598 6.32617 42.7484 6.34284 42.734 6.35675L38.0681 11.3091C38.0412 11.3347 38.0057 11.3491 37.9685 11.3495V11.3495Z" fill="black"/>
<path d="M37.0372 17.1599C37.0183 17.1603 36.9994 17.1569 36.9818 17.15C36.9642 17.143 36.9481 17.1327 36.9345 17.1195C36.9206 17.1056 36.9096 17.0891 36.902 17.071C36.8945 17.0529 36.8906 17.0334 36.8906 17.0138C36.8906 16.9941 36.8945 16.9747 36.902 16.9565C36.9096 16.9384 36.9206 16.9219 36.9345 16.9081C39.8305 13.7993 42.9006 10.7588 46.0579 7.89252C46.0717 7.87861 46.0882 7.86757 46.1064 7.86004C46.1245 7.85251 46.144 7.84863 46.1636 7.84863C46.1833 7.84863 46.2027 7.85251 46.2209 7.86004C46.239 7.86757 46.2555 7.87861 46.2694 7.89252C46.2977 7.92105 46.3136 7.9596 46.3136 7.99978C46.3136 8.03995 46.2977 8.0785 46.2694 8.10703C43.1184 10.9578 40.0482 13.9796 37.1647 17.0915C37.1512 17.113 37.1324 17.1306 37.11 17.1426C37.0877 17.1546 37.0626 17.1605 37.0372 17.1599V17.1599Z" fill="black"/>
<path d="M36.3887 22.7992C36.3684 22.7991 36.3483 22.7949 36.3296 22.7869C36.3109 22.7789 36.294 22.7672 36.2799 22.7526C36.2655 22.7387 36.254 22.722 36.2462 22.7036C36.2384 22.6851 36.2344 22.6653 36.2344 22.6453C36.2344 22.6253 36.2384 22.6055 36.2462 22.5871C36.254 22.5686 36.2655 22.552 36.2799 22.5381C40.4418 18.4158 44.7344 14.3153 49.0333 10.3484C49.0635 10.325 49.1014 10.3137 49.1396 10.3169C49.1777 10.3202 49.2132 10.3376 49.2391 10.3658C49.265 10.394 49.2793 10.4309 49.2792 10.4691C49.2791 10.5074 49.2646 10.5442 49.2386 10.5723C44.9366 14.536 40.6471 18.6334 36.4852 22.7557C36.459 22.7808 36.4249 22.7961 36.3887 22.7992V22.7992Z" fill="black"/>
<path d="M35.5726 28.4195C35.5515 28.4196 35.5306 28.4153 35.5113 28.4067C35.492 28.3981 35.4747 28.3855 35.4606 28.3698C35.4333 28.3414 35.418 28.3035 35.418 28.2641C35.418 28.2247 35.4333 28.1868 35.4606 28.1584L51.6699 13.3885C51.7001 13.365 51.7381 13.3538 51.7762 13.357C51.8143 13.3602 51.8499 13.3776 51.8757 13.4058C51.9016 13.434 51.9159 13.4709 51.9158 13.5092C51.9157 13.5474 51.9012 13.5842 51.8752 13.6123L35.6659 28.3791C35.6408 28.4036 35.6076 28.4179 35.5726 28.4195V28.4195Z" fill="black"/>
<path d="M38.2521 30.6919C38.2299 30.6919 38.208 30.6868 38.1881 30.6771C38.1681 30.6674 38.1506 30.6533 38.137 30.6359C38.1242 30.6208 38.1145 30.6034 38.1086 30.5846C38.1026 30.5658 38.1004 30.546 38.1021 30.5263C38.1039 30.5066 38.1095 30.4875 38.1187 30.4701C38.1279 30.4526 38.1404 30.4371 38.1556 30.4245C43.5338 25.867 48.8654 21.0981 54.0009 16.2825C54.0146 16.2682 54.031 16.2569 54.0492 16.2491C54.0674 16.2413 54.0869 16.2373 54.1067 16.2373C54.1265 16.2373 54.146 16.2413 54.1642 16.2491C54.1824 16.2569 54.1988 16.2682 54.2125 16.2825C54.2269 16.2965 54.2383 16.3131 54.2461 16.3315C54.2539 16.35 54.258 16.3698 54.258 16.3898C54.258 16.4098 54.2539 16.4296 54.2461 16.448C54.2383 16.4665 54.2269 16.4831 54.2125 16.497C49.0738 21.325 43.7391 26.0877 38.3485 30.6483C38.3229 30.6744 38.2885 30.6899 38.2521 30.6919V30.6919Z" fill="black"/>
<path d="M43.5288 30.8792C43.4894 30.8784 43.4517 30.8628 43.4231 30.8357C43.3948 30.8072 43.3789 30.7686 43.3789 30.7284C43.3789 30.6883 43.3948 30.6497 43.4231 30.6212C47.3082 26.7383 51.4079 22.9797 55.6134 19.4481C55.644 19.4226 55.6834 19.4102 55.7231 19.4137C55.7627 19.4172 55.7994 19.4363 55.825 19.4668C55.8505 19.4973 55.8629 19.5367 55.8594 19.5763C55.8559 19.616 55.8368 19.6526 55.8063 19.6782C51.6101 23.2067 47.5166 26.959 43.6377 30.8357C43.6082 30.8633 43.5693 30.8788 43.5288 30.8792V30.8792Z" fill="black"/>
<path d="M47.8156 31.2149C47.7949 31.2154 47.7743 31.2112 47.7554 31.2026C47.7366 31.194 47.7199 31.1812 47.7067 31.1652C47.6794 31.1368 47.6641 31.0989 47.6641 31.0595C47.6641 31.0201 47.6794 30.9822 47.7067 30.9538C50.528 28.3144 53.4706 25.7372 56.4537 23.2968C56.4689 23.2842 56.4866 23.2748 56.5055 23.2691C56.5244 23.2634 56.5443 23.2615 56.564 23.2635C56.5837 23.2655 56.6028 23.2714 56.6201 23.2809C56.6375 23.2903 56.6528 23.3031 56.6652 23.3186C56.6902 23.3493 56.7022 23.3886 56.6988 23.4281C56.6953 23.4675 56.6766 23.5041 56.6465 23.53C53.6666 25.9673 50.7364 28.5383 47.9151 31.1745C47.8872 31.1983 47.8523 31.2125 47.8156 31.2149Z" fill="black"/>
<path d="M51.6742 32.0632C51.6524 32.0628 51.6309 32.0578 51.6111 32.0488C51.5913 32.0397 51.5736 32.0266 51.5591 32.0104C51.5331 31.9794 51.5205 31.9395 51.524 31.8992C51.5275 31.859 51.5468 31.8218 51.5778 31.7958L56.9964 27.1575C57.0265 27.1315 57.0657 27.1186 57.1054 27.1215C57.145 27.1244 57.1819 27.143 57.2079 27.1731C57.2339 27.2031 57.2469 27.2423 57.2439 27.282C57.241 27.3216 57.2225 27.3585 57.1924 27.3844L51.7737 32.0259C51.7464 32.0504 51.7109 32.0637 51.6742 32.0632V32.0632Z" fill="black"/>
<path d="M56.0267 32.5543C56.0054 32.554 55.9843 32.5491 55.965 32.54C55.9457 32.5309 55.9285 32.5178 55.9148 32.5015C55.9009 32.4879 55.8899 32.4717 55.8824 32.4538C55.875 32.4359 55.8711 32.4167 55.8711 32.3973C55.8711 32.3779 55.875 32.3587 55.8824 32.3409C55.8899 32.323 55.9009 32.3068 55.9148 32.2932L57.8433 30.5211C57.8823 30.473 57.9368 30.4398 57.9975 30.4274C58.0582 30.4149 58.1213 30.4239 58.1761 30.4528C58.1987 30.4669 58.2177 30.486 58.2318 30.5086C58.2458 30.5313 58.2544 30.5568 58.257 30.5833C58.257 30.7201 58.257 30.7357 56.1107 32.5201C56.0866 32.5394 56.0575 32.5513 56.0267 32.5543V32.5543Z" fill="black"/>
<g opacity="0.13">
<path opacity="0.13" d="M30.8335 1.69938C29.8662 7.50663 29.4027 13.6061 29.1134 20.0413C29.0076 22.5004 28.6779 24.9439 28.8272 27.4092C28.8272 27.9066 28.8863 28.4071 28.8552 28.9046C28.7712 29.4393 29.0076 30.0268 29.6235 30.0299C30.5007 29.9709 30.395 29.1657 30.4198 28.5128C30.4198 27.804 30.4354 27.0952 30.4665 26.3864C30.4665 24.5771 30.8211 22.3792 30.9393 20.0165C31.07 16.2641 31.5614 12.5553 31.7449 8.79679C31.944 5.99886 32.2893 4.47243 32.6035 1.82062C32.5102 0.85689 31.0824 0.757408 30.8335 1.69938Z" fill="black"/>
</g>
<g opacity="0.13">
<path opacity="0.13" d="M60.1258 32.7848C60.1258 32.7506 60.1258 32.7164 60.1258 32.6822C60.0676 31.191 59.8992 29.7061 59.6219 28.2398C59.5876 27.9289 59.5472 27.618 59.4974 27.3071C59.4663 26.8594 59.4259 26.4149 59.3761 25.9734C59.5284 25.9909 59.6818 25.9535 59.809 25.8681C59.9361 25.7826 60.0286 25.6546 60.0698 25.5071C60.1289 25.0532 59.9423 24.5931 59.8832 24.1423C59.6281 23.0232 59.261 21.9289 58.9033 20.8408C58.9446 20.6311 58.9196 20.4138 58.8318 20.219C58.7042 19.818 58.5767 19.4201 58.4305 19.0284C58.1093 18.0898 57.6353 17.2106 57.0276 16.4263C56.8846 16.2584 56.7166 16.0315 56.5268 15.8045C56.4491 15.6864 56.3682 15.5714 56.2873 15.4532C56.0167 15.0024 55.743 14.5517 55.4537 14.1133C54.5361 12.5869 53.2763 11.3341 51.9823 10.1278C51.9176 10.0305 51.8328 9.94816 51.7335 9.88647C51.6342 9.82479 51.5228 9.78517 51.4068 9.77032L50.9309 9.31022L50.8625 9.24493C50.8625 9.24493 50.8625 9.24494 50.8034 9.19519C50.6882 9.09677 50.5411 9.0437 50.3897 9.04597C50.2594 9.04876 50.1327 9.08973 50.0255 9.16379C49.9183 9.23784 49.8352 9.34173 49.7865 9.46257C49.7378 9.5834 49.7257 9.71586 49.7516 9.84352C49.7775 9.97117 49.8404 10.0884 49.9324 10.1807C50.5545 10.8926 50.5048 10.8677 51.0584 11.5796C51.1365 11.7154 51.2651 11.8149 51.4162 11.8563H51.469L51.5655 11.962C51.5523 12.0865 51.5678 12.2123 51.611 12.3298C51.6541 12.4473 51.7237 12.5534 51.8143 12.6398C52.6604 13.6315 52.9466 13.8553 53.6091 15.1517C53.774 15.4625 53.9202 15.8014 54.057 16.1341C54.1099 16.2646 54.169 16.3952 54.225 16.5258C54.2499 16.5817 54.2748 16.6501 54.3028 16.7123C54.6402 17.4555 54.9321 18.2186 55.1768 18.9973C55.6776 20.7009 56.0665 22.075 56.3558 23.3496C56.3541 23.3765 56.3541 23.4035 56.3558 23.4304C56.502 26.6698 56.8317 30.9506 56.418 33.5372C56.4173 33.6417 56.4409 33.7451 56.4867 33.8391C56.5324 33.9331 56.5993 34.0154 56.682 34.0794C56.7648 34.1434 56.8611 34.1876 56.9637 34.2084C57.0662 34.2292 57.1722 34.2261 57.2734 34.1993L57.3231 34.1807C57.4231 34.3164 57.5529 34.4274 57.7026 34.5051C57.8523 34.5828 58.0179 34.6251 58.1865 34.6287C58.3551 34.6323 58.5223 34.5971 58.6752 34.5259C58.828 34.4547 58.9625 34.3494 59.0682 34.218C59.2449 34.201 59.4106 34.1242 59.5378 34.0004C59.665 33.8767 59.7462 33.7133 59.7681 33.5372C59.8904 33.456 59.9883 33.3431 60.0514 33.2106C60.1144 33.0781 60.1401 32.9309 60.1258 32.7848Z" fill="black"/>
</g>
<g opacity="0.13">
<path opacity="0.13" d="M57.9288 37.7836C57.7732 37.8116 57.6022 37.824 57.4342 37.8489C57.2339 37.7287 57.0021 37.6714 56.7689 37.6844C56.5356 37.6974 56.3117 37.7801 56.126 37.9218C55.9403 38.0635 55.8015 38.2577 55.7275 38.4791C55.6535 38.7006 55.6477 38.9391 55.7109 39.1639L55.7296 39.2571C55.7296 39.2727 55.7296 39.2882 55.7296 39.3069C55.7311 39.3348 55.7311 39.3629 55.7296 39.3908C55.6198 40.07 55.4565 40.7394 55.2412 41.3929C54.8431 42.5245 54.6658 42.7763 54.0281 44.2095C52.675 47.0074 51.4681 48.3908 50.2021 49.9546C48.4921 52.1066 46.4498 53.9725 44.152 55.482C43.0413 56.252 41.8771 56.9418 40.6682 57.5463C39.8096 58.0095 39.5857 58.2053 38.9604 58.395C37.9651 58.6716 36.9572 58.9017 35.9556 59.1442L35.6663 59.1939C35.4791 59.2059 35.3042 59.2917 35.1803 59.4325C35.0563 59.5733 34.9934 59.7575 35.0053 59.9447C35.0173 60.1319 35.1032 60.3066 35.2441 60.4305C35.3849 60.5544 35.5693 60.6173 35.7566 60.6053C36.5886 60.562 37.413 60.4243 38.2139 60.195C38.9165 60.0657 39.6021 59.8571 40.2576 59.5732C40.9388 59.2126 41.5298 58.9172 42.0866 58.6406C42.1637 58.7445 42.2731 58.8199 42.3976 58.8551C42.8984 58.9048 42.7927 58.7774 43.3495 58.5442C43.0384 58.6903 43.5454 58.4571 43.6605 58.3981C44.2527 58.1261 44.8147 57.7926 45.3371 57.4033C47.7414 55.6189 49.9331 53.5651 51.8694 51.282C52.4106 50.6602 52.927 50.0385 53.4246 49.3763C53.6113 49.1307 53.7948 48.8882 53.9659 48.6488C54.7311 47.6198 56.0873 46.1183 56.9956 44.5328C57.8931 43.2126 58.595 41.7697 59.0797 40.2489C59.4343 39.2447 59.8324 37.4634 57.9288 37.7836Z" fill="black"/>
</g>
</g>
<defs>
<clipPath id="clip0_1893_2061">
<rect width="60" height="60" fill="white" transform="translate(0.59375 0.881836)"/>
</clipPath>
</defs>
</svg>
