<svg width="76" height="59" viewBox="0 0 76 59" fill="none" xmlns="http://www.w3.org/2000/svg">
<g clip-path="url(#clip0_1893_1966)">
<path d="M1.3125 25.5635C8.98477 18.4948 17.0757 11.0029 24.7507 3.93425C26.156 2.63814 27.7748 1.27284 29.6895 1.31542C30.8575 1.35002 31.9403 1.93021 32.919 2.57161C41.8579 8.40807 48.7142 21.4676 54.3944 26.1942C54.1277 35.0727 47.5568 44.1295 40.8712 49.9979C38.5538 52.0338 36.0017 53.9128 33.0443 54.7884C30.817 55.4246 28.4753 55.5555 26.1907 55.1716C19.4865 54.123 13.8143 49.3964 10.0621 43.7542C6.31001 38.112 3.78192 32.0014 1.3125 25.5635Z" fill="#FFF9CC"/>
<path d="M28.8346 55.827C27.9272 55.8258 27.0213 55.7537 26.1252 55.6114C19.9489 54.6453 13.962 50.4137 9.70056 44.005C5.82309 38.1739 3.231 31.7626 0.900255 25.7185C0.868992 25.6377 0.862698 25.5494 0.882185 25.4649C0.901673 25.3805 0.946046 25.3038 1.00959 25.2448C4.84706 21.7104 8.78853 18.059 12.7433 14.4315C16.6981 10.804 20.6263 7.15256 24.4611 3.61821C25.9998 2.20234 27.6772 0.821072 29.7066 0.884945C31.024 0.922205 32.192 1.57425 33.1734 2.21565C38.5603 5.73136 43.1631 11.7967 47.2246 17.1355C49.8913 20.6565 52.4301 23.9833 54.6915 25.8676C54.7412 25.9103 54.7809 25.9635 54.8076 26.0233C54.8344 26.0831 54.8475 26.1481 54.8462 26.2135C54.5608 35.3954 47.5979 44.6943 41.1764 50.3339C39.1683 52.0957 36.4428 54.2461 33.1761 55.2229C31.7661 55.6344 30.3035 55.8379 28.8346 55.827V55.827ZM1.82295 25.6839C4.10303 31.6109 6.65512 37.8545 10.4233 43.5153C14.5514 49.7217 20.3223 53.815 26.2612 54.7438C28.4833 55.1176 30.7611 54.9912 32.9281 54.3739C36.0242 53.445 38.6509 51.3691 40.5923 49.6632C46.8299 44.1887 53.5875 35.2144 53.9608 26.3785C51.6701 24.4118 49.1606 21.1196 46.5232 17.6412C42.5044 12.3529 37.9496 6.3568 32.6907 2.92358C31.8214 2.3567 30.784 1.77385 29.6853 1.73925C27.9652 1.69401 26.4585 2.95019 25.0531 4.24364C21.2183 7.77798 17.2768 11.4294 13.3354 15.0569C9.46056 18.6392 5.59375 22.2108 1.82295 25.6839Z" fill="black"/>
<path d="M11.5 5.96484C11.8556 20.2247 11.9516 34.4871 11.788 48.7523C11.788 48.7523 44.2932 48.6884 44.3225 48.2892C44.2514 34.2103 44.4461 20.1333 44.9065 6.05799L11.5 5.96484Z" fill="white"/>
<path d="M11.7853 49.1863C11.7282 49.1865 11.6716 49.1754 11.619 49.1534C11.5663 49.1315 11.5185 49.0992 11.4786 49.0585C11.438 49.018 11.4058 48.9698 11.3838 48.9169C11.3619 48.8639 11.3506 48.8071 11.3506 48.7498C11.5079 34.5539 11.4119 20.1637 11.0626 5.97571C11.0615 5.91795 11.072 5.86055 11.0933 5.80684C11.1146 5.75314 11.1464 5.70419 11.1869 5.66285C11.2273 5.6215 11.2756 5.58858 11.3288 5.56599C11.3821 5.5434 11.4394 5.53159 11.4973 5.53125V5.53125L44.9064 5.6244C44.9648 5.62473 45.0225 5.63671 45.0761 5.65963C45.1298 5.68255 45.1783 5.71595 45.2188 5.75786C45.2593 5.79977 45.291 5.84935 45.312 5.90368C45.333 5.958 45.3429 6.01597 45.3411 6.07418C44.8798 20.0758 44.6851 34.2851 44.7571 48.2867C44.7584 48.3 44.7584 48.3134 44.7571 48.3266C44.7144 48.8217 44.7118 48.8589 39.2342 48.9654C36.5328 49.0186 32.7673 49.0665 28.0472 49.1038C20.0069 49.1703 11.8679 49.1863 11.7799 49.1863H11.7853ZM11.9426 6.40153C12.2813 20.3074 12.3746 34.4048 12.2253 48.3187C24.0657 48.292 41.341 48.1723 43.8877 47.9354C43.8211 34.1813 44.0131 20.2408 44.4584 6.49202L11.9426 6.40153Z" fill="black"/>
<path d="M1.3146 25.5635C2.03112 33.4378 2.00612 41.3617 1.23993 49.2314C1.02659 51.4057 0.834579 53.8116 1.4266 55.8982C1.63302 56.6334 2.07521 57.2808 2.68545 57.7413C3.29569 58.2018 4.04035 58.4499 4.80539 58.4478L10.8803 58.4265L18.0805 58.3999L49.3456 58.2908C50.3057 58.2908 51.295 58.2908 52.1911 57.9315C53.0871 57.5722 53.8871 56.819 53.8631 55.9381C54.2231 45.9525 54.4685 35.9643 54.3965 26.1942C47.4629 32.846 40.3729 39.3283 33.1264 45.6411C31.9824 46.6365 30.4596 47.6931 29.0169 47.238C24.7848 45.6411 21.2993 42.5912 17.9205 39.5917C12.3817 34.6841 6.84013 29.7712 1.3146 25.5635Z" fill="white"/>
<path d="M4.79041 58.8817C3.93346 58.8783 3.10085 58.5969 2.41824 58.0798C1.73562 57.5628 1.24004 56.8382 1.00628 56.0154C0.408925 53.9155 0.571599 51.5894 0.803607 49.1888C1.56846 41.3467 1.59346 33.4503 0.878276 25.6035C0.871095 25.5195 0.888425 25.4353 0.928172 25.3609C0.967919 25.2866 1.02838 25.2253 1.10226 25.1845C1.17615 25.1437 1.26029 25.1251 1.34452 25.1309C1.42876 25.1368 1.50949 25.1669 1.57697 25.2176C7.1185 29.4359 12.756 34.4367 18.2069 39.2751C21.3697 42.0829 24.9565 45.2633 29.17 46.8388C30.4367 47.2327 31.8714 46.1548 32.8394 45.3138C40.0397 39.0382 47.1973 32.4992 54.0935 25.8856C54.1547 25.8268 54.2318 25.7872 54.3153 25.7717C54.3988 25.7562 54.485 25.7654 54.5633 25.7983C54.6416 25.8311 54.7085 25.8861 54.7558 25.9565C54.8031 26.0269 54.8288 26.1096 54.8295 26.1943C54.8909 34.6656 54.7202 44.1242 54.2962 55.9595C54.3282 57.0639 53.3388 57.9582 52.3468 58.3414C51.3547 58.7247 50.2907 58.7247 49.344 58.73L4.80908 58.887L4.79041 58.8817ZM1.83031 26.5083C2.45978 34.0864 2.40623 41.7055 1.6703 49.274C1.44363 51.5868 1.28629 53.825 1.84098 55.7811C2.02404 56.4219 2.41057 56.986 2.94245 57.3886C3.47433 57.7913 4.12282 58.0108 4.79041 58.0141L49.3253 57.857C50.24 57.857 51.1921 57.857 52.0161 57.527C52.7015 57.2609 53.4321 56.6567 53.4108 55.9488C53.8215 44.5686 53.9948 35.4054 53.9442 27.2056C47.2639 33.593 40.3437 39.9032 33.3888 45.9659C32.2634 46.9453 30.57 48.1882 28.8553 47.6612C24.4658 46.0191 20.8177 42.7802 17.5989 39.9245C12.4387 35.3256 7.10516 30.575 1.83031 26.5083Z" fill="black"/>
<path d="M62.8547 41.1538C57.5079 40.8158 51.737 40.7413 46.3422 40.8132C46.2257 44.6898 46.3808 48.5698 46.8062 52.4249C51.9904 52.3291 57.1772 52.2732 62.4761 52.3158C62.4414 54.2506 62.4067 56.1881 62.4067 58.1416C66.6362 54.5088 70.8684 50.876 75.1618 46.9637C71.2613 43.0213 67.2087 39.2199 63.0041 35.5596C62.9667 37.4359 62.8867 39.3414 62.8547 41.1538Z" fill="white"/>
<path d="M62.405 58.5755C62.2897 58.5755 62.1792 58.5298 62.0977 58.4485C62.0161 58.3671 61.9703 58.2568 61.9703 58.1417C61.9703 56.332 61.9997 54.5142 62.0317 52.7471C57.5248 52.7125 52.8047 52.7471 46.8125 52.8588C46.7045 52.8609 46.5997 52.8228 46.5184 52.7519C46.437 52.6811 46.385 52.5826 46.3724 52.4756C45.9428 48.6012 45.7869 44.7015 45.9058 40.8053C45.9078 40.6926 45.9538 40.5851 46.034 40.5056C46.1141 40.4261 46.2221 40.3809 46.3351 40.3795C52.2713 40.2997 57.6849 40.4061 62.4264 40.6936C62.445 39.9164 62.469 39.1286 62.493 38.3302C62.5197 37.4067 62.549 36.4672 62.5677 35.5517C62.5699 35.4682 62.5963 35.3871 62.6436 35.3182C62.6909 35.2492 62.7572 35.1954 62.8344 35.1632C62.9098 35.1291 62.9934 35.1175 63.0753 35.1298C63.1571 35.142 63.2337 35.1777 63.2957 35.2324C67.5625 38.9583 71.6614 42.8041 75.4775 46.6764C75.5189 46.7178 75.5512 46.7673 75.5723 46.8218C75.5934 46.8764 75.6029 46.9347 75.6002 46.9931C75.5988 47.0514 75.5855 47.1089 75.5612 47.1619C75.5369 47.215 75.5021 47.2626 75.4588 47.3018C71.1573 51.2114 66.8558 54.9028 62.6957 58.4797C62.6137 58.5458 62.5103 58.5798 62.405 58.5755V58.5755ZM58.7516 51.8661C60.0209 51.8661 61.2557 51.8661 62.485 51.8821C62.5424 51.8824 62.5992 51.8942 62.652 51.9167C62.7048 51.9392 62.7526 51.9719 62.7926 52.0131C62.8326 52.0542 62.8639 52.1029 62.8848 52.1562C62.9058 52.2096 62.9158 52.2666 62.9144 52.3239C62.885 53.9207 62.8557 55.5575 62.8477 57.1943C66.6692 53.9128 70.6026 50.5221 74.5361 46.9585C71.0373 43.4268 67.3012 39.9138 63.4211 36.4992C63.4051 37.1202 63.3873 37.7412 63.3677 38.3622C63.3384 39.3123 63.3091 40.2518 63.2931 41.1673C63.2914 41.226 63.2781 41.2837 63.2538 41.3372C63.2295 41.3906 63.1948 41.4387 63.1517 41.4787C63.1089 41.5181 63.0584 41.5484 63.0033 41.5676C62.9483 41.5869 62.8899 41.5946 62.8317 41.5904C58.1115 41.2924 52.7113 41.1779 46.7725 41.2471C46.6771 44.833 46.8187 48.4213 47.1965 51.9886C51.5833 51.9061 55.2954 51.8661 58.7516 51.8661V51.8661Z" fill="black"/>
<path d="M17.6495 13.6566C17.5924 13.6566 17.5359 13.6454 17.4832 13.6236C17.4304 13.6018 17.3825 13.5698 17.3422 13.5296C17.3018 13.4893 17.2698 13.4414 17.2479 13.3888C17.2261 13.3362 17.2148 13.2798 17.2148 13.2228C17.2148 13.1658 17.2261 13.1094 17.2479 13.0568C17.2698 13.0042 17.3018 12.9563 17.3422 12.9161C17.3825 12.8758 17.4304 12.8438 17.4832 12.822C17.5359 12.8002 17.5924 12.789 17.6495 12.789L39.0556 12.7012C39.1127 12.7012 39.1692 12.7124 39.222 12.7342C39.2747 12.756 39.3226 12.7879 39.363 12.8282C39.4033 12.8685 39.4354 12.9163 39.4572 12.969C39.4791 13.0216 39.4903 13.078 39.4903 13.135C39.4903 13.192 39.4791 13.2484 39.4572 13.301C39.4354 13.3536 39.4033 13.4014 39.363 13.4417C39.3226 13.482 39.2747 13.514 39.222 13.5358C39.1692 13.5576 39.1127 13.5688 39.0556 13.5688L17.6495 13.6566V13.6566Z" fill="black"/>
<path d="M39.0105 20.6135L17.3644 20.1079C17.2491 20.1079 17.1385 20.0621 17.057 19.9808C16.9755 19.8994 16.9297 19.7891 16.9297 19.674C16.9297 19.559 16.9755 19.4486 17.057 19.3673C17.1385 19.2859 17.2491 19.2402 17.3644 19.2402V19.2402L39.0105 19.7459C39.1258 19.7459 39.2363 19.7916 39.3178 19.873C39.3994 19.9543 39.4452 20.0647 39.4452 20.1797C39.4452 20.2948 39.3994 20.4051 39.3178 20.4865C39.2363 20.5678 39.1258 20.6135 39.0105 20.6135V20.6135Z" fill="black"/>
<path d="M38.634 27.2646C31.6204 27.1901 24.5001 26.9985 17.4945 26.6844C17.3793 26.6795 17.2707 26.629 17.1926 26.5442C17.1146 26.4593 17.0736 26.347 17.0785 26.232C17.0835 26.1169 17.134 26.0086 17.219 25.9307C17.3041 25.8528 17.4166 25.8119 17.5319 25.8168C24.5375 26.1282 31.639 26.3251 38.642 26.397C38.7573 26.397 38.8678 26.4427 38.9493 26.5241C39.0309 26.6054 39.0767 26.7158 39.0767 26.8308C39.0767 26.9459 39.0309 27.0562 38.9493 27.1376C38.8678 27.2189 38.7573 27.2646 38.642 27.2646H38.634Z" fill="black"/>
<path d="M38.573 33.5616L17.3109 33.1411C17.2539 33.14 17.1977 33.1278 17.1455 33.105C17.0933 33.0822 17.0462 33.0493 17.0067 33.0082C16.9673 32.9672 16.9365 32.9187 16.9159 32.8657C16.8953 32.8127 16.8854 32.7561 16.8869 32.6993C16.891 32.5849 16.9395 32.4766 17.022 32.3971C17.1046 32.3177 17.2148 32.2734 17.3295 32.2734L38.589 32.6939C38.7045 32.6967 38.8142 32.7451 38.8942 32.8283C38.9741 32.9116 39.0178 33.0231 39.0156 33.1384C39.0146 33.1952 39.0023 33.2513 38.9795 33.3034C38.9566 33.3555 38.9237 33.4026 38.8825 33.4419C38.8414 33.4812 38.7929 33.5121 38.7397 33.5326C38.6866 33.5531 38.6299 33.563 38.573 33.5616V33.5616Z" fill="black"/>
<path d="M47.836 46.392C47.8129 46.3918 47.7901 46.3864 47.7693 46.376C47.7351 46.3579 47.7095 46.3271 47.698 46.2902C47.6865 46.2533 47.6901 46.2134 47.708 46.1791C48.4296 44.8181 49.2524 43.513 50.1694 42.2748C50.1808 42.2596 50.1951 42.2468 50.2114 42.2371C50.2278 42.2274 50.2459 42.221 50.2647 42.2183C50.2835 42.2156 50.3027 42.2166 50.3211 42.2213C50.3395 42.2259 50.3569 42.2342 50.3721 42.2455C50.3873 42.2569 50.4002 42.2711 50.4099 42.2875C50.4196 42.3038 50.426 42.3218 50.4287 42.3406C50.4315 42.3594 50.4304 42.3785 50.4258 42.3969C50.4211 42.4153 50.4128 42.4326 50.4014 42.4478C49.4933 43.6742 48.6786 44.9669 47.964 46.3148C47.9516 46.338 47.9331 46.3573 47.9106 46.3709C47.8881 46.3845 47.8623 46.3918 47.836 46.392V46.392Z" fill="black"/>
<path d="M47.9967 51.1242C47.9688 51.1234 47.9414 51.1161 47.9167 51.1029C47.885 51.0817 47.8628 51.049 47.8548 51.0117C47.8468 50.9745 47.8537 50.9355 47.8741 50.9033C49.6688 48.0715 51.4582 45.1813 53.1889 42.3069C53.1985 42.2907 53.2113 42.2765 53.2264 42.2651C53.2415 42.2538 53.2587 42.2455 53.2771 42.2408C53.2954 42.2361 53.3145 42.2351 53.3332 42.2378C53.3519 42.2404 53.37 42.2468 53.3862 42.2564C53.4193 42.2763 53.4432 42.3084 53.4527 42.3458C53.4622 42.3832 53.4565 42.4228 53.4369 42.456C51.7062 45.333 49.9168 48.2259 48.1167 51.0576C48.1039 51.0778 48.0861 51.0945 48.0652 51.1061C48.0442 51.1177 48.0207 51.1239 47.9967 51.1242V51.1242Z" fill="black"/>
<path d="M51.2869 50.9802C51.2596 50.9811 51.2327 50.9736 51.2096 50.9589C51.177 50.9386 51.1537 50.9063 51.1447 50.8689C51.1357 50.8316 51.1418 50.7922 51.1616 50.7593L56.1751 42.6607C56.1959 42.6285 56.2285 42.6058 56.2659 42.5974C56.3033 42.5889 56.3425 42.5954 56.3751 42.6154C56.3916 42.6253 56.4059 42.6383 56.4172 42.6537C56.4285 42.6691 56.4367 42.6866 56.4411 42.7052C56.4456 42.7238 56.4463 42.743 56.4432 42.7619C56.4401 42.7808 56.4333 42.7988 56.4231 42.815L51.4149 50.911C51.4019 50.9331 51.3831 50.9512 51.3606 50.9633C51.338 50.9755 51.3126 50.9814 51.2869 50.9802V50.9802Z" fill="black"/>
<path d="M54.6933 50.924C54.6661 50.9236 54.6395 50.9163 54.616 50.9027C54.5842 50.8816 54.562 50.8489 54.554 50.8116C54.546 50.7743 54.553 50.7354 54.5733 50.7031L59.8615 42.4049C59.8827 42.3732 59.9155 42.351 59.9528 42.3431C59.9902 42.3351 60.0291 42.342 60.0615 42.3623C60.0777 42.3723 60.0917 42.3855 60.1028 42.401C60.1139 42.4165 60.1218 42.4341 60.126 42.4526C60.1302 42.4712 60.1307 42.4904 60.1274 42.5092C60.1241 42.528 60.1171 42.5459 60.1068 42.5619L54.816 50.8575C54.8028 50.8781 54.7847 50.895 54.7632 50.9066C54.7418 50.9182 54.7177 50.9242 54.6933 50.924V50.924Z" fill="black"/>
<path d="M57.8165 51.0384C57.7905 51.0385 57.7648 51.0321 57.7419 51.0197C57.7093 50.9994 57.6859 50.9672 57.6764 50.9301C57.667 50.8929 57.6723 50.8535 57.6912 50.8201C59.3526 48.023 61.0887 45.2152 62.8487 42.4793C62.8578 42.4608 62.8708 42.4444 62.8867 42.4312C62.9026 42.4181 62.9211 42.4084 62.941 42.4028C62.9609 42.3973 62.9817 42.396 63.0021 42.3991C63.0226 42.4022 63.0421 42.4095 63.0595 42.4206C63.0769 42.4318 63.0918 42.4464 63.1031 42.4637C63.1144 42.4809 63.1219 42.5004 63.1252 42.5207C63.1284 42.5411 63.1274 42.5619 63.122 42.5818C63.1166 42.6018 63.1071 42.6203 63.0941 42.6363C61.334 45.3696 59.6006 48.1747 57.9419 50.9692C57.9289 50.9906 57.9104 51.0083 57.8885 51.0204C57.8665 51.0326 57.8417 51.0387 57.8165 51.0384V51.0384Z" fill="black"/>
<path d="M60.6657 51.0893C60.6365 51.0892 60.6078 51.0809 60.5831 51.0654C60.5516 51.0433 60.5298 51.0099 60.5224 50.9723C60.5149 50.9346 60.5223 50.8955 60.5431 50.8631C62.7618 47.5843 64.9565 44.2335 67.0713 40.9068C67.0813 40.8906 67.0945 40.8766 67.1101 40.8655C67.1256 40.8545 67.1432 40.8466 67.1618 40.8424C67.1804 40.8382 67.1997 40.8377 67.2185 40.841C67.2373 40.8443 67.2552 40.8513 67.2713 40.8616C67.3035 40.8823 67.3263 40.9148 67.3347 40.9521C67.3432 40.9894 67.3367 41.0286 67.3166 41.0612C65.1992 44.3906 63.0018 47.7439 60.7857 51.0255C60.7725 51.0451 60.7547 51.0613 60.7338 51.0724C60.7128 51.0836 60.6895 51.0894 60.6657 51.0893V51.0893Z" fill="black"/>
<path d="M64.2812 40.9415C64.2547 40.9427 64.2285 40.9352 64.2065 40.9203C64.1902 40.9107 64.1759 40.8979 64.1646 40.8828C64.1533 40.8676 64.1452 40.8503 64.1407 40.8319C64.1362 40.8136 64.1355 40.7945 64.1386 40.7758C64.1416 40.7572 64.1484 40.7393 64.1585 40.7233L65.0812 39.2116C65.1036 39.184 65.1353 39.1654 65.1704 39.1594C65.2055 39.1533 65.2416 39.1602 65.272 39.1788C65.3023 39.1974 65.3249 39.2263 65.3354 39.2603C65.346 39.2943 65.3438 39.3309 65.3292 39.3633L64.4039 40.8723C64.3913 40.8936 64.3733 40.9112 64.3518 40.9233C64.3303 40.9354 64.3059 40.9417 64.2812 40.9415V40.9415Z" fill="black"/>
<path d="M63.5146 51.446C63.4874 51.4467 63.4605 51.4396 63.4372 51.4256C63.4139 51.4117 63.395 51.3914 63.3827 51.3672C63.3704 51.343 63.3653 51.3158 63.3678 51.2887C63.3704 51.2617 63.3806 51.236 63.3972 51.2145L69.2908 43.2702C69.3141 43.2399 69.3483 43.2199 69.3862 43.2144C69.424 43.2089 69.4625 43.2184 69.4935 43.2409C69.5088 43.2522 69.5217 43.2664 69.5315 43.2827C69.5413 43.299 69.5477 43.3171 69.5504 43.3359C69.5532 43.3547 69.5521 43.3739 69.5474 43.3923C69.5426 43.4107 69.5343 43.428 69.5228 43.4432L63.6426 51.3875C63.6286 51.408 63.6093 51.4243 63.5868 51.4346C63.5642 51.4449 63.5392 51.4489 63.5146 51.446V51.446Z" fill="black"/>
<path d="M64.9493 54.1738C64.9197 54.1732 64.891 54.1639 64.8666 54.1472C64.8509 54.1363 64.8375 54.1224 64.8272 54.1063C64.8169 54.0902 64.81 54.0722 64.8067 54.0534C64.8035 54.0345 64.8041 54.0152 64.8084 53.9966C64.8127 53.978 64.8208 53.9605 64.832 53.945C66.9414 50.9722 69.1575 48.0207 71.4189 45.1623C71.4429 45.1329 71.4775 45.1139 71.5154 45.1094C71.5532 45.1049 71.5913 45.1153 71.6216 45.1384C71.6369 45.1501 71.6497 45.1647 71.6592 45.1815C71.6687 45.1982 71.6748 45.2167 71.677 45.2358C71.6792 45.2549 71.6776 45.2743 71.6722 45.2927C71.6668 45.3112 71.6577 45.3284 71.6456 45.3433C69.3868 48.191 67.1734 51.1372 65.0666 54.1073C65.0542 54.1273 65.0369 54.1438 65.0164 54.1555C64.996 54.1671 64.9729 54.1734 64.9493 54.1738V54.1738Z" fill="black"/>
<g opacity="0.13">
<path opacity="0.13" d="M11.6385 31.1207C10.4065 29.412 8.7051 28.1266 6.96104 26.9662C6.28688 26.5174 5.58895 26.1051 4.8703 25.7313C4.15288 25.2857 3.39153 24.9147 2.59821 24.6242C1.23016 24.2569 0.64081 26.2423 1.98753 26.6841C3.41424 27.1818 3.77959 27.424 4.84363 27.8684C4.95563 27.9216 5.06763 27.9829 5.17697 28.0441C5.10505 28.2052 5.09434 28.387 5.14685 28.5555C5.19935 28.7239 5.31148 28.8676 5.46232 28.9596C6.64102 29.577 7.32905 29.9736 8.03307 30.7135C8.41709 31.1233 8.7931 31.5412 9.19578 31.9324C9.26752 32.0302 9.35984 32.1111 9.46627 32.1695C9.57269 32.2279 9.69063 32.2623 9.8118 32.2704C9.95576 32.274 10.097 32.2311 10.2145 32.148L10.2892 32.2145C10.3905 32.3023 10.6412 32.611 10.6945 32.6749L10.7105 32.6989C10.7585 32.7888 10.827 32.8663 10.9105 32.9251C11.0125 33.0063 11.1329 33.0614 11.2612 33.0855C11.3894 33.1096 11.5217 33.1021 11.6463 33.0635C11.771 33.0249 11.8843 32.9565 11.9764 32.8641C12.0684 32.7718 12.1365 32.6584 12.1746 32.5339C12.3292 32.0016 11.9052 31.5438 11.6385 31.1207Z" fill="black"/>
</g>
<g opacity="0.13">
<path opacity="0.13" d="M53.3831 26.035C53.1004 26.1042 52.9218 26.349 52.6871 26.5034L51.8871 27.1102C50.6257 27.9672 49.423 28.896 48.2203 29.8302C47.3909 30.4609 46.7962 30.8947 45.6628 31.7836C45.2922 32.0791 44.9215 32.3718 44.5721 32.6912C44.3886 32.8202 44.2416 32.9944 44.1455 33.1968C43.6974 34.123 44.9455 34.9826 45.6708 34.2614C47.1669 32.8775 48.7643 31.6 50.3137 30.2693C51.503 29.2766 52.0737 28.9785 53.3938 27.9326C53.6871 27.6664 54.1271 27.4855 54.2951 27.1049C54.3473 26.9707 54.3622 26.8249 54.3382 26.683C54.3141 26.5411 54.2521 26.4083 54.1587 26.2986C54.0652 26.189 53.9438 26.1066 53.8073 26.0602C53.6707 26.0138 53.5242 26.0051 53.3831 26.035V26.035Z" fill="black"/>
</g>
<g opacity="0.13">
<path opacity="0.13" d="M53.9522 53.9929C53.8669 52.7313 52.9762 52.742 51.9602 52.726H51.8828C51.4801 52.6701 51.0828 52.6675 50.6641 52.6036H50.6108L50.7148 52.6196L50.5708 52.5983H50.5361L50.4428 52.585L49.6881 52.4785C49.5624 52.4512 49.4318 52.4577 49.3094 52.4971L49.1894 52.4838C48.8294 52.4439 48.3894 52.4625 48.16 52.75L47.6613 52.5717C47.5642 52.5369 47.461 52.5224 47.3581 52.5288C47.2551 52.5353 47.1546 52.5627 47.0626 52.6094C46.9706 52.6561 46.8892 52.721 46.8233 52.8002C46.7573 52.8793 46.7083 52.9711 46.6792 53.0699C46.6501 53.1687 46.6415 53.2723 46.654 53.3745C46.6665 53.4767 46.6997 53.5753 46.7517 53.6642C46.8037 53.7532 46.8734 53.8305 46.9564 53.8916C47.0395 53.9527 47.1342 53.9962 47.2347 54.0195C49.4801 54.8179 50.7441 55.3342 52.6588 56.6676C52.781 56.7418 52.9193 56.7856 53.062 56.795C53.2048 56.8045 53.3477 56.7794 53.4786 56.722C53.6095 56.6645 53.7246 56.5763 53.814 56.4648C53.9034 56.3534 53.9646 56.2221 53.9922 56.0821C54.1229 55.3848 53.9629 54.6848 53.9522 53.9929Z" fill="black"/>
</g>
<g opacity="0.13">
<path opacity="0.13" d="M42.2257 36.1185C41.447 36.7865 40.2443 37.8643 39.7536 38.2476C39.2629 38.6308 38.0895 39.4479 36.7988 40.3767C35.3561 41.553 34.7347 42.0401 33.2494 43.1765C32.4493 43.7407 31.3 44.7893 29.7959 45.0395C28.5585 45.0395 28.4625 44.9863 27.3078 44.7281C26.4064 44.4433 26.3904 44.3928 25.4411 43.8552C24.529 43.3229 23.657 42.7081 22.753 42.1519C22.4063 41.9443 22.0623 41.5983 21.6249 41.726C21.476 41.7673 21.3422 41.8508 21.2398 41.9664C21.1374 42.082 21.0707 42.2247 21.0479 42.3773C21.025 42.5299 21.0469 42.6858 21.111 42.8263C21.1751 42.9667 21.2786 43.0856 21.4089 43.1685C22.8437 44.0734 24.209 45.098 25.7291 45.8592C26.5791 46.2477 27.4752 46.5268 28.3959 46.6896C30.7559 47.2857 32.8573 45.8911 34.5294 44.3848C36.1001 43.0993 37.5748 41.6994 39.1536 40.4246C40.3189 39.4505 41.463 38.4472 42.599 37.4359C42.799 37.2256 43.0924 37.0819 43.2124 36.8131C43.2608 36.6841 43.2651 36.5427 43.2244 36.4111C43.1838 36.2794 43.1006 36.165 42.9878 36.0855C42.875 36.0061 42.739 35.9663 42.6011 35.9723C42.4632 35.9782 42.3312 36.0296 42.2257 36.1185V36.1185Z" fill="black"/>
</g>
<g opacity="0.13">
<path opacity="0.13" d="M34.7249 4.51513C32.9248 4.51513 31.1328 4.414 29.3407 4.24899C27.9913 4.18286 26.6387 4.23273 25.2979 4.39803C24.9272 4.43795 24.5539 4.4832 24.1832 4.52844C23.8125 4.57368 23.4018 4.64288 23.2045 4.99951C23.1216 5.14003 23.0767 5.29969 23.0743 5.46277C23.072 5.62585 23.1122 5.78673 23.191 5.92959C23.2698 6.07246 23.3846 6.19237 23.524 6.27755C23.6633 6.36273 23.8225 6.41023 23.9859 6.41538C26.3859 6.0827 28.8127 6.19714 31.2235 6.32755C32.4768 6.32755 33.7302 6.269 34.9836 6.25037C35.4343 6.18384 35.9223 6.28497 36.3543 6.13859C36.5114 6.0779 36.6464 5.97119 36.7416 5.83248C36.8368 5.69378 36.8877 5.52958 36.8877 5.36146C36.8583 4.20641 35.5169 4.52312 34.7249 4.51513Z" fill="black"/>
</g>
<g opacity="0.13">
<path opacity="0.13" d="M54.4743 28.8372C54.4748 28.7202 54.4485 28.6046 54.3977 28.4992C54.3468 28.3939 54.2725 28.3014 54.1806 28.2288C54.0886 28.1563 53.9813 28.1055 53.8668 28.0805C53.7523 28.0554 53.6336 28.0566 53.5196 28.084C53.3745 28.1277 53.2437 28.2091 53.1406 28.32C53.0375 28.4309 52.9658 28.5671 52.9329 28.7148C52.7738 28.8826 52.6725 29.0968 52.6437 29.326C52.615 29.5553 52.6602 29.7878 52.7729 29.9896C52.7143 30.8492 52.6796 31.7142 52.6476 32.5765C52.5649 34.2744 52.4316 35.9698 52.3249 37.6651C52.2876 38.2639 52.2742 38.8627 52.2582 39.4615C52.2742 39.749 52.2076 40.0603 52.3276 40.3291C52.6396 41.1861 53.9623 40.9413 53.9676 40.0284C53.8503 37.8673 54.0183 35.7036 54.157 33.5452C54.221 32.454 54.2236 31.3575 54.293 30.2664C54.4972 30.0942 54.6291 29.8517 54.6627 29.587C54.6963 29.3224 54.629 29.0548 54.4743 28.8372V28.8372Z" fill="black"/>
</g>
</g>
<defs>
<clipPath id="clip0_1893_1966">
<rect width="75" height="58" fill="white" transform="translate(0.59375 0.881836)"/>
</clipPath>
</defs>
</svg>
