<svg width="36" height="69" viewBox="0 0 36 69" fill="none" xmlns="http://www.w3.org/2000/svg">
<g clip-path="url(#clip0_1893_1894)">
<path d="M29.4196 59.9409C29.6267 54.4374 28.3127 62.0329 29.3857 56.638C29.9354 53.8746 31.0912 51.282 31.8065 48.5574C32.5219 45.8328 32.7553 42.8054 31.5091 40.2943C29.9241 37.1001 26.3512 35.5127 22.9289 34.8606C19.5066 34.2086 15.8245 34.2901 12.8766 36.1492C10.4898 37.7212 8.7971 40.1964 8.16296 43.0422C7.55231 45.8767 7.78051 48.8349 8.81806 51.5343C9.23596 52.6598 9.76681 53.7349 10.1922 54.8527C12.7599 61.6099 11.269 56.0171 11.9128 63.2555C11.9332 63.7749 12.0482 64.2857 12.2516 64.7614C12.5449 65.2662 12.9358 65.7035 13.3999 66.0461C14.9511 67.3696 16.6302 68.7629 18.6332 68.9647C20.2747 69.1394 21.9011 68.4912 23.3054 67.5986C25.9935 65.8947 29.2803 63.5233 29.4196 59.9409Z" fill="white"/>
<path d="M26.3083 53.5564L33.1754 7.17606C33.2639 6.69684 33.2578 6.20418 33.1575 5.72745C33.0572 5.25071 32.8649 4.79969 32.5919 4.40125C32.3189 4.00282 31.9708 3.66515 31.5685 3.40838C31.1662 3.15161 30.7178 2.98101 30.2501 2.90673L12.4835 0.53532C10.5597 0.27528 8.74499 1.76566 8.43627 3.86151L1.56532 50.2535C1.47744 50.7327 1.48393 51.2252 1.58442 51.7017C1.6849 52.1782 1.87733 52.629 2.15025 53.0273C2.42316 53.4256 2.771 53.7633 3.17306 54.0202C3.57513 54.2771 4.02321 54.4481 4.49065 54.5228L22.2572 56.8942C24.1849 57.1426 25.9958 55.6523 26.3083 53.5564Z" fill="#ACD4F7"/>
<path d="M22.6858 57.4267C22.5209 57.4259 22.3563 57.4156 22.1926 57.3957L4.42599 55.0282C3.91794 54.9616 3.4282 54.7898 2.98628 54.523C2.54436 54.2562 2.15939 53.8999 1.85456 53.4757C1.51641 53.0094 1.27309 52.4776 1.13917 51.912C1.00525 51.3465 0.983499 50.7588 1.07523 50.1844L7.94241 3.7963C8.29254 1.42877 10.3595 -0.259558 12.5469 0.0354129L30.3135 2.40683C30.8216 2.47479 31.3114 2.64722 31.7537 2.91389C32.1961 3.18056 32.582 3.53606 32.8887 3.95931C33.2258 4.42609 33.4686 4.95798 33.6025 5.52337C33.7363 6.08876 33.7586 6.67612 33.668 7.25057L26.797 53.6309C26.6591 54.6632 26.1701 55.6115 25.4171 56.3066C24.6642 57.0018 23.6962 57.3988 22.6858 57.4267V57.4267ZM12.0499 1.02512C11.2778 1.05226 10.5401 1.36083 9.96788 1.89596C9.3957 2.4311 9.02618 3.15809 8.92505 3.94767L2.0541 50.3319C1.98389 50.7712 2.00004 51.2205 2.10158 51.6532C2.20312 52.0859 2.38799 52.4932 2.64519 52.8508C2.87096 53.1673 3.1564 53.4336 3.48439 53.6337C3.81239 53.8338 4.17619 53.9635 4.554 54.0152L22.3319 56.3788C23.9922 56.6001 25.5584 55.2999 25.8295 53.4796L32.6966 7.0992C32.7679 6.65995 32.7523 6.21037 32.6508 5.77749C32.5492 5.34462 32.3637 4.93739 32.1055 4.5803C31.8798 4.26377 31.5943 3.99749 31.2664 3.79741C30.9384 3.59734 30.5746 3.46759 30.1968 3.41594L12.4302 1.04064C12.3039 1.02714 12.1769 1.02195 12.0499 1.02512V1.02512Z" fill="black"/>
<path d="M26.864 49.8195L32.8916 9.12124L8.1487 5.81445L2.12109 46.5166L26.864 49.8195Z" fill="white"/>
<path d="M26.853 50.3316H26.789L2.04608 47.0287C1.91411 47.0092 1.795 46.9366 1.71477 46.8269C1.67342 46.7727 1.64367 46.7101 1.62745 46.6432C1.61122 46.5763 1.60891 46.5066 1.62064 46.4388L7.65202 5.7366C7.67161 5.6046 7.74042 5.4857 7.8438 5.40523C7.94717 5.32476 8.07694 5.28908 8.20546 5.30579L32.9484 8.60869C33.0139 8.61772 33.077 8.64024 33.1339 8.67492C33.1909 8.70959 33.2404 8.7557 33.2797 8.81051C33.3211 8.86471 33.3508 8.92731 33.367 8.9942C33.3833 9.06108 33.3856 9.13075 33.3738 9.19863L27.35 49.8969C27.3319 50.0189 27.2716 50.1301 27.1803 50.21C27.089 50.2898 26.9728 50.333 26.853 50.3316ZM2.67858 46.0623L26.4351 49.2371L32.3121 9.54794L8.55559 6.377L2.67858 46.0623Z" fill="black"/>
<path d="M16.0331 51.8679H15.9691L11.5115 51.2741C11.4467 51.2654 11.3842 51.2437 11.3276 51.2101C11.271 51.1766 11.2213 51.1318 11.1815 51.0785C11.1416 51.0252 11.1123 50.9642 11.0953 50.8992C11.0783 50.8342 11.0739 50.7664 11.0823 50.6997C11.0907 50.6329 11.1117 50.5685 11.1443 50.5101C11.1768 50.4517 11.2202 50.4005 11.272 50.3595C11.3237 50.3184 11.3828 50.2882 11.4459 50.2706C11.5089 50.2531 11.5747 50.2485 11.6395 50.2572L16.0971 50.8549C16.2182 50.8763 16.3272 50.9431 16.4033 51.0424C16.4794 51.1418 16.5171 51.2667 16.5091 51.393C16.5012 51.5194 16.4482 51.6382 16.3603 51.7266C16.2723 51.815 16.1558 51.8667 16.0331 51.8718V51.8679Z" fill="black"/>
<g opacity="0.13">
<path opacity="0.13" d="M9.79372 6.12425C10.6446 6.20963 11.4955 6.27173 12.3388 6.39593C14.6128 6.67279 16.8843 6.98199 19.1533 7.32354C20.9378 7.57582 22.7111 7.9096 24.5182 7.99499C26.7245 8.20457 28.9382 8.33265 31.1181 8.73629C31.4231 8.78287 31.7318 8.82168 32.0405 8.84497C32.2322 8.82234 32.4253 8.87349 32.5827 8.98858C33.362 9.50089 32.8613 11.0961 31.9615 10.9602C30.8772 10.9175 29.8192 10.6653 28.7462 10.5721C27.4699 10.3936 26.1748 10.3586 24.8947 10.2228C20.1208 9.62121 15.3507 9.00798 10.5881 8.28219C9.95184 8.20845 9.32311 8.10754 8.70566 8.01051C8.5675 8.02008 8.4291 7.99594 8.30169 7.94005C8.17427 7.88416 8.06142 7.7981 7.97231 7.68884C7.8832 7.57958 7.82032 7.45021 7.78878 7.31121C7.75724 7.17222 7.75793 7.02751 7.79079 6.88884C8.02798 5.57312 9.08215 6.06215 9.79372 6.12425Z" fill="black"/>
</g>
<g opacity="0.13">
<path opacity="0.13" d="M6.9767 34.7139C6.76963 34.6324 6.68681 34.6013 6.9767 34.7139V34.7139Z" fill="black"/>
</g>
<g opacity="0.13">
<path opacity="0.13" d="M15.5742 35.7729C15.6291 35.7411 15.6856 35.7126 15.7436 35.6875L15.5742 35.7729Z" fill="black"/>
</g>
<g opacity="0.13">
<path opacity="0.13" d="M15.4689 35.8278L15.5743 35.7734C15.499 35.8161 15.4387 35.8511 15.4689 35.8278Z" fill="black"/>
</g>
<path d="M2.26651 41.9831C1.64154 41.3505 1.80343 42.1034 1.34035 41.3233C0.84311 40.535 0.617661 39.5972 0.700311 38.6608C0.743235 38.1929 0.905049 37.7448 1.16944 37.3619C1.43382 36.979 1.79144 36.6746 2.20627 36.4796C3.22656 36.0914 4.29956 36.6426 5.21819 37.2131C6.803 38.1491 8.26876 39.2847 9.58172 40.5936C10.0599 41.0943 10.5342 41.8317 10.2255 42.4954C10.0418 42.8344 9.7384 43.0874 9.37841 43.2018C8.89429 43.3977 8.37269 43.475 7.85464 43.4279C7.33659 43.3808 6.83621 43.2104 6.39285 42.9301C6.01636 42.6856 5.67752 42.3596 5.26338 42.1539C4.84924 41.9482 4.26944 41.6881 4.0059 41.3039C3.26045 40.19 3.04585 39.3323 2.26651 41.9831Z" fill="white"/>
<path d="M3.8149 37.5624C3.16402 36.9505 2.58868 36.2584 2.10186 35.5015C1.60518 34.7145 1.37975 33.778 1.46183 32.8429C1.5045 32.3744 1.66616 31.9257 1.93054 31.5421C2.19492 31.1585 2.55268 30.8535 2.96779 30.6578C3.98808 30.2697 5.06108 30.8247 5.97972 31.3913C7.56371 32.3286 9.02932 33.4641 10.3432 34.7719C10.8214 35.2725 11.2958 36.01 10.987 36.6775C10.8001 37.0137 10.4979 37.2657 10.1399 37.3839C9.15729 37.772 8.32901 38.4202 7.45556 37.8574C7.07154 37.5974 3.47229 35.8276 3.8149 37.5624Z" fill="white"/>
<path d="M4.99068 32.5366C4.3398 31.9247 3.76446 31.2325 3.27765 30.4757C2.78096 29.6886 2.55553 28.7522 2.63761 27.817C2.68065 27.3486 2.84246 26.9002 3.10679 26.5166C3.37113 26.1331 3.72869 25.828 4.14358 25.6319C5.1601 25.2438 6.2331 25.7949 7.1555 26.3655C8.73914 27.3015 10.2036 28.4371 11.5153 29.746C11.9934 30.2467 12.4678 30.9841 12.1628 31.6517C11.9972 32.0048 11.888 33.1071 11.5491 33.2429C10.5665 33.6311 9.20361 32.6491 8.32638 32.0786C7.94613 31.838 4.63678 30.8133 4.99068 32.5366Z" fill="white"/>
<path d="M4.15685 25.6317C3.31728 25.9228 3.2721 22.3754 3.38505 21.4323C3.42797 20.9643 3.58978 20.5163 3.85416 20.1334C4.11855 19.7505 4.47618 19.4461 4.89101 19.2511C5.91129 18.8629 6.98429 19.4141 7.90293 19.9846C9.48774 20.9206 10.9535 22.0562 12.2664 23.3651C12.7446 23.8658 13.219 24.6032 12.9102 25.2669C12.7484 25.624 14.3371 28.9191 13.9945 29.055C13.4808 29.2647 12.9291 29.3574 12.3774 29.3266C11.8256 29.2958 11.2869 29.1422 10.7981 28.8764C10.4141 28.6358 6.38191 24.8594 4.15685 25.6317Z" fill="white"/>
<path d="M8.91403 44.2493C7.05793 44.2493 4.77264 42.2272 3.43986 41.0512C3.2968 40.9231 3.16879 40.8067 3.06337 40.7097C2.97897 40.618 2.93043 40.4974 2.92707 40.371C2.92372 40.2447 2.96579 40.1215 3.0452 40.0252C3.1246 39.9289 3.23574 39.8663 3.35724 39.8493C3.47874 39.8324 3.60203 39.8623 3.70341 39.9334L4.0799 40.2827C5.29596 41.3578 8.14222 43.8728 9.49382 43.0888C9.97949 42.8055 10.0435 42.5222 10.0473 42.3359C10.0849 41.1715 7.95774 39.2309 5.96987 37.8997C4.86299 37.1545 3.68081 36.452 2.47228 36.7081C1.62518 36.8867 0.966319 37.8298 0.966319 38.901C0.966319 40.046 1.81719 41.0396 2.57017 41.9167L2.62664 41.9788C2.71401 42.0818 2.75814 42.2162 2.74931 42.3527C2.74049 42.4892 2.67943 42.6165 2.57958 42.7065C2.47973 42.7966 2.34926 42.8421 2.21687 42.833C2.08449 42.8239 1.96103 42.761 1.87366 42.658L1.82095 42.5959C0.992675 41.6334 -0.0389109 40.4341 -0.035146 38.901C-0.0313811 37.368 0.928668 35.9824 2.24638 35.7068C3.82011 35.3691 5.25831 36.2191 6.48567 37.0419C7.56243 37.7638 11.0788 40.2827 11.0036 42.3669C10.9852 42.7095 10.8772 43.0406 10.6909 43.3249C10.5046 43.6092 10.2471 43.8361 9.94561 43.9815C9.62826 44.1566 9.27399 44.2486 8.91403 44.2493V44.2493Z" fill="black"/>
<path d="M12.287 35.7614C11.8442 35.7573 11.4066 35.6614 11.0004 35.4793C10.5942 35.2973 10.2277 35.0329 9.92269 34.7018C9.88239 34.6493 9.85252 34.5892 9.83478 34.5248C9.81705 34.4604 9.81178 34.393 9.8193 34.3265C9.82681 34.26 9.84696 34.1957 9.87859 34.1372C9.91022 34.0788 9.95271 34.0273 10.0036 33.9858C10.0546 33.9442 10.1129 33.9134 10.1754 33.8951C10.2379 33.8768 10.3032 33.8714 10.3677 33.8792C10.4322 33.8869 10.4946 33.9077 10.5513 33.9403C10.608 33.9729 10.658 34.0167 10.6983 34.0692C10.927 34.2923 11.1968 34.4659 11.4916 34.5799C11.7864 34.6939 12.1004 34.7459 12.4151 34.7329C12.4873 34.7306 12.5583 34.7125 12.6232 34.6797C12.6881 34.6469 12.7455 34.6002 12.7915 34.5427C12.961 34.1895 12.8367 32.1674 11.3345 30.2734C9.73068 28.2474 7.12913 26.1632 5.26174 26.0933C4.28663 26.0584 3.58636 26.3378 3.18351 26.9278C2.62254 27.7584 2.65642 29.2332 3.2701 30.7779C3.31281 30.902 3.30756 31.0382 3.25545 31.1584C3.20334 31.2785 3.10836 31.3734 2.99022 31.4233C2.87207 31.4732 2.73983 31.4744 2.6209 31.4265C2.50198 31.3786 2.40549 31.2853 2.35147 31.1661C1.59849 29.2759 1.59849 27.4712 2.37029 26.3417C2.7882 25.7285 3.6353 25.0066 5.29939 25.0726C7.55833 25.158 10.4121 27.4906 12.1026 29.6252C13.8457 31.822 14.049 34.2594 13.6725 35.0084C13.5536 35.2249 13.3829 35.4064 13.1766 35.5355C12.9703 35.6646 12.7353 35.737 12.4941 35.7459C12.4254 35.7545 12.3563 35.7597 12.287 35.7614V35.7614Z" fill="black"/>
<path d="M10.4299 41.3894C10.1894 41.3985 9.94968 41.3562 9.72583 41.2652C9.66125 41.241 9.60224 41.2032 9.55252 41.1543C9.50281 41.1054 9.46347 41.0464 9.43701 40.981C9.41054 40.9156 9.39751 40.8453 9.39875 40.7745C9.39998 40.7037 9.41546 40.6339 9.44419 40.5695C9.47292 40.5052 9.51429 40.4476 9.56567 40.4006C9.61706 40.3536 9.67735 40.318 9.74274 40.2962C9.80813 40.2744 9.87719 40.2669 9.94556 40.274C10.0139 40.2811 10.0801 40.3028 10.14 40.3376C10.3508 40.4113 11.4087 40.3648 11.6949 39.7903C11.8763 39.3338 11.9003 38.8268 11.7626 38.3543C11.4167 36.9553 10.7535 35.661 9.82749 34.5779C8.57702 32.9204 6.8318 31.7338 4.86158 31.2012C4.35509 31.114 3.83556 31.1561 3.34853 31.3239C2.86149 31.4917 2.42181 31.7801 2.06802 32.1638C1.36398 33.0215 1.34893 34.345 2.02284 35.9868C2.05791 36.0499 2.07951 36.1201 2.0862 36.1926C2.0929 36.265 2.08454 36.3381 2.06168 36.407C2.03883 36.4759 2.002 36.5389 1.95364 36.592C1.90529 36.645 1.84653 36.6869 1.78127 36.7147C1.71601 36.7425 1.64575 36.7556 1.57518 36.7532C1.50461 36.7508 1.43534 36.733 1.37199 36.7008C1.30864 36.6687 1.25266 36.623 1.20779 36.5668C1.16291 36.5106 1.13017 36.4452 1.11174 36.3749C0.061331 33.8172 0.641125 32.3074 1.31128 31.4923C1.7852 30.9655 2.38044 30.5705 3.04185 30.3439C3.70326 30.1173 4.40946 30.0664 5.09501 30.196C7.27615 30.7805 9.20949 32.0901 10.5955 33.922C11.6253 35.1267 12.3577 36.57 12.7302 38.1292C12.9231 38.8335 12.8684 39.5854 12.5759 40.2522C12.1693 41.0983 11.164 41.3894 10.4299 41.3894Z" fill="black"/>
<path d="M13.0103 31.0959H12.9199C12.5816 31.06 12.2543 30.9512 11.9592 30.7767C11.6641 30.6022 11.4079 30.3659 11.2069 30.0829C11.1414 29.9783 11.115 29.8527 11.1328 29.7295C11.1506 29.6063 11.2113 29.494 11.3036 29.4136C11.3959 29.3332 11.5134 29.2902 11.6342 29.2927C11.755 29.2952 11.8708 29.3429 11.9599 29.427C12.0766 29.6 12.2263 29.7466 12.3997 29.8581C12.5732 29.9695 12.7668 30.0434 12.9689 30.0752C13.2765 30.0752 13.5716 29.9496 13.7896 29.7259C14.5916 28.9496 13.8951 27.3195 13.3567 26.4889L13.0592 26.0271C11.9975 24.3853 10.902 22.6854 9.49389 21.424C8.36441 20.4071 5.68757 18.9788 4.33597 20.1044C3.2065 21.0475 3.61687 22.6194 4.21926 24.4319C4.35804 24.8205 4.47495 25.2171 4.5694 25.6196C4.59586 25.7529 4.56986 25.8915 4.49714 26.0051C4.42442 26.1186 4.31091 26.1977 4.18161 26.225C4.0523 26.2523 3.91778 26.2255 3.80763 26.1505C3.69749 26.0756 3.62074 25.9586 3.59428 25.8253C3.51014 25.4644 3.40453 25.1093 3.27803 24.7618C2.75095 23.1744 1.95279 20.7758 3.71476 19.3281C5.57839 17.7756 8.65055 19.3281 10.149 20.671C11.6474 22.0139 12.7844 23.776 13.8838 25.4798L14.1812 25.9417C15.0622 27.304 15.6683 29.3106 14.4711 30.4866C14.0751 30.8707 13.554 31.0881 13.0103 31.0959V31.0959Z" fill="black"/>
<path d="M27.8536 31.2823C26.5697 29.1748 22.7634 25.1927 24.7136 23.9856C25.7038 23.3685 28.1322 24.5445 28.9303 25.3984C30.2857 26.8577 33.0152 28.1812 34.0054 29.9316C34.3819 30.5837 35.8126 34.3407 35.3307 34.9112C35.0746 35.2178 35.0859 38.4276 35.0069 38.8235C30.9182 59.7004 28.4108 43.7914 28.4108 42.6426C28.4108 39.4677 29.8264 34.5153 27.8536 31.2823Z" fill="white"/>
<path d="M29.4232 66.1747C29.3579 66.1732 29.2936 66.1585 29.2339 66.1313C29.1741 66.1042 29.1202 66.0651 29.0751 66.0165C29.03 65.9678 28.9946 65.9105 28.971 65.8477C28.9474 65.785 28.936 65.7181 28.9375 65.6508C29.0731 60.1084 28.8622 64.9211 28.6363 59.2895V58.7849C28.4104 53.0951 30.2402 51.6823 31.8553 47.7507C32.7137 45.6587 33.5269 43.6832 33.9863 41.6766L34.1256 41.0789C34.8484 37.9506 35.5939 34.7176 34.4268 31.9348C33.6738 30.1145 32.1678 28.7522 30.5941 27.4054L30.372 27.2152C29.4383 26.4157 28.1582 25.3212 27.153 24.8011C25.9294 24.1724 25.2216 24.1258 24.9655 24.2966C24.8526 24.3703 24.7961 24.5411 24.8037 24.8011C24.8564 27.2036 25.3872 27.8091 26.6673 29.2684C26.9647 29.6061 27.296 29.9825 27.665 30.4328C29.8712 33.1108 29.3517 37.3413 28.6363 41.4437C28.6247 41.51 28.6006 41.5732 28.5652 41.6299C28.5299 41.6865 28.4841 41.7354 28.4304 41.7738C28.3767 41.8122 28.3163 41.8393 28.2525 41.8536C28.1886 41.8679 28.1227 41.8691 28.0584 41.8571C27.9941 41.8451 27.9328 41.8202 27.8779 41.7838C27.8229 41.7473 27.7755 41.7001 27.7382 41.6448C27.701 41.5895 27.6747 41.5271 27.6609 41.4613C27.647 41.3955 27.6458 41.3276 27.6575 41.2613C28.3351 37.3995 28.8321 33.4329 26.9045 31.0964C26.5468 30.6579 26.2193 30.2853 25.9294 29.9554C24.6004 28.4417 23.8662 27.6072 23.806 24.8244C23.7765 24.5554 23.8191 24.2833 23.9293 24.0376C24.0395 23.7919 24.213 23.5821 24.4309 23.4311C25.0973 22.9964 26.159 23.1477 27.5897 23.8891C28.7003 24.4596 30.0331 25.5968 31.0045 26.4274L31.2228 26.6175C32.8342 27.9915 34.4795 29.5013 35.3341 31.5273C36.633 34.6322 35.8461 38.0244 35.0856 41.3157L34.9501 41.9095C34.4719 44.0014 33.6436 46.0158 32.7664 48.1504C31.1136 52.1675 29.4081 53.2853 29.6227 58.7422L29.6453 59.2468C29.8675 64.8978 30.0783 60.1007 29.9465 65.678C29.9446 65.7463 29.9294 65.8135 29.902 65.8757C29.8745 65.9379 29.8352 65.9937 29.7864 66.04C29.7376 66.0863 29.6804 66.1221 29.618 66.1452C29.5556 66.1684 29.4894 66.1784 29.4232 66.1747V66.1747Z" fill="black"/>
<path d="M11.5919 66.1205C11.5266 66.1194 11.4622 66.1052 11.4023 66.0785C11.3424 66.0518 11.2881 66.0132 11.2427 65.9649C11.1972 65.9166 11.1615 65.8596 11.1374 65.797C11.1133 65.7345 11.1015 65.6677 11.1025 65.6004C11.1815 59.9494 11.1589 64.3506 11.0385 58.6996C10.9933 56.2428 10.5829 57.4149 9.70191 55.6839C9.66648 55.6242 9.6433 55.5576 9.6338 55.4883C9.62429 55.419 9.62867 55.3484 9.64666 55.2809C9.66465 55.2134 9.69586 55.1504 9.73838 55.0958C9.7809 55.0412 9.83382 54.9962 9.89387 54.9636C9.95392 54.9309 10.0198 54.9112 10.0875 54.9058C10.1552 54.9004 10.2233 54.9094 10.2875 54.9322C10.3517 54.9549 10.4107 54.991 10.4609 55.0382C10.511 55.0854 10.5513 55.1427 10.5791 55.2065C11.5241 57.0617 11.9834 56.0914 12.0286 58.6996C12.1491 64.3584 12.1717 59.9688 12.0964 65.6353C12.0887 65.7674 12.032 65.8915 11.9381 65.9817C11.8442 66.072 11.7203 66.1217 11.5919 66.1205Z" fill="black"/>
<g opacity="0.13">
<path opacity="0.13" d="M10.0656 42.7163C10.032 42.6537 9.99021 42.5963 9.94136 42.5455C9.78699 42.3973 9.59016 42.3047 9.3804 42.2816C9.32263 42.2681 9.26597 42.2499 9.21097 42.2273C8.05891 41.6684 8.00244 41.5209 6.65084 40.4885C5.86021 39.9335 5.05452 39.2814 4.09447 39.0874C3.36408 38.936 2.51697 38.967 1.97483 39.5686C1.59057 40.0011 1.3829 40.5697 1.39503 41.156C1.40953 41.2945 1.45198 41.4282 1.51964 41.5487C1.58731 41.6692 1.67869 41.7738 1.78792 41.8557C1.89715 41.9376 2.0218 41.995 2.15385 42.0242C2.28589 42.0535 2.42241 42.0539 2.55463 42.0254C2.52074 42.7357 2.31367 43.1471 2.24967 44.3891C2.24967 44.8238 2.13296 45.3051 2.30991 45.7126C2.79935 46.8769 4.41072 46.3452 4.28271 45.1032V45.0295C4.3919 44.2882 4.40696 44.1989 4.53873 43.446C5.88657 44.3736 7.55065 45.1188 9.12438 44.6957C9.62888 44.4861 10.3216 44.2183 10.3819 43.5779C10.4065 43.4183 10.3903 43.2549 10.3348 43.1038C10.2794 42.9526 10.1865 42.8191 10.0656 42.7163V42.7163Z" fill="black"/>
</g>
<g opacity="0.13">
<path opacity="0.13" d="M30.332 37.2631C30.5691 35.0159 30.475 32.6289 29.4171 30.5991C28.1897 28.3014 27.0602 27.3854 26.0588 25.8368L26.0211 25.7553C25.9792 25.6412 25.944 25.5245 25.9157 25.406C25.8973 25.2172 25.8238 25.0386 25.7049 24.8937C25.5808 24.7315 25.412 24.6119 25.2206 24.5507C25.0292 24.4895 24.8243 24.4896 24.633 24.551C24.4417 24.6124 24.2729 24.7322 24.149 24.8946C24.0251 25.0569 23.952 25.2542 23.9391 25.4604C23.8399 25.5767 23.7715 25.7175 23.7405 25.8692C23.7095 26.0208 23.717 26.1781 23.7622 26.3259C24.0147 27.5342 24.3803 28.7145 24.854 29.85C25.4413 31.0803 26.0889 32.2874 26.6612 33.5255C27.2208 35.045 27.5877 36.6326 27.753 38.2489C27.8179 38.5592 27.8557 38.8748 27.8659 39.192C27.8578 39.3464 27.8849 39.5006 27.945 39.6423C27.942 39.7709 27.9656 39.8987 28.0143 40.0172C28.063 40.1356 28.1356 40.242 28.2274 40.3292C28.2274 40.403 28.2274 40.4728 28.2274 40.5466C28.0504 40.9541 28.1107 41.3616 27.9262 42.1689C27.5497 45.7784 26.8569 49.4772 26.4202 52.7452C26.3551 53.4164 26.1834 54.072 25.912 54.6858C25.4075 54.8449 25.2493 55.4038 24.9896 55.823C24.9127 55.9647 24.8285 56.102 24.7373 56.2344L24.4549 56.5682C24.2909 56.7221 24.1545 56.9048 24.0521 57.1077L23.7584 57.1775L23.6041 57.2086H23.4309L23.0996 57.2551C23.1824 57.2551 23.4761 57.2008 23.2991 57.2202C22.114 57.2876 20.9253 57.2265 19.7526 57.0378C18.6231 56.867 18.7059 56.9369 17.264 56.6497C15.4832 56.2616 13.804 55.4853 12.0157 55.0972C11.4321 54.9031 10.6829 54.8527 10.3064 55.4504C10.1853 55.6137 10.1047 55.805 10.0716 56.0077C10.0386 56.2104 10.0541 56.4184 10.1168 56.6136C10.1795 56.8087 10.2876 56.9851 10.4315 57.1273C10.5754 57.2696 10.7509 57.3734 10.9427 57.4298C12.7047 57.8179 14.3913 58.5204 16.1307 58.9823C17.2888 59.2607 18.4655 59.4489 19.6509 59.5451C21.9475 59.8012 25.2682 59.5024 26.1341 57.7093C26.1806 57.6126 26.2063 57.5066 26.2094 57.3987C26.3186 57.2435 26.424 57.0883 26.5256 56.9253C26.7741 56.6303 27.0151 56.3275 27.2372 56.0132C28.1445 54.515 28.186 52.6909 28.4759 50.9948C28.9427 48.2546 29.3719 45.5106 29.6279 42.7395C29.6279 42.7162 29.6279 42.689 29.6279 42.6541C29.6806 42.3086 29.7258 41.9593 29.7672 41.6139C29.9019 41.2799 29.9636 40.9195 29.9479 40.5582C29.9896 40.2558 29.9781 39.9482 29.9141 39.65C29.9449 39.5228 29.9638 39.3928 29.9705 39.2619C30.0835 38.6215 30.2679 37.9501 30.332 37.2631Z" fill="black"/>
</g>
<g opacity="0.13">
<path opacity="0.13" d="M13.3285 35.4629L13.1591 35.0553L13.0574 34.7992C13.1202 34.5461 13.085 34.2778 12.9592 34.051C12.8334 33.8243 12.6269 33.6569 12.3835 33.5844L12.5755 33.6697C12.4212 33.596 12.2593 33.5378 12.0974 33.4796C12.0334 33.4485 11.9505 33.4019 11.879 33.3593C11.8008 33.3179 11.7253 33.2712 11.6531 33.2195C10.038 31.7757 8.41906 30.2621 6.38225 29.4509C5.74179 29.1981 5.06763 29.0475 4.38309 29.0045C3.92377 29.0045 3.42304 28.8687 2.98631 29.0472C2.06391 29.4004 2.36133 30.8908 3.34021 30.8675C5.22266 30.8209 6.4839 31.539 8.53578 33.1031C9.36782 33.7784 10.102 34.6051 11.0168 35.1563C11.024 35.2156 11.0366 35.2741 11.0545 35.3309C11.1147 35.5056 11.3933 36.1731 11.4799 36.3788L11.5402 36.5302C11.6908 37.1822 12.2066 37.6946 12.8918 37.5121C13.8895 37.1745 13.7276 36.243 13.3285 35.4629Z" fill="black"/>
</g>
<g opacity="0.13">
<path opacity="0.13" d="M13.2974 28.667C12.5218 28.2789 12.8456 28.4535 11.9495 27.72C10.1085 26.1946 8.22226 24.5335 5.87296 23.9513C5.24046 23.8698 4.44607 23.5632 3.92651 24.0988C3.79456 24.2395 3.7053 24.4168 3.66967 24.609C3.63405 24.8011 3.65361 24.9999 3.72596 25.1808C3.79831 25.3617 3.92031 25.5169 4.07698 25.6273C4.23365 25.7378 4.41819 25.7987 4.60796 25.8026C4.78114 25.6862 6.40758 26.1908 6.44146 26.2762C7.31946 26.7048 8.14373 27.2417 8.89618 27.8752L8.69288 27.7122C9.82235 28.5156 10.7335 29.6023 11.9194 30.3048C12.4126 30.5377 13.0112 30.8715 13.5345 30.5455C13.7007 30.4411 13.8339 30.2894 13.918 30.1085C14.0021 29.9277 14.0335 29.7256 14.0084 29.5267C13.9833 29.3279 13.9027 29.1408 13.7765 28.9882C13.6503 28.8356 13.4839 28.724 13.2974 28.667Z" fill="black"/>
</g>
<g opacity="0.13">
<path opacity="0.13" d="M11.962 40.7646C12.085 40.5678 12.1476 40.3373 12.1416 40.1032C12.1356 39.8692 12.0613 39.6424 11.9283 39.4525C11.7954 39.2627 11.61 39.1186 11.3964 39.039C11.1828 38.9594 10.9508 38.9481 10.7309 39.0065C10.4222 38.7037 10.0269 38.4437 9.75955 38.1409C8.06911 36.7049 6.32596 35.1796 4.15361 34.6129C3.58316 34.4707 2.99721 34.4055 2.41046 34.4189C2.24687 34.3948 2.08015 34.4081 1.92208 34.4577C1.764 34.5074 1.61841 34.5921 1.49558 34.7061C1.36954 34.841 1.28441 35.0109 1.25064 35.1949C1.21687 35.379 1.23593 35.5692 1.30547 35.7422C1.37501 35.9153 1.49203 36.0636 1.64216 36.1691C1.79229 36.2746 1.96901 36.3327 2.15068 36.3362C4.13102 36.1305 6.15653 37.7062 7.63238 38.9366C7.79427 39.0763 7.95993 39.216 8.11805 39.3596C8.54349 39.7478 8.92374 40.1631 9.34541 40.5434C9.44832 40.6709 9.57646 40.7742 9.72125 40.8465C9.86605 40.9188 10.0242 40.9584 10.185 40.9626C10.2929 40.9628 10.4 40.9431 10.5012 40.9044L10.5502 40.9471C10.3409 41.0809 10.1867 41.2895 10.1172 41.5331C10.069 41.7247 10.0765 41.9266 10.1387 42.1138C10.2009 42.301 10.3152 42.4652 10.4673 42.586C10.6193 42.7068 10.8025 42.7788 10.994 42.7931C11.1854 42.8074 11.3767 42.7633 11.5441 42.6664C11.6307 42.6121 11.8039 42.4801 11.9206 42.3909C12.0521 42.3048 12.1611 42.1868 12.238 42.0472C12.315 41.9075 12.3575 41.7506 12.362 41.5901C12.3665 41.4296 12.3327 41.2704 12.2636 41.1265C12.1945 40.9826 12.0923 40.8584 11.9658 40.7646H11.962Z" fill="black"/>
</g>
</g>
<defs>
<clipPath id="clip0_1893_1894">
<rect width="36" height="69" fill="white"/>
</clipPath>
</defs>
</svg>
