<svg width="15" height="16" viewBox="0 0 15 16" fill="none" xmlns="http://www.w3.org/2000/svg">
<g clip-path="url(#clip0_884_2304)">
<path d="M7.5 15.0065C11.6421 15.0065 15 11.6487 15 7.50668C15 3.36463 11.6421 0.00683594 7.5 0.00683594C3.35786 0.00683594 0 3.36463 0 7.50668C0 11.6487 3.35786 15.0065 7.5 15.0065Z" fill="white"/>
<path d="M6.28611 11.0068C6.09797 11.0071 5.91742 10.9247 5.78409 10.7777L4.20786 9.0339C4.14195 8.9609 4.08967 8.87423 4.05401 8.77885C4.01834 8.68347 3.99999 8.58124 4 8.47801C4.00001 8.37478 4.01838 8.27255 4.05407 8.17718C4.08975 8.08181 4.14205 7.99516 4.20798 7.92217C4.34112 7.77476 4.52169 7.69196 4.70996 7.69198C4.80318 7.692 4.89549 7.71234 4.98161 7.75186C5.06773 7.79137 5.14599 7.84929 5.2119 7.92229L6.28611 9.11062L9.78834 5.23725C9.85421 5.16425 9.93242 5.10633 10.0185 5.06679C10.1046 5.02725 10.1968 5.00688 10.29 5.00684C10.3832 5.00679 10.4755 5.02707 10.5616 5.06652C10.6477 5.10597 10.726 5.16382 10.7919 5.23676C10.8579 5.3097 10.9102 5.3963 10.9459 5.49163C10.9816 5.58696 11 5.68914 11 5.79234C11 5.89553 10.9817 5.99773 10.9461 6.09309C10.9105 6.18845 10.8582 6.27511 10.7924 6.34812L6.78813 10.7777C6.6548 10.9247 6.47425 11.0071 6.28611 11.0068Z" fill="#2766F1"/>
</g>
<defs>
<clipPath id="clip0_884_2304">
<rect width="15" height="15" fill="white" transform="translate(0 0.00683594)"/>
</clipPath>
</defs>
</svg>
